SplineFontDB: 3.0
FontName: LibreFranklin-Thin
FullName: Libre Franklin Thin
FamilyName: Libre Franklin Thin
Weight: Thin
Copyright: Copyright \\(c\\) 2015, Impallari Type \\(www.impallari.com\\)
Version: 001.015
ItalicAngle: 0
UnderlinePosition: -100
UnderlineWidth: 50
Ascent: 800
Descent: 200
InvalidEm: 0
sfntRevision: 0x000103d7
LayerCount: 2
Layer: 0 0 "Back" 1
Layer: 1 0 "Fore" 0
XUID: [1021 1017 285194369 2391]
StyleMap: 0x0040
FSType: 0
OS2Version: 3
OS2_WeightWidthSlopeOnly: 0
OS2_UseTypoMetrics: 0
CreationTime: 1479168956
ModificationTime: 1486323105
PfmFamily: 81
TTFWeight: 250
TTFWidth: 5
LineGap: 238
VLineGap: 0
Panose: 0 0 3 0 0 0 0 0 0 0
OS2TypoAscent: 847
OS2TypoAOffset: 0
OS2TypoDescent: -165
OS2TypoDOffset: 0
OS2TypoLinegap: 238
OS2WinAscent: 1167
OS2WinAOffset: 0
OS2WinDescent: 246
OS2WinDOffset: 0
HheadAscent: 847
HheadAOffset: 0
HheadDescent: -165
HheadDOffset: 0
OS2SubXSize: 650
OS2SubYSize: 600
OS2SubXOff: 0
OS2SubYOff: 75
OS2SupXSize: 650
OS2SupYSize: 600
OS2SupXOff: 0
OS2SupYOff: 350
OS2StrikeYSize: 50
OS2StrikeYPos: 318
OS2CapHeight: 742
OS2XHeight: 530
OS2Vendor: 'IMPA'
OS2CodePages: 20000193.00000000
OS2UnicodeRanges: 20000007.00000000.00000000.00000000
Lookup: 1 0 0 "'locl' Localized Forms in Cyrillic lookup 26" { "'locl' Localized Forms in Cyrillic lookup 26-1" ("loclBGR") } ['locl' ('cyrl' <'BGR ' > ) ]
Lookup: 1 0 0 "'aalt' Access All Alternates in Latin lookup 0" { "'aalt' Access All Alternates in Latin lookup 0 subtable"  } ['aalt' ('DFLT' <'dflt' > 'latn' <'AZE ' 'CAT ' 'CRT ' 'KAZ ' 'MOL ' 'ROM ' 'TAT ' 'TRK ' 'dflt' > ) ]
Lookup: 3 0 0 "'aalt' Access All Alternates in Latin lookup 1" { "'aalt' Access All Alternates in Latin lookup 1 subtable"  } ['aalt' ('DFLT' <'dflt' > 'latn' <'AZE ' 'CAT ' 'CRT ' 'KAZ ' 'MOL ' 'ROM ' 'TAT ' 'TRK ' 'dflt' > ) ]

StartChar: .notdef
Encoding: 1114112 -1 0
Width: 736
Flags: MW
HStem: -165 50<130.5 533 189 533 189 589> 797 50<202 555 202 202>
VStem: 114 52<-101 -94 -94 734> 570 52<-58 779 779 784.5>
LayerCount: 2
Fore
SplineSet
604 847 m 2
 615 847 622 839 622 826 c 2
 622 -136 l 2
 622 -157 612 -165 589 -165 c 2
 141 -165 l 2
 120 -165 114 -157 114 -140 c 2
 114 824 l 2
 114 839 122 847 133 847 c 2
 604 847 l 2
570 779 m 2
 570 790 564 797 555 797 c 2
 202 797 l 1
 570 -58 l 1
 570 779 l 2
166 -94 m 2
 166 -108 171 -115 189 -115 c 2
 533 -115 l 1
 166 734 l 1
 166 -94 l 2
EndSplineSet
Validated: 1
EndChar

StartChar: A
Encoding: 65 65 1
Width: 700
GlyphClass: 2
Flags: MW
HStem: 0 21G<57 60 60 85 611.5 615 615 639> 238 40<186 494 203 494 494 498 203 511> 687.63 54.37
VStem: 52.4 595.17
AnchorPoint: "Anchor-5" 0 0 basechar 0
AnchorPoint: "Anchor-4" 350 742 basechar 0
AnchorPoint: "Anchor-3" 639 11 basechar 0
AnchorPoint: "Anchor-2" 350 0 basechar 0
LayerCount: 2
Fore
SplineSet
60 0 m 6
 54 0 51 3 53 9 c 6
 318 731 l 6
 321 739 325 742 334 742 c 6
 367 742 l 6
 377 742 383 739 385 732 c 6
 647 10 l 6
 649 4 646 0 639 0 c 6
 615 0 l 6
 608 0 604 2 602 8 c 6
 521 231 l 6
 519 236 517 238 511 238 c 6
 189 238 l 6
 183 238 181 236 179 231 c 6
 96 7 l 6
 95 2 91 0 85 0 c 6
 60 0 l 6
203 278 m 6
 494 278 l 6
 502 278 503 282 501 288 c 6
 358 678 l 6
 353 691 348 691 343 677 c 6
 198 286 l 6
 195 279 197 278 203 278 c 6
EndSplineSet
Validated: 1
Substitution2: "Single Substitution lookup 25 subtable" ordfeminine
Substitution2: "'aalt' Access All Alternates in Latin lookup 0 subtable" ordfeminine
EndChar

StartChar: Aacute
Encoding: 193 193 2
Width: 700
GlyphClass: 2
Flags: MW
HStem: 0 21G<57 60 60 85 611.5 615 615 639> 238 40<186 494 203 494 494 498 203 511> 687.63 54.37
VStem: 52.4 595.17
AnchorPoint: "Anchor-5" 0 0 basechar 0
AnchorPoint: "Anchor-4" 350 742 basechar 0
AnchorPoint: "Anchor-3" 639 11 basechar 0
AnchorPoint: "Anchor-2" 350 0 basechar 0
LayerCount: 2
Fore
SplineSet
469 964 m 2
 479 932 l 2
 481 926 480 923 472 920 c 2
 245 846 l 2
 239 844 236 845 234 851 c 2
 229 866 l 2
 227 871 229 875 232 876 c 2
 461 967 l 2
 464 968 468 967 469 964 c 2
60 0 m 2
 54 0 51 3 53 9 c 2
 318 731 l 2
 321 739 325 742 334 742 c 2
 367 742 l 2
 377 742 383 739 385 732 c 2
 647 10 l 2
 649 4 646 0 639 0 c 2
 615 0 l 2
 608 0 604 2 602 8 c 2
 521 231 l 2
 519 236 517 238 511 238 c 2
 189 238 l 2
 183 238 181 236 179 231 c 2
 96 7 l 2
 95 2 91 0 85 0 c 2
 60 0 l 2
203 278 m 2
 494 278 l 2
 502 278 503 282 501 288 c 2
 358 678 l 2
 353 691 348 691 343 677 c 2
 198 286 l 2
 195 279 197 278 203 278 c 2
EndSplineSet
Validated: 1
EndChar

StartChar: Abreve
Encoding: 258 258 3
Width: 700
GlyphClass: 2
Flags: MW
HStem: 0 21G<57 60 60 85 611.5 615 615 639> 238 40<186 494 203 494 494 498 203 511> 687.63 54.37 862 41<323.5 371 323.5 388>
VStem: 52.4 595.17
AnchorPoint: "Anchor-5" 0 0 basechar 0
AnchorPoint: "Anchor-4" 348 920 basechar 0
AnchorPoint: "Anchor-3" 639 11 basechar 0
AnchorPoint: "Anchor-2" 350 0 basechar 0
LayerCount: 2
Fore
SplineSet
472 954 m 2
 480 954 481 952 479 945 c 0
 470 913 428 862 348 862 c 0
 271 862 234 910 222 946 c 0
 221 949 220 954 226 954 c 2
 261 954 l 2
 267 954 269 952 273 947 c 0
 283 934 299 903 348 903 c 0
 394 903 417 929 428 948 c 0
 431 953 433 954 437 954 c 2
 472 954 l 2
60 0 m 2
 54 0 51 3 53 9 c 2
 318 731 l 2
 321 739 325 742 334 742 c 2
 367 742 l 2
 377 742 383 739 385 732 c 2
 647 10 l 2
 649 4 646 0 639 0 c 2
 615 0 l 2
 608 0 604 2 602 8 c 2
 521 231 l 2
 519 236 517 238 511 238 c 2
 189 238 l 2
 183 238 181 236 179 231 c 2
 96 7 l 2
 95 2 91 0 85 0 c 2
 60 0 l 2
203 278 m 2
 494 278 l 2
 502 278 503 282 501 288 c 2
 358 678 l 2
 353 691 348 691 343 677 c 2
 198 286 l 2
 195 279 197 278 203 278 c 2
EndSplineSet
Validated: 1
EndChar

StartChar: uni1EAE
Encoding: 7854 7854 4
Width: 700
GlyphClass: 2
Flags: MW
HStem: 0 21G<57 60 60 85 611.5 615 615 639> 238 40<186 494 203 494 494 498 203 511> 687.63 54.37 862 41<322.5 370 322.5 387>
VStem: 52.4 595.17
AnchorPoint: "Anchor-5" 0 0 basechar 0
AnchorPoint: "Anchor-4" 350 1145 basechar 0
AnchorPoint: "Anchor-3" 639 11 basechar 0
AnchorPoint: "Anchor-2" 350 0 basechar 0
LayerCount: 2
Fore
SplineSet
466 1142 m 2
 476 1110 l 2
 478 1104 477 1101 469 1098 c 2
 242 1024 l 2
 236 1022 233 1023 231 1029 c 2
 226 1044 l 2
 224 1049 226 1053 229 1054 c 2
 458 1145 l 2
 461 1146 465 1145 466 1142 c 2
471 954 m 2
 479 954 480 952 478 945 c 0
 469 913 427 862 347 862 c 0
 270 862 233 910 221 946 c 0
 220 949 219 954 225 954 c 2
 260 954 l 2
 266 954 268 952 272 947 c 0
 282 934 298 903 347 903 c 0
 393 903 416 929 427 948 c 0
 430 953 432 954 436 954 c 2
 471 954 l 2
60 0 m 2
 54 0 51 3 53 9 c 2
 318 731 l 2
 321 739 325 742 334 742 c 2
 367 742 l 2
 377 742 383 739 385 732 c 2
 647 10 l 2
 649 4 646 0 639 0 c 2
 615 0 l 2
 608 0 604 2 602 8 c 2
 521 231 l 2
 519 236 517 238 511 238 c 2
 189 238 l 2
 183 238 181 236 179 231 c 2
 96 7 l 2
 95 2 91 0 85 0 c 2
 60 0 l 2
203 278 m 2
 494 278 l 2
 502 278 503 282 501 288 c 2
 358 678 l 2
 353 691 348 691 343 677 c 2
 198 286 l 2
 195 279 197 278 203 278 c 2
EndSplineSet
Validated: 1
EndChar

StartChar: uni1EB6
Encoding: 7862 7862 5
Width: 700
GlyphClass: 2
Flags: MW
HStem: -165 103<333 335 335 364> 0 21G<57 60 60 85 611.5 615 615 639> 238 40<186 494 203 494 494 498 203 511> 687.63 54.37 862 41<323.5 371 323.5 388>
VStem: 324 52<-155 -153 -153 -72>
AnchorPoint: "Anchor-5" 0 0 basechar 0
AnchorPoint: "Anchor-4" 348 920 basechar 0
AnchorPoint: "Anchor-3" 639 11 basechar 0
AnchorPoint: "Anchor-2" 350 0 basechar 0
LayerCount: 2
Fore
SplineSet
472 954 m 2
 480 954 481 952 479 945 c 0
 470 913 428 862 348 862 c 0
 271 862 234 910 222 946 c 0
 221 949 220 954 226 954 c 2
 261 954 l 2
 267 954 269 952 273 947 c 0
 283 934 299 903 348 903 c 0
 394 903 417 929 428 948 c 0
 431 953 433 954 437 954 c 2
 472 954 l 2
60 0 m 2
 54 0 51 3 53 9 c 2
 318 731 l 2
 321 739 325 742 334 742 c 2
 367 742 l 2
 377 742 383 739 385 732 c 2
 647 10 l 2
 649 4 646 0 639 0 c 2
 615 0 l 2
 608 0 604 2 602 8 c 2
 521 231 l 2
 519 236 517 238 511 238 c 2
 189 238 l 2
 183 238 181 236 179 231 c 2
 96 7 l 2
 95 2 91 0 85 0 c 2
 60 0 l 2
203 278 m 2
 494 278 l 2
 502 278 503 282 501 288 c 2
 358 678 l 2
 353 691 348 691 343 677 c 2
 198 286 l 2
 195 279 197 278 203 278 c 2
376 -72 m 2
 376 -153 l 2
 376 -163 374 -165 364 -165 c 2
 335 -165 l 2
 326 -165 324 -163 324 -155 c 2
 324 -72 l 2
 324 -64 326 -62 333 -62 c 2
 367 -62 l 2
 374 -62 376 -64 376 -72 c 2
EndSplineSet
Validated: 1
EndChar

StartChar: uni1EB0
Encoding: 7856 7856 6
Width: 700
GlyphClass: 2
Flags: MW
HStem: 0 21G<57 60 60 85 611.5 615 615 639> 238 40<186 494 203 494 494 498 203 511> 687.63 54.37 862 41<323.5 371 323.5 388>
VStem: 52.4 595.17
AnchorPoint: "Anchor-5" 0 0 basechar 0
AnchorPoint: "Anchor-4" 348 920 basechar 0
AnchorPoint: "Anchor-3" 639 11 basechar 0
AnchorPoint: "Anchor-2" 350 0 basechar 0
LayerCount: 2
Fore
SplineSet
240 1138 m 2
 241 1141 245 1142 248 1141 c 2
 477 1050 l 2
 480 1049 482 1045 480 1040 c 2
 475 1025 l 2
 473 1019 470 1018 464 1020 c 2
 237 1094 l 2
 229 1097 228 1100 230 1106 c 2
 240 1138 l 2
472 954 m 2
 480 954 481 952 479 945 c 0
 470 913 428 862 348 862 c 0
 271 862 234 910 222 946 c 0
 221 949 220 954 226 954 c 2
 261 954 l 2
 267 954 269 952 273 947 c 0
 283 934 299 903 348 903 c 0
 394 903 417 929 428 948 c 0
 431 953 433 954 437 954 c 2
 472 954 l 2
60 0 m 2
 54 0 51 3 53 9 c 2
 318 731 l 2
 321 739 325 742 334 742 c 2
 367 742 l 2
 377 742 383 739 385 732 c 2
 647 10 l 2
 649 4 646 0 639 0 c 2
 615 0 l 2
 608 0 604 2 602 8 c 2
 521 231 l 2
 519 236 517 238 511 238 c 2
 189 238 l 2
 183 238 181 236 179 231 c 2
 96 7 l 2
 95 2 91 0 85 0 c 2
 60 0 l 2
203 278 m 2
 494 278 l 2
 502 278 503 282 501 288 c 2
 358 678 l 2
 353 691 348 691 343 677 c 2
 198 286 l 2
 195 279 197 278 203 278 c 2
EndSplineSet
Validated: 1
EndChar

StartChar: uni1EB2
Encoding: 7858 7858 7
Width: 700
GlyphClass: 2
Flags: HMW
HStem: 0 21G<57 60 60 85 611.5 615 615 639> 238 40<186 494 203 494 494 498 203 511> 687.63 54.37 862 41<323.5 371 323.5 388>
VStem: 52.4 595.17
AnchorPoint: "Anchor-5" 0 0 basechar 0
AnchorPoint: "Anchor-4" 348 920 basechar 0
AnchorPoint: "Anchor-3" 639 11 basechar 0
AnchorPoint: "Anchor-2" 350 0 basechar 0
LayerCount: 2
Fore
SplineSet
282 1123 m 0
 301 1135 328 1145 348 1145 c 0
 391 1145 419 1120 419 1080 c 0
 419 1049 394 1020 363 989 c 0
 361 987 359 988 357 990 c 2
 343 1007 l 2
 341 1009 342 1012 344 1014 c 0
 368 1038 387 1061 387 1078 c 0
 387 1103 370 1111 345 1111 c 0
 328 1111 312 1102 295 1091 c 0
 292 1089 291 1091 290 1093 c 2
 280 1116 l 2
 278 1120 279 1121 282 1123 c 0
472 954 m 2
 480 954 481 952 479 945 c 0
 470 913 428 862 348 862 c 0
 271 862 234 910 222 946 c 0
 221 949 220 954 226 954 c 2
 261 954 l 2
 267 954 269 952 273 947 c 0
 283 934 299 903 348 903 c 0
 394 903 417 929 428 948 c 0
 431 953 433 954 437 954 c 2
 472 954 l 2
60 0 m 2
 54 0 51 3 53 9 c 2
 318 731 l 2
 321 739 325 742 334 742 c 2
 367 742 l 2
 377 742 383 739 385 732 c 2
 647 10 l 2
 649 4 646 0 639 0 c 2
 615 0 l 2
 608 0 604 2 602 8 c 2
 521 231 l 2
 519 236 517 238 511 238 c 2
 189 238 l 2
 183 238 181 236 179 231 c 2
 96 7 l 2
 95 2 91 0 85 0 c 2
 60 0 l 2
203 278 m 2
 494 278 l 2
 502 278 503 282 501 288 c 2
 358 678 l 2
 353 691 348 691 343 677 c 2
 198 286 l 2
 195 279 197 278 203 278 c 2
EndSplineSet
Validated: 1
EndChar

StartChar: uni1EB4
Encoding: 7860 7860 8
Width: 700
GlyphClass: 2
Flags: MW
HStem: 0 21G<57 60 60 85 611.5 615 615 639> 238 40<186 494 203 494 494 498 203 511> 687.63 54.37 862 41<323.5 371 323.5 388> 1063 33<385 418 385 424> 1087 34<277 310 273 312.5>
VStem: 52.4 595.17
AnchorPoint: "Anchor-5" 0 0 basechar 0
AnchorPoint: "Anchor-4" 348 920 basechar 0
AnchorPoint: "Anchor-3" 639 11 basechar 0
AnchorPoint: "Anchor-2" 350 0 basechar 0
LayerCount: 2
Fore
SplineSet
473 1082 m 0xfa
 460 1074 442 1063 406 1063 c 0xfa
 354 1063 333 1087 292 1087 c 0
 262 1087 249 1074 236 1067 c 0
 230 1064 228 1064 225 1071 c 2
 218 1087 l 2
 216 1092 217 1093 220 1095 c 0
 240 1109 258 1121 288 1121 c 0xf6
 332 1121 363 1096 407 1096 c 0
 429 1096 440 1102 457 1112 c 0
 464 1116 467 1115 470 1109 c 2
 478 1091 l 2
 480 1087 479 1086 473 1082 c 0xfa
472 954 m 2
 480 954 481 952 479 945 c 0
 470 913 428 862 348 862 c 0
 271 862 234 910 222 946 c 0
 221 949 220 954 226 954 c 2
 261 954 l 2
 267 954 269 952 273 947 c 0
 283 934 299 903 348 903 c 0
 394 903 417 929 428 948 c 0
 431 953 433 954 437 954 c 2
 472 954 l 2
60 0 m 2
 54 0 51 3 53 9 c 2
 318 731 l 2
 321 739 325 742 334 742 c 2
 367 742 l 2
 377 742 383 739 385 732 c 2
 647 10 l 2
 649 4 646 0 639 0 c 2
 615 0 l 2
 608 0 604 2 602 8 c 2
 521 231 l 2
 519 236 517 238 511 238 c 2
 189 238 l 2
 183 238 181 236 179 231 c 2
 96 7 l 2
 95 2 91 0 85 0 c 2
 60 0 l 2
203 278 m 2
 494 278 l 2
 502 278 503 282 501 288 c 2
 358 678 l 2
 353 691 348 691 343 677 c 2
 198 286 l 2
 195 279 197 278 203 278 c 2
EndSplineSet
Validated: 1
EndChar

StartChar: Acircumflex
Encoding: 194 194 9
Width: 700
GlyphClass: 2
Flags: MW
HStem: 0 21G<57 60 60 85 611.5 615 615 639> 238 40<186 494 203 494 494 498 203 511> 687.63 54.37 916 38
VStem: 52.4 595.17
AnchorPoint: "Anchor-5" 0 0 basechar 0
AnchorPoint: "Anchor-4" 349 876 basechar 0
AnchorPoint: "Anchor-3" 639 11 basechar 0
AnchorPoint: "Anchor-2" 350 0 basechar 0
LayerCount: 2
Fore
SplineSet
418 862 m 2
 359 910 l 2
 349 918 351 918 340 910 c 2
 278 862 l 2
 271 857 270 856 263 856 c 2
 226 856 l 2
 219 856 218 861 224 866 c 2
 323 945 l 2
 329 950 334 954 343 954 c 2
 361 954 l 2
 369 954 373 949 377 946 c 2
 475 866 l 2
 482 860 482 856 474 856 c 2
 433 856 l 2
 427 856 423 858 418 862 c 2
60 0 m 2
 54 0 51 3 53 9 c 2
 318 731 l 2
 321 739 325 742 334 742 c 2
 367 742 l 2
 377 742 383 739 385 732 c 2
 647 10 l 2
 649 4 646 0 639 0 c 2
 615 0 l 2
 608 0 604 2 602 8 c 2
 521 231 l 2
 519 236 517 238 511 238 c 2
 189 238 l 2
 183 238 181 236 179 231 c 2
 96 7 l 2
 95 2 91 0 85 0 c 2
 60 0 l 2
203 278 m 2
 494 278 l 2
 502 278 503 282 501 288 c 2
 358 678 l 2
 353 691 348 691 343 677 c 2
 198 286 l 2
 195 279 197 278 203 278 c 2
EndSplineSet
Validated: 1
EndChar

StartChar: uni1EA4
Encoding: 7844 7844 10
Width: 700
GlyphClass: 2
Flags: MW
HStem: 0 21G<57 60 60 85 611.5 615 615 639> 238 40<186 494 203 494 494 498 203 511> 687.63 54.37 916 38
VStem: 52.4 595.17
AnchorPoint: "Anchor-5" 0 0 basechar 0
AnchorPoint: "Anchor-4" 349 876 basechar 0
AnchorPoint: "Anchor-3" 639 11 basechar 0
AnchorPoint: "Anchor-2" 350 0 basechar 0
LayerCount: 2
Fore
SplineSet
468 1098 m 2
 478 1066 l 2
 480 1060 479 1057 471 1054 c 2
 244 980 l 2
 238 978 235 979 233 985 c 2
 228 1000 l 2
 226 1005 228 1009 231 1010 c 2
 460 1101 l 2
 463 1102 467 1101 468 1098 c 2
418 862 m 2
 359 910 l 2
 349 918 351 918 340 910 c 2
 278 862 l 2
 271 857 270 856 263 856 c 2
 226 856 l 2
 219 856 218 861 224 866 c 2
 323 945 l 2
 329 950 334 954 343 954 c 2
 361 954 l 2
 369 954 373 949 377 946 c 2
 475 866 l 2
 482 860 482 856 474 856 c 2
 433 856 l 2
 427 856 423 858 418 862 c 2
60 0 m 2
 54 0 51 3 53 9 c 2
 318 731 l 2
 321 739 325 742 334 742 c 2
 367 742 l 2
 377 742 383 739 385 732 c 2
 647 10 l 2
 649 4 646 0 639 0 c 2
 615 0 l 2
 608 0 604 2 602 8 c 2
 521 231 l 2
 519 236 517 238 511 238 c 2
 189 238 l 2
 183 238 181 236 179 231 c 2
 96 7 l 2
 95 2 91 0 85 0 c 2
 60 0 l 2
203 278 m 2
 494 278 l 2
 502 278 503 282 501 288 c 2
 358 678 l 2
 353 691 348 691 343 677 c 2
 198 286 l 2
 195 279 197 278 203 278 c 2
EndSplineSet
Validated: 1
EndChar

StartChar: uni1EAC
Encoding: 7852 7852 11
Width: 700
GlyphClass: 2
Flags: MW
HStem: -165 103<333 335 335 364> 0 21G<57 60 60 85 611.5 615 615 639> 238 40<186 494 203 494 494 498 203 511> 687.63 54.37 916 38
VStem: 324 52<-155 -153 -153 -72>
AnchorPoint: "Anchor-5" 0 0 basechar 0
AnchorPoint: "Anchor-4" 349 876 basechar 0
AnchorPoint: "Anchor-3" 639 11 basechar 0
AnchorPoint: "Anchor-2" 350 0 basechar 0
LayerCount: 2
Fore
SplineSet
418 862 m 2
 359 910 l 2
 349 918 351 918 340 910 c 2
 278 862 l 2
 271 857 270 856 263 856 c 2
 226 856 l 2
 219 856 218 861 224 866 c 2
 323 945 l 2
 329 950 334 954 343 954 c 2
 361 954 l 2
 369 954 373 949 377 946 c 2
 475 866 l 2
 482 860 482 856 474 856 c 2
 433 856 l 2
 427 856 423 858 418 862 c 2
60 0 m 2
 54 0 51 3 53 9 c 2
 318 731 l 2
 321 739 325 742 334 742 c 2
 367 742 l 2
 377 742 383 739 385 732 c 2
 647 10 l 2
 649 4 646 0 639 0 c 2
 615 0 l 2
 608 0 604 2 602 8 c 2
 521 231 l 2
 519 236 517 238 511 238 c 2
 189 238 l 2
 183 238 181 236 179 231 c 2
 96 7 l 2
 95 2 91 0 85 0 c 2
 60 0 l 2
203 278 m 2
 494 278 l 2
 502 278 503 282 501 288 c 2
 358 678 l 2
 353 691 348 691 343 677 c 2
 198 286 l 2
 195 279 197 278 203 278 c 2
376 -72 m 2
 376 -153 l 2
 376 -163 374 -165 364 -165 c 2
 335 -165 l 2
 326 -165 324 -163 324 -155 c 2
 324 -72 l 2
 324 -64 326 -62 333 -62 c 2
 367 -62 l 2
 374 -62 376 -64 376 -72 c 2
EndSplineSet
Validated: 1
EndChar

StartChar: uni1EA6
Encoding: 7846 7846 12
Width: 700
GlyphClass: 2
Flags: MW
HStem: 0 21G<57 60 60 85 611.5 615 615 639> 238 40<186 494 203 494 494 498 203 511> 687.63 54.37 916 38
VStem: 52.4 595.17
AnchorPoint: "Anchor-5" 0 0 basechar 0
AnchorPoint: "Anchor-4" 349 876 basechar 0
AnchorPoint: "Anchor-3" 639 11 basechar 0
AnchorPoint: "Anchor-2" 350 0 basechar 0
LayerCount: 2
Fore
SplineSet
241 1094 m 2
 242 1097 246 1098 249 1097 c 2
 478 1006 l 2
 481 1005 483 1001 481 996 c 2
 476 981 l 2
 474 975 471 974 465 976 c 2
 238 1050 l 2
 230 1053 229 1056 231 1062 c 2
 241 1094 l 2
418 862 m 2
 359 910 l 2
 349 918 351 918 340 910 c 2
 278 862 l 2
 271 857 270 856 263 856 c 2
 226 856 l 2
 219 856 218 861 224 866 c 2
 323 945 l 2
 329 950 334 954 343 954 c 2
 361 954 l 2
 369 954 373 949 377 946 c 2
 475 866 l 2
 482 860 482 856 474 856 c 2
 433 856 l 2
 427 856 423 858 418 862 c 2
60 0 m 2
 54 0 51 3 53 9 c 2
 318 731 l 2
 321 739 325 742 334 742 c 2
 367 742 l 2
 377 742 383 739 385 732 c 2
 647 10 l 2
 649 4 646 0 639 0 c 2
 615 0 l 2
 608 0 604 2 602 8 c 2
 521 231 l 2
 519 236 517 238 511 238 c 2
 189 238 l 2
 183 238 181 236 179 231 c 2
 96 7 l 2
 95 2 91 0 85 0 c 2
 60 0 l 2
203 278 m 2
 494 278 l 2
 502 278 503 282 501 288 c 2
 358 678 l 2
 353 691 348 691 343 677 c 2
 198 286 l 2
 195 279 197 278 203 278 c 2
EndSplineSet
Validated: 1
EndChar

StartChar: uni1EA8
Encoding: 7848 7848 13
Width: 700
GlyphClass: 2
Flags: HMW
HStem: 0 21G<57 60 60 85 611.5 615 615 639> 238 40<186 494 203 494 494 498 203 511> 687.63 54.37 916 38
VStem: 52.4 595.17
AnchorPoint: "Anchor-5" 0 0 basechar 0
AnchorPoint: "Anchor-4" 349 876 basechar 0
AnchorPoint: "Anchor-3" 639 11 basechar 0
AnchorPoint: "Anchor-2" 350 0 basechar 0
LayerCount: 2
Fore
SplineSet
401 1076 m 0
 420 1088 447 1098 467 1098 c 0
 510 1098 538 1073 538 1033 c 0
 538 1002 513 973 482 942 c 0
 480 940 478 941 476 943 c 2
 462 960 l 2
 460 962 461 965 463 967 c 0
 487 991 506 1014 506 1031 c 0
 506 1056 489 1064 464 1064 c 0
 447 1064 431 1055 414 1044 c 0
 411 1042 410 1044 409 1046 c 2
 399 1069 l 2
 397 1073 398 1074 401 1076 c 0
418 862 m 2
 359 910 l 2
 349 918 351 918 340 910 c 2
 278 862 l 2
 271 857 270 856 263 856 c 2
 226 856 l 2
 219 856 218 861 224 866 c 2
 323 945 l 2
 329 950 334 954 343 954 c 2
 361 954 l 2
 369 954 373 949 377 946 c 2
 475 866 l 2
 482 860 482 856 474 856 c 2
 433 856 l 2
 427 856 423 858 418 862 c 2
60 0 m 2
 54 0 51 3 53 9 c 2
 318 731 l 2
 321 739 325 742 334 742 c 2
 367 742 l 2
 377 742 383 739 385 732 c 2
 647 10 l 2
 649 4 646 0 639 0 c 2
 615 0 l 2
 608 0 604 2 602 8 c 2
 521 231 l 2
 519 236 517 238 511 238 c 2
 189 238 l 2
 183 238 181 236 179 231 c 2
 96 7 l 2
 95 2 91 0 85 0 c 2
 60 0 l 2
203 278 m 2
 494 278 l 2
 502 278 503 282 501 288 c 2
 358 678 l 2
 353 691 348 691 343 677 c 2
 198 286 l 2
 195 279 197 278 203 278 c 2
EndSplineSet
Validated: 1
EndChar

StartChar: uni1EAA
Encoding: 7850 7850 14
Width: 700
GlyphClass: 2
Flags: MW
HStem: 0 21G<57 60 60 85 611.5 615 615 639> 238 40<186 494 203 494 494 498 203 511> 687.63 54.37 916 38 1019 33<386 419 386 425> 1043 34<278 311 274 313.5>
VStem: 52.4 595.17
AnchorPoint: "Anchor-5" 0 0 basechar 0
AnchorPoint: "Anchor-4" 349 876 basechar 0
AnchorPoint: "Anchor-3" 639 11 basechar 0
AnchorPoint: "Anchor-2" 350 0 basechar 0
LayerCount: 2
Fore
SplineSet
474 1038 m 0xfa
 461 1030 443 1019 407 1019 c 0xfa
 355 1019 334 1043 293 1043 c 0
 263 1043 250 1030 237 1023 c 0
 231 1020 229 1020 226 1027 c 2
 219 1043 l 2
 217 1048 218 1049 221 1051 c 0
 241 1065 259 1077 289 1077 c 0xf6
 333 1077 364 1052 408 1052 c 0
 430 1052 441 1058 458 1068 c 0
 465 1072 468 1071 471 1065 c 2
 479 1047 l 2
 481 1043 480 1042 474 1038 c 0xfa
418 862 m 2
 359 910 l 2
 349 918 351 918 340 910 c 2
 278 862 l 2
 271 857 270 856 263 856 c 2
 226 856 l 2
 219 856 218 861 224 866 c 2
 323 945 l 2
 329 950 334 954 343 954 c 2
 361 954 l 2
 369 954 373 949 377 946 c 2
 475 866 l 2
 482 860 482 856 474 856 c 2
 433 856 l 2
 427 856 423 858 418 862 c 2
60 0 m 2
 54 0 51 3 53 9 c 2
 318 731 l 2
 321 739 325 742 334 742 c 2
 367 742 l 2
 377 742 383 739 385 732 c 2
 647 10 l 2
 649 4 646 0 639 0 c 2
 615 0 l 2
 608 0 604 2 602 8 c 2
 521 231 l 2
 519 236 517 238 511 238 c 2
 189 238 l 2
 183 238 181 236 179 231 c 2
 96 7 l 2
 95 2 91 0 85 0 c 2
 60 0 l 2
203 278 m 2
 494 278 l 2
 502 278 503 282 501 288 c 2
 358 678 l 2
 353 691 348 691 343 677 c 2
 198 286 l 2
 195 279 197 278 203 278 c 2
EndSplineSet
Validated: 1
EndChar

StartChar: uni0200
Encoding: 512 512 15
Width: 700
GlyphClass: 2
Flags: MW
HStem: 0 21G<57 60 60 85 611.5 615 615 639> 238 40<186 494 203 494 494 498 203 511> 687.63 54.37
VStem: 52.4 595.17
AnchorPoint: "Anchor-5" 0 0 basechar 0
AnchorPoint: "Anchor-4" 350 742 basechar 0
AnchorPoint: "Anchor-3" 639 11 basechar 0
AnchorPoint: "Anchor-2" 350 0 basechar 0
LayerCount: 2
Fore
SplineSet
180 959 m 2
 182 961 186 962 189 959 c 2
 306 826 l 2
 308 824 310 820 306 816 c 2
 297 803 l 2
 294 798 290 798 285 802 c 2
 161 919 l 2
 154 925 154 927 158 932 c 2
 180 959 l 2
320 959 m 2
 322 961 326 962 329 959 c 2
 446 826 l 2
 448 824 450 820 446 816 c 2
 437 803 l 2
 434 798 430 798 425 802 c 2
 301 919 l 2
 294 925 294 927 298 932 c 2
 320 959 l 2
60 0 m 2
 54 0 51 3 53 9 c 2
 318 731 l 2
 321 739 325 742 334 742 c 2
 367 742 l 2
 377 742 383 739 385 732 c 2
 647 10 l 2
 649 4 646 0 639 0 c 2
 615 0 l 2
 608 0 604 2 602 8 c 2
 521 231 l 2
 519 236 517 238 511 238 c 2
 189 238 l 2
 183 238 181 236 179 231 c 2
 96 7 l 2
 95 2 91 0 85 0 c 2
 60 0 l 2
203 278 m 2
 494 278 l 2
 502 278 503 282 501 288 c 2
 358 678 l 2
 353 691 348 691 343 677 c 2
 198 286 l 2
 195 279 197 278 203 278 c 2
EndSplineSet
Validated: 1
EndChar

StartChar: Adieresis
Encoding: 196 196 16
Width: 700
GlyphClass: 2
Flags: MW
HStem: 0 21G<57 60 60 85 611.5 615 615 639> 238 40<186 494 203 494 494 498 203 511> 687.63 54.37 856 98<278 280 280 307 389 391 391 418>
VStem: 269 50<866 868 868 944> 380 50<866 868 868 944>
AnchorPoint: "Anchor-5" 0 0 basechar 0
AnchorPoint: "Anchor-4" 350 742 basechar 0
AnchorPoint: "Anchor-3" 639 11 basechar 0
AnchorPoint: "Anchor-2" 350 0 basechar 0
LayerCount: 2
Fore
SplineSet
319 944 m 2
 319 868 l 2
 319 858 317 856 307 856 c 2
 280 856 l 2
 271 856 269 858 269 866 c 2
 269 944 l 2
 269 952 271 954 278 954 c 2
 310 954 l 2
 317 954 319 952 319 944 c 2
430 944 m 2
 430 868 l 2
 430 858 428 856 418 856 c 2
 391 856 l 2
 382 856 380 858 380 866 c 2
 380 944 l 2
 380 952 382 954 389 954 c 2
 421 954 l 2
 428 954 430 952 430 944 c 2
60 0 m 2
 54 0 51 3 53 9 c 2
 318 731 l 2
 321 739 325 742 334 742 c 2
 367 742 l 2
 377 742 383 739 385 732 c 2
 647 10 l 2
 649 4 646 0 639 0 c 2
 615 0 l 2
 608 0 604 2 602 8 c 2
 521 231 l 2
 519 236 517 238 511 238 c 2
 189 238 l 2
 183 238 181 236 179 231 c 2
 96 7 l 2
 95 2 91 0 85 0 c 2
 60 0 l 2
203 278 m 2
 494 278 l 2
 502 278 503 282 501 288 c 2
 358 678 l 2
 353 691 348 691 343 677 c 2
 198 286 l 2
 195 279 197 278 203 278 c 2
EndSplineSet
Validated: 1
EndChar

StartChar: uni1EA0
Encoding: 7840 7840 17
Width: 700
GlyphClass: 2
Flags: MW
HStem: -165 103<333 335 335 364> 0 21G<57 60 60 85 611.5 615 615 639> 238 40<186 494 203 494 494 498 203 511> 687.63 54.37
VStem: 324 52<-155 -153 -153 -72>
AnchorPoint: "Anchor-5" 0 0 basechar 0
AnchorPoint: "Anchor-4" 350 742 basechar 0
AnchorPoint: "Anchor-3" 639 11 basechar 0
AnchorPoint: "Anchor-2" 350 0 basechar 0
LayerCount: 2
Fore
SplineSet
60 0 m 2
 54 0 51 3 53 9 c 2
 318 731 l 2
 321 739 325 742 334 742 c 2
 367 742 l 2
 377 742 383 739 385 732 c 2
 647 10 l 2
 649 4 646 0 639 0 c 2
 615 0 l 2
 608 0 604 2 602 8 c 2
 521 231 l 2
 519 236 517 238 511 238 c 2
 189 238 l 2
 183 238 181 236 179 231 c 2
 96 7 l 2
 95 2 91 0 85 0 c 2
 60 0 l 2
203 278 m 2
 494 278 l 2
 502 278 503 282 501 288 c 2
 358 678 l 2
 353 691 348 691 343 677 c 2
 198 286 l 2
 195 279 197 278 203 278 c 2
376 -72 m 2
 376 -153 l 2
 376 -163 374 -165 364 -165 c 2
 335 -165 l 2
 326 -165 324 -163 324 -155 c 2
 324 -72 l 2
 324 -64 326 -62 333 -62 c 2
 367 -62 l 2
 374 -62 376 -64 376 -72 c 2
EndSplineSet
Validated: 1
EndChar

StartChar: Agrave
Encoding: 192 192 18
Width: 700
GlyphClass: 2
Flags: MW
HStem: 0 21G<57 60 60 85 611.5 615 615 639> 238 40<186 494 203 494 494 498 203 511> 687.63 54.37
VStem: 52.4 595.17
AnchorPoint: "Anchor-5" 0 0 basechar 0
AnchorPoint: "Anchor-4" 350 742 basechar 0
AnchorPoint: "Anchor-3" 639 11 basechar 0
AnchorPoint: "Anchor-2" 350 0 basechar 0
LayerCount: 2
Fore
SplineSet
242 960 m 2
 243 963 247 964 250 963 c 2
 479 872 l 2
 482 871 484 867 482 862 c 2
 477 847 l 2
 475 841 472 840 466 842 c 2
 239 916 l 2
 231 919 230 922 232 928 c 2
 242 960 l 2
60 0 m 2
 54 0 51 3 53 9 c 2
 318 731 l 2
 321 739 325 742 334 742 c 2
 367 742 l 2
 377 742 383 739 385 732 c 2
 647 10 l 2
 649 4 646 0 639 0 c 2
 615 0 l 2
 608 0 604 2 602 8 c 2
 521 231 l 2
 519 236 517 238 511 238 c 2
 189 238 l 2
 183 238 181 236 179 231 c 2
 96 7 l 2
 95 2 91 0 85 0 c 2
 60 0 l 2
203 278 m 2
 494 278 l 2
 502 278 503 282 501 288 c 2
 358 678 l 2
 353 691 348 691 343 677 c 2
 198 286 l 2
 195 279 197 278 203 278 c 2
EndSplineSet
Validated: 1
EndChar

StartChar: uni1EA2
Encoding: 7842 7842 19
Width: 700
GlyphClass: 2
Flags: HMW
HStem: 0 21G<57 60 60 85 611.5 615 615 639> 238 40<186 494 203 494 494 498 203 511> 687.63 54.37
VStem: 52.4 595.17
AnchorPoint: "Anchor-5" 0 0 basechar 0
AnchorPoint: "Anchor-4" 350 742 basechar 0
AnchorPoint: "Anchor-3" 639 11 basechar 0
AnchorPoint: "Anchor-2" 350 0 basechar 0
LayerCount: 2
Fore
SplineSet
271 945 m 0
 290 957 317 967 337 967 c 0
 380 967 408 942 408 902 c 0
 408 871 383 842 352 811 c 0
 350 809 348 810 346 812 c 2
 332 829 l 2
 330 831 331 834 333 836 c 0
 357 860 376 883 376 900 c 0
 376 925 359 933 334 933 c 0
 317 933 301 924 284 913 c 0
 281 911 280 913 279 915 c 2
 269 938 l 2
 267 942 268 943 271 945 c 0
60 0 m 2
 54 0 51 3 53 9 c 2
 318 731 l 2
 321 739 325 742 334 742 c 2
 367 742 l 2
 377 742 383 739 385 732 c 2
 647 10 l 2
 649 4 646 0 639 0 c 2
 615 0 l 2
 608 0 604 2 602 8 c 2
 521 231 l 2
 519 236 517 238 511 238 c 2
 189 238 l 2
 183 238 181 236 179 231 c 2
 96 7 l 2
 95 2 91 0 85 0 c 2
 60 0 l 2
203 278 m 2
 494 278 l 2
 502 278 503 282 501 288 c 2
 358 678 l 2
 353 691 348 691 343 677 c 2
 198 286 l 2
 195 279 197 278 203 278 c 2
EndSplineSet
Validated: 1
EndChar

StartChar: uni0202
Encoding: 514 514 20
Width: 700
GlyphClass: 2
Flags: MW
HStem: 0 21G<57 60 60 85 611.5 615 615 639> 238 40<186 494 203 494 494 498 203 511> 687.63 54.37 921 41<322.5 370>
VStem: 52.4 595.17
AnchorPoint: "Anchor-5" 0 0 basechar 0
AnchorPoint: "Anchor-4" 347 904 basechar 0
AnchorPoint: "Anchor-3" 639 11 basechar 0
AnchorPoint: "Anchor-2" 350 0 basechar 0
LayerCount: 2
Fore
SplineSet
471 870 m 2
 436 870 l 2
 432 870 430 871 427 876 c 0
 416 895 393 921 347 921 c 0
 298 921 282 890 272 877 c 0
 268 872 266 870 260 870 c 2
 225 870 l 2
 219 870 220 875 221 878 c 0
 233 914 270 962 347 962 c 0
 427 962 469 911 478 879 c 0
 480 872 479 870 471 870 c 2
60 0 m 2
 54 0 51 3 53 9 c 2
 318 731 l 2
 321 739 325 742 334 742 c 2
 367 742 l 2
 377 742 383 739 385 732 c 2
 647 10 l 2
 649 4 646 0 639 0 c 2
 615 0 l 2
 608 0 604 2 602 8 c 2
 521 231 l 2
 519 236 517 238 511 238 c 2
 189 238 l 2
 183 238 181 236 179 231 c 2
 96 7 l 2
 95 2 91 0 85 0 c 2
 60 0 l 2
203 278 m 2
 494 278 l 2
 502 278 503 282 501 288 c 2
 358 678 l 2
 353 691 348 691 343 677 c 2
 198 286 l 2
 195 279 197 278 203 278 c 2
EndSplineSet
Validated: 1
EndChar

StartChar: Amacron
Encoding: 256 256 21
Width: 700
GlyphClass: 2
Flags: MW
HStem: 0 21G<57 60 60 85 611.5 615 615 639> 238 40<186 494 203 494 494 498 203 511> 687.63 54.37 896 38<229 231 231 466>
VStem: 52.4 595.17
AnchorPoint: "Anchor-5" 0 0 basechar 0
AnchorPoint: "Anchor-4" 350 742 basechar 0
AnchorPoint: "Anchor-3" 639 11 basechar 0
AnchorPoint: "Anchor-2" 350 0 basechar 0
LayerCount: 2
Fore
SplineSet
476 928 m 2
 476 904 l 2
 476 899 474 896 466 896 c 2
 231 896 l 2
 225 896 224 899 224 904 c 2
 224 927 l 2
 224 931 226 934 229 934 c 2
 471 934 l 2
 474 934 476 931 476 928 c 2
60 0 m 2
 54 0 51 3 53 9 c 2
 318 731 l 2
 321 739 325 742 334 742 c 2
 367 742 l 2
 377 742 383 739 385 732 c 2
 647 10 l 2
 649 4 646 0 639 0 c 2
 615 0 l 2
 608 0 604 2 602 8 c 2
 521 231 l 2
 519 236 517 238 511 238 c 2
 189 238 l 2
 183 238 181 236 179 231 c 2
 96 7 l 2
 95 2 91 0 85 0 c 2
 60 0 l 2
203 278 m 2
 494 278 l 2
 502 278 503 282 501 288 c 2
 358 678 l 2
 353 691 348 691 343 677 c 2
 198 286 l 2
 195 279 197 278 203 278 c 2
EndSplineSet
Validated: 1
EndChar

StartChar: Aogonek
Encoding: 260 260 22
Width: 700
GlyphClass: 2
Flags: MW
HStem: -169 34<580.5 607> 0 21G<57 60 60 85> 238 40<186 494 203 494 494 498 203 511> 687.63 54.37
VStem: 499 44<-107 -73.5 -107 -69.5>
AnchorPoint: "Anchor-5" 0 0 basechar 0
AnchorPoint: "Anchor-4" 350 742 basechar 0
AnchorPoint: "Anchor-3" 639 11 basechar 0
AnchorPoint: "Anchor-2" 350 0 basechar 0
LayerCount: 2
Fore
SplineSet
666 -123 m 0
 672 -120 674 -121 674 -126 c 2
 674 -146 l 2
 674 -151 673 -152 669 -154 c 0
 654 -161 623 -169 591 -169 c 0
 527 -169 499 -136 499 -91 c 0
 499 -48 524 -16 602 8 c 1
 521 231 l 2
 519 236 517 238 511 238 c 2
 189 238 l 2
 183 238 181 236 179 231 c 2
 96 7 l 2
 95 2 91 0 85 0 c 2
 60 0 l 2
 54 0 51 3 53 9 c 2
 318 731 l 2
 321 739 325 742 334 742 c 2
 367 742 l 2
 377 742 383 739 385 732 c 2
 647 10 l 2
 649 5 647 2 643 1 c 0
 577 -30 543 -54 543 -93 c 0
 543 -121 560 -135 601 -135 c 0
 632 -135 658 -127 666 -123 c 0
494 278 m 2
 502 278 503 282 501 288 c 2
 358 678 l 2
 353 691 348 691 343 677 c 2
 198 286 l 2
 195 279 197 278 203 278 c 2
 494 278 l 2
EndSplineSet
Validated: 1
EndChar

StartChar: Aring
Encoding: 197 197 23
Width: 700
GlyphClass: 2
Flags: MW
HStem: 0 21G<57 60 60 85 611.5 615 615 639> 238 40<186 494 203 494 494 498 203 511> 687.63 54.37 766 40<333.5 365.5 333.5 378> 924 40<333.5 365.5>
VStem: 250 40<849.5 882.5 849.5 894.5> 407 43<849.5 882.5>
AnchorPoint: "Anchor-5" 0 0 basechar 0
AnchorPoint: "Anchor-4" 350 742 basechar 0
AnchorPoint: "Anchor-3" 639 11 basechar 0
AnchorPoint: "Anchor-2" 350 0 basechar 0
LayerCount: 2
Fore
SplineSet
450 866 m 0
 450 809 406 766 350 766 c 0
 294 766 250 810 250 868 c 0
 250 921 295 964 350 964 c 0
 406 964 450 921 450 866 c 0
407 865 m 0
 407 900 382 924 349 924 c 0
 318 924 290 900 290 865 c 0
 290 834 318 806 349 806 c 0
 382 806 407 834 407 865 c 0
60 0 m 2
 54 0 51 3 53 9 c 2
 318 731 l 2
 321 739 325 742 334 742 c 2
 367 742 l 2
 377 742 383 739 385 732 c 2xee
 647 10 l 2
 649 4 646 0 639 0 c 2
 615 0 l 2
 608 0 604 2 602 8 c 2
 521 231 l 2
 519 236 517 238 511 238 c 2
 189 238 l 2
 183 238 181 236 179 231 c 2
 96 7 l 2
 95 2 91 0 85 0 c 2
 60 0 l 2
203 278 m 2
 494 278 l 2
 502 278 503 282 501 288 c 2
 358 678 l 2
 353 691 348 691 343 677 c 2xee
 198 286 l 2
 195 279 197 278 203 278 c 2
EndSplineSet
Validated: 1
EndChar

StartChar: Aringacute
Encoding: 506 506 24
Width: 637
Flags: MW
HStem: 0 21G<44 47 47 69 557.5 561 561 588> 238 40<164 448 179 448 448 452 179 463> 687.63 54.37 709 33<280 333.5> 860 104<301.5 362>
VStem: 218 40<785.5 818.5 785.5 829> 375 43<785.5 818.5>
LayerCount: 2
Fore
SplineSet
596 10 m 2xee
 598 4 595 0 588 0 c 2
 561 0 l 2
 554 0 551 2 549 8 c 2
 473 231 l 2
 471 236 469 238 463 238 c 2
 167 238 l 2
 161 238 159 236 157 231 c 2
 80 7 l 2
 78 2 75 0 69 0 c 2
 47 0 l 2
 41 0 38 4 40 9 c 2
 280 709 l 1
 243 724 218 760 218 804 c 0xde
 218 854 258 895 309 900 c 1
 321 951 l 2
 323 960 328 964 339 964 c 2
 362 964 l 2
 373 964 376 958 372 948 c 2
 350 895 l 1
 390 883 418 846 418 802 c 0
 418 760 395 726 360 711 c 1
 596 10 l 2xee
258 801 m 0
 258 770 286 742 317 742 c 0
 350 742 375 770 375 801 c 0
 375 836 350 860 317 860 c 0
 286 860 258 836 258 801 c 0
448 278 m 2
 456 278 457 282 455 288 c 2
 323 678 l 2
 319 691 313 691 308 677 c 2
 175 286 l 2
 172 279 173 278 179 278 c 2
 448 278 l 2
EndSplineSet
Validated: 1
EndChar

StartChar: Atilde
Encoding: 195 195 25
Width: 700
GlyphClass: 2
Flags: MW
HStem: 0 21G<57 60 60 85 611.5 615 615 639> 238 40<186 494 203 494 494 498 203 511> 687.63 54.37 885 33<387 420 387 426> 909 34<279 312 275 314.5>
VStem: 52.4 595.17
AnchorPoint: "Anchor-5" 0 0 basechar 0
AnchorPoint: "Anchor-4" 350 742 basechar 0
AnchorPoint: "Anchor-3" 639 11 basechar 0
AnchorPoint: "Anchor-2" 350 0 basechar 0
LayerCount: 2
Fore
SplineSet
475 904 m 0xf4
 462 896 444 885 408 885 c 0xf4
 356 885 335 909 294 909 c 0
 264 909 251 896 238 889 c 0
 232 886 230 886 227 893 c 2
 220 909 l 2
 218 914 219 915 222 917 c 0
 242 931 260 943 290 943 c 0xec
 334 943 365 918 409 918 c 0
 431 918 442 924 459 934 c 0
 466 938 469 937 472 931 c 2
 480 913 l 2
 482 909 481 908 475 904 c 0xf4
60 0 m 2
 54 0 51 3 53 9 c 2
 318 731 l 2
 321 739 325 742 334 742 c 2
 367 742 l 2
 377 742 383 739 385 732 c 2
 647 10 l 2
 649 4 646 0 639 0 c 2
 615 0 l 2
 608 0 604 2 602 8 c 2
 521 231 l 2
 519 236 517 238 511 238 c 2
 189 238 l 2
 183 238 181 236 179 231 c 2
 96 7 l 2
 95 2 91 0 85 0 c 2
 60 0 l 2
203 278 m 2
 494 278 l 2
 502 278 503 282 501 288 c 2
 358 678 l 2
 353 691 348 691 343 677 c 2
 198 286 l 2
 195 279 197 278 203 278 c 2
EndSplineSet
Validated: 1
EndChar

StartChar: AE
Encoding: 198 198 26
Width: 963
GlyphClass: 2
Flags: MW
HStem: 0 40<550 903 903 904> 238 40<233 487 255 487 487 490> 355 40<546.5 819 550 818> 687.63 54.37 702 40<546.5 550 550 888>
VStem: 495 46<45 49 49 233 233 234.5 287 346 399 402 402 678 678 678>
AnchorPoint: "Anchor-5" 0 0 basechar 0
AnchorPoint: "Anchor-4" 681 742 basechar 0
AnchorPoint: "Anchor-3" 0 0 basechar 0
AnchorPoint: "Anchor-2" 0 0 basechar 0
LayerCount: 2
Fore
SplineSet
903 40 m 2xec
 909 40 911 39 911 33 c 2
 911 7 l 2
 911 2 909 0 904 0 c 2
 504 0 l 2
 497 0 495 2 495 10 c 2
 495 233 l 2
 495 236 493 238 490 238 c 2
 236 238 l 2
 230 238 227 236 224 231 c 2
 95 7 l 2
 92 2 89 0 83 0 c 2
 58 0 l 2
 52 0 50 4 53 9 c 2
 466 731 l 2
 470 739 475 742 484 742 c 2
 889 742 l 2
 894 742 896 740 896 735 c 2
 896 709 l 2
 896 703 894 702 888 702 c 2
 550 702 l 2
 543 702 541 701 541 693 c 2
 541 402 l 2
 541 396 543 395 550 395 c 2
 819 395 l 2
 824 395 826 393 826 388 c 2
 826 362 l 2
 826 356 824 355 818 355 c 2
 550 355 l 2
 543 355 541 354 541 346 c 2
 541 49 l 2
 541 41 543 40 550 40 c 2
 903 40 l 2xec
487 278 m 2
 493 278 495 282 495 287 c 2
 495 678 l 2
 494 691 488 691 480 677 c 2xf4
 252 286 l 2
 248 279 249 278 255 278 c 2
 487 278 l 2
EndSplineSet
Validated: 1
EndChar

StartChar: AEacute
Encoding: 508 508 27
Width: 963
GlyphClass: 2
Flags: MW
HStem: 0 40<550 903 903 904> 238 40<233 487 255 487 487 490> 355 40<546.5 819 550 818> 687.63 54.37 702 40<546.5 550 550 888>
VStem: 495 46<45 49 49 233 233 234.5 287 346 399 402 402 678 678 678>
AnchorPoint: "Anchor-5" 0 0 basechar 0
AnchorPoint: "Anchor-4" 681 742 basechar 0
AnchorPoint: "Anchor-3" 0 0 basechar 0
AnchorPoint: "Anchor-2" 0 0 basechar 0
LayerCount: 2
Fore
SplineSet
800 964 m 2xec
 810 932 l 2
 812 926 811 923 803 920 c 2
 576 846 l 2
 570 844 567 845 565 851 c 2
 560 866 l 2
 558 871 560 875 563 876 c 2
 792 967 l 2
 795 968 799 967 800 964 c 2xec
903 40 m 2
 909 40 911 39 911 33 c 2
 911 7 l 2
 911 2 909 0 904 0 c 2
 504 0 l 2
 497 0 495 2 495 10 c 2
 495 233 l 2
 495 236 493 238 490 238 c 2
 236 238 l 2
 230 238 227 236 224 231 c 2
 95 7 l 2
 92 2 89 0 83 0 c 2
 58 0 l 2
 52 0 50 4 53 9 c 2
 466 731 l 2
 470 739 475 742 484 742 c 2
 889 742 l 2
 894 742 896 740 896 735 c 2
 896 709 l 2
 896 703 894 702 888 702 c 2
 550 702 l 2
 543 702 541 701 541 693 c 2
 541 402 l 2
 541 396 543 395 550 395 c 2
 819 395 l 2
 824 395 826 393 826 388 c 2
 826 362 l 2
 826 356 824 355 818 355 c 2
 550 355 l 2
 543 355 541 354 541 346 c 2
 541 49 l 2
 541 41 543 40 550 40 c 2
 903 40 l 2
487 278 m 2
 493 278 495 282 495 287 c 2
 495 678 l 2
 494 691 488 691 480 677 c 2xf4
 252 286 l 2
 248 279 249 278 255 278 c 2
 487 278 l 2
EndSplineSet
Validated: 1
EndChar

StartChar: B
Encoding: 66 66 28
Width: 684
Flags: MW
HStem: 0 40<167 326 326 331> 355 40<167 171 171 340> 702 40<166 169 169 324>
VStem: 114 46<46.5 50 50 346 401.5 405 405 694> 543 48<509 600> 561 48<136.5 247 131 251>
LayerCount: 2
Fore
SplineSet
122 0 m 2xf4
 117 0 114 3 114 8 c 2
 114 732 l 2
 114 740 116 742 123 742 c 2
 328 742 l 2
 494 742 591 675 591 551 c 0xf8
 591 467 548 409 460 382 c 0
 454 380 454 374 460 373 c 0
 550 356 609 297 609 197 c 0
 609 65 506 0 331 0 c 2
 122 0 l 2xf4
167 395 m 2
 340 395 l 2
 433 395 543 424 543 546 c 0xf8
 543 654 459 702 324 702 c 2
 169 702 l 2
 163 702 160 700 160 694 c 2
 160 405 l 2
 160 398 162 395 167 395 c 2
167 40 m 2
 326 40 l 2
 484 40 561 82 561 191 c 0xf4
 561 311 465 355 340 355 c 2
 171 355 l 2
 163 355 160 353 160 346 c 2
 160 50 l 2
 160 43 162 40 167 40 c 2
EndSplineSet
Validated: 1
EndChar

StartChar: C
Encoding: 67 67 29
Width: 695
GlyphClass: 2
Flags: MW
HStem: -10 42<298.5 437 298.5 441.5> 710 42<295.5 427.5>
VStem: 78 48<260.5 479.5 260.5 489>
AnchorPoint: "Anchor-5" 0 0 basechar 0
AnchorPoint: "Anchor-4" 375 742 basechar 0
AnchorPoint: "Anchor-3" 0 0 basechar 0
AnchorPoint: "Anchor-2" 381 0 basechar 0
LayerCount: 2
Fore
SplineSet
375 752 m 0
 497 752 617 659 629 556 c 0
 630 551 629 549 624 549 c 2
 588 545 l 2
 584 544 582 546 581 552 c 0
 558 647 478 710 377 710 c 0
 214 710 126 591 126 368 c 0
 126 153 212 32 385 32 c 0
 489 32 555 81 595 186 c 0
 596 188 598 189 601 188 c 2
 635 178 l 2
 637 177 638 175 637 171 c 0
 602 61 502 -10 381 -10 c 0
 188 -10 78 127 78 368 c 0
 78 610 188 752 375 752 c 0
EndSplineSet
Validated: 1
EndChar

StartChar: Cacute
Encoding: 262 262 30
Width: 695
GlyphClass: 2
Flags: MW
HStem: -10 42<298.5 437 298.5 441.5> 710 42<295.5 427.5>
VStem: 78 48<260.5 479.5 260.5 489>
AnchorPoint: "Anchor-5" 0 0 basechar 0
AnchorPoint: "Anchor-4" 375 742 basechar 0
AnchorPoint: "Anchor-3" 0 0 basechar 0
AnchorPoint: "Anchor-2" 381 0 basechar 0
LayerCount: 2
Fore
SplineSet
494 964 m 2
 504 932 l 2
 506 926 505 923 497 920 c 2
 270 846 l 2
 264 844 261 845 259 851 c 2
 254 866 l 2
 252 871 254 875 257 876 c 2
 486 967 l 2
 489 968 493 967 494 964 c 2
375 752 m 0
 497 752 617 659 629 556 c 0
 630 551 629 549 624 549 c 2
 588 545 l 2
 584 544 582 546 581 552 c 0
 558 647 478 710 377 710 c 0
 214 710 126 591 126 368 c 0
 126 153 212 32 385 32 c 0
 489 32 555 81 595 186 c 0
 596 188 598 189 601 188 c 2
 635 178 l 2
 637 177 638 175 637 171 c 0
 602 61 502 -10 381 -10 c 0
 188 -10 78 127 78 368 c 0
 78 610 188 752 375 752 c 0
EndSplineSet
Validated: 1
EndChar

StartChar: Ccaron
Encoding: 268 268 31
Width: 695
GlyphClass: 2
Flags: MW
HStem: -10 42<298.5 437 298.5 441.5> 710 42<295.5 427.5> 856 38
VStem: 78 48<260.5 479.5 260.5 489>
AnchorPoint: "Anchor-5" 0 0 basechar 0
AnchorPoint: "Anchor-4" 375 742 basechar 0
AnchorPoint: "Anchor-3" 0 0 basechar 0
AnchorPoint: "Anchor-2" 381 0 basechar 0
LayerCount: 2
Fore
SplineSet
443 948 m 2
 448 952 452 954 458 954 c 2
 499 954 l 2
 507 954 507 950 500 944 c 2
 402 864 l 2
 398 861 394 856 386 856 c 2
 368 856 l 2
 359 856 354 860 348 865 c 2
 249 944 l 2
 243 949 244 954 251 954 c 2
 288 954 l 2
 295 954 296 953 303 948 c 2
 365 900 l 2
 376 892 374 892 384 900 c 2
 443 948 l 2
375 752 m 0
 497 752 617 659 629 556 c 0
 630 551 629 549 624 549 c 2
 588 545 l 2
 584 544 582 546 581 552 c 0
 558 647 478 710 377 710 c 0
 214 710 126 591 126 368 c 0
 126 153 212 32 385 32 c 0
 489 32 555 81 595 186 c 0
 596 188 598 189 601 188 c 2
 635 178 l 2
 637 177 638 175 637 171 c 0
 602 61 502 -10 381 -10 c 0
 188 -10 78 127 78 368 c 0
 78 610 188 752 375 752 c 0
EndSplineSet
Validated: 1
EndChar

StartChar: Ccedilla
Encoding: 199 199 32
Width: 695
GlyphClass: 2
Flags: MW
HStem: -204 30<339.5 371 335.5 381.5> -83 25 -9 41<359 359> 710 42<295.5 427.5>
VStem: 78 48<260.5 479.5 260.5 489> 410 44<-145 -115>
AnchorPoint: "Anchor-5" 0 0 basechar 0
AnchorPoint: "Anchor-4" 375 742 basechar 0
AnchorPoint: "Anchor-3" 0 0 basechar 0
AnchorPoint: "Anchor-2" 381 0 basechar 0
LayerCount: 2
Fore
SplineSet
635 178 m 2
 637 177 638 175 637 171 c 0
 603 65 509 -5 393 -10 c 1
 375 -55 l 2
 374 -57 375 -58 378 -58 c 0
 437 -64 454 -97 454 -129 c 0
 454 -179 409 -204 354 -204 c 0
 325 -204 302 -197 281 -183 c 0
 279 -182 277 -180 278 -177 c 2
 287 -157 l 2
 288 -155 291 -154 294 -156 c 0
 307 -167 321 -174 350 -174 c 0
 392 -174 410 -159 410 -131 c 0
 410 -99 385 -85 333 -83 c 0
 328 -83 328 -81 329 -79 c 2
 359 -9 l 1
 180 1 78 136 78 368 c 0
 78 610 188 752 375 752 c 0
 497 752 617 659 629 556 c 0
 630 551 629 549 624 549 c 2
 588 545 l 2
 584 544 582 546 581 552 c 0
 558 647 478 710 377 710 c 0
 214 710 126 591 126 368 c 0
 126 153 212 32 385 32 c 0
 489 32 555 81 595 186 c 0
 596 188 598 189 601 188 c 2
 635 178 l 2
EndSplineSet
Validated: 1
EndChar

StartChar: Ccircumflex
Encoding: 264 264 33
Width: 695
GlyphClass: 2
Flags: MW
HStem: -10 42<298.5 437 298.5 441.5> 710 42<295.5 427.5> 916 38
VStem: 78 48<260.5 479.5 260.5 489>
AnchorPoint: "Anchor-5" 0 0 basechar 0
AnchorPoint: "Anchor-4" 374 876 basechar 0
AnchorPoint: "Anchor-3" 0 0 basechar 0
AnchorPoint: "Anchor-2" 381 0 basechar 0
LayerCount: 2
Fore
SplineSet
443 862 m 2
 384 910 l 2
 374 918 376 918 365 910 c 2
 303 862 l 2
 296 857 295 856 288 856 c 2
 251 856 l 2
 244 856 243 861 249 866 c 2
 348 945 l 2
 354 950 359 954 368 954 c 2
 386 954 l 2
 394 954 398 949 402 946 c 2
 500 866 l 2
 507 860 507 856 499 856 c 2
 458 856 l 2
 452 856 448 858 443 862 c 2
375 752 m 0
 497 752 617 659 629 556 c 0
 630 551 629 549 624 549 c 2
 588 545 l 2
 584 544 582 546 581 552 c 0
 558 647 478 710 377 710 c 0
 214 710 126 591 126 368 c 0
 126 153 212 32 385 32 c 0
 489 32 555 81 595 186 c 0
 596 188 598 189 601 188 c 2
 635 178 l 2
 637 177 638 175 637 171 c 0
 602 61 502 -10 381 -10 c 0
 188 -10 78 127 78 368 c 0
 78 610 188 752 375 752 c 0
EndSplineSet
Validated: 1
EndChar

StartChar: Cdotaccent
Encoding: 266 266 34
Width: 695
GlyphClass: 2
Flags: MW
HStem: -10 42<298.5 437 298.5 441.5> 710 42<295.5 427.5> 856 98<359 361 361 388>
VStem: 78 48<260.5 479.5 260.5 489> 350 50<866 868 868 944>
AnchorPoint: "Anchor-5" 0 0 basechar 0
AnchorPoint: "Anchor-4" 375 742 basechar 0
AnchorPoint: "Anchor-3" 0 0 basechar 0
AnchorPoint: "Anchor-2" 381 0 basechar 0
LayerCount: 2
Fore
SplineSet
400 944 m 2
 400 868 l 2
 400 858 398 856 388 856 c 2
 361 856 l 2
 352 856 350 858 350 866 c 2
 350 944 l 2
 350 952 352 954 359 954 c 2
 391 954 l 2
 398 954 400 952 400 944 c 2
375 752 m 0
 497 752 617 659 629 556 c 0
 630 551 629 549 624 549 c 2
 588 545 l 2
 584 544 582 546 581 552 c 0
 558 647 478 710 377 710 c 0
 214 710 126 591 126 368 c 0
 126 153 212 32 385 32 c 0
 489 32 555 81 595 186 c 0
 596 188 598 189 601 188 c 2
 635 178 l 2
 637 177 638 175 637 171 c 0
 602 61 502 -10 381 -10 c 0
 188 -10 78 127 78 368 c 0
 78 610 188 752 375 752 c 0
EndSplineSet
Validated: 1
EndChar

StartChar: D
Encoding: 68 68 35
Width: 703
GlyphClass: 2
Flags: MW
HStem: 0 40<171 221 221 225> 701 40<170 239>
VStem: 114 46<46 49 49 687> 578 48<250.5 500.5 247 502>
AnchorPoint: "Anchor-5" 0 0 basechar 0
AnchorPoint: "Anchor-4" 336 742 basechar 0
AnchorPoint: "Anchor-3" 0 0 basechar 0
AnchorPoint: "Anchor-2" 0 0 basechar 0
LayerCount: 2
Fore
SplineSet
124 742 m 2
 239 741 l 2
 518 739 626 622 626 379 c 0
 626 115 499 0 225 0 c 2
 123 0 l 2
 117 0 114 3 114 10 c 2
 114 732 l 2
 114 738 117 742 124 742 c 2
170 701 m 2
 162 701 160 695 160 687 c 2
 160 49 l 2
 160 43 163 40 171 40 c 2
 221 40 l 2
 478 40 578 130 578 371 c 0
 578 633 465 701 223 701 c 2
 170 701 l 2
EndSplineSet
Validated: 1
EndChar

StartChar: Eth
Encoding: 208 208 36
Width: 703
GlyphClass: 2
Flags: MW
HStem: 0 40<171 221 221 225> 353 42<42 45 45 114 160 329> 701 40<170 239>
VStem: 114 46<46 49 49 353 395 687> 578 48<250.5 500.5 247 502>
AnchorPoint: "Anchor-5" 0 0 basechar 0
AnchorPoint: "Anchor-4" 336 742 basechar 0
AnchorPoint: "Anchor-3" 0 0 basechar 0
AnchorPoint: "Anchor-2" 0 0 basechar 0
LayerCount: 2
Fore
SplineSet
239 741 m 2
 518 739 626 622 626 379 c 0
 626 115 499 0 225 0 c 2
 123 0 l 2
 117 0 114 3 114 10 c 2
 114 353 l 1
 45 353 l 2
 37 353 35 356 35 363 c 2
 35 386 l 2
 35 392 37 395 42 395 c 2
 114 395 l 1
 114 732 l 2
 114 738 117 742 124 742 c 2
 239 741 l 2
221 40 m 2
 478 40 578 130 578 371 c 0
 578 633 465 701 223 701 c 2
 170 701 l 2
 162 701 160 695 160 687 c 2
 160 395 l 1
 335 395 l 2
 340 395 342 392 342 387 c 2
 342 364 l 2
 342 356 338 353 329 353 c 2
 160 353 l 1
 160 49 l 2
 160 43 163 40 171 40 c 2
 221 40 l 2
EndSplineSet
Validated: 1
EndChar

StartChar: Dcaron
Encoding: 270 270 37
Width: 703
GlyphClass: 2
Flags: MW
HStem: 0 40<171 221 221 225> 701 40<170 239> 856 38
VStem: 114 46<46 49 49 687> 578 48<250.5 500.5 247 502>
AnchorPoint: "Anchor-5" 0 0 basechar 0
AnchorPoint: "Anchor-4" 336 742 basechar 0
AnchorPoint: "Anchor-3" 0 0 basechar 0
AnchorPoint: "Anchor-2" 0 0 basechar 0
LayerCount: 2
Fore
SplineSet
404 948 m 2
 409 952 413 954 419 954 c 2
 460 954 l 2
 468 954 468 950 461 944 c 2
 363 864 l 2
 359 861 355 856 347 856 c 2
 329 856 l 2
 320 856 315 860 309 865 c 2
 210 944 l 2
 204 949 205 954 212 954 c 2
 249 954 l 2
 256 954 257 953 264 948 c 2
 326 900 l 2
 337 892 335 892 345 900 c 2
 404 948 l 2
124 742 m 2
 239 741 l 2
 518 739 626 622 626 379 c 0
 626 115 499 0 225 0 c 2
 123 0 l 2
 117 0 114 3 114 10 c 2
 114 732 l 2
 114 738 117 742 124 742 c 2
170 701 m 2
 162 701 160 695 160 687 c 2
 160 49 l 2
 160 43 163 40 171 40 c 2
 221 40 l 2
 478 40 578 130 578 371 c 0
 578 633 465 701 223 701 c 2
 170 701 l 2
EndSplineSet
Validated: 1
EndChar

StartChar: Dcroat
Encoding: 272 272 38
Width: 703
GlyphClass: 2
Flags: MW
HStem: 0 40<171 221 221 225> 353 42<42 45 45 114 160 329> 701 40<170 239>
VStem: 114 46<46 49 49 353 395 687> 578 48<250.5 500.5 247 502>
AnchorPoint: "Anchor-5" 0 0 basechar 0
AnchorPoint: "Anchor-4" 336 742 basechar 0
AnchorPoint: "Anchor-3" 0 0 basechar 0
AnchorPoint: "Anchor-2" 0 0 basechar 0
LayerCount: 2
Fore
SplineSet
239 741 m 2
 518 739 626 622 626 379 c 0
 626 115 499 0 225 0 c 2
 123 0 l 2
 117 0 114 3 114 10 c 2
 114 353 l 1
 45 353 l 2
 37 353 35 356 35 363 c 2
 35 386 l 2
 35 392 37 395 42 395 c 2
 114 395 l 1
 114 732 l 2
 114 738 117 742 124 742 c 2
 239 741 l 2
221 40 m 2
 478 40 578 130 578 371 c 0
 578 633 465 701 223 701 c 2
 170 701 l 2
 162 701 160 695 160 687 c 2
 160 395 l 1
 335 395 l 2
 340 395 342 392 342 387 c 2
 342 364 l 2
 342 356 338 353 329 353 c 2
 160 353 l 1
 160 49 l 2
 160 43 163 40 171 40 c 2
 221 40 l 2
EndSplineSet
Validated: 1
EndChar

StartChar: uni1E0C
Encoding: 7692 7692 39
Width: 703
GlyphClass: 2
Flags: MW
HStem: -165 103<315 317 317 346> 0 40<171 221 221 225> 701 40<170 239>
VStem: 114 46<46 49 49 687> 306 52<-155 -153 -153 -72> 578 48<250.5 500.5 247 502>
AnchorPoint: "Anchor-5" 0 0 basechar 0
AnchorPoint: "Anchor-4" 336 742 basechar 0
AnchorPoint: "Anchor-3" 0 0 basechar 0
AnchorPoint: "Anchor-2" 0 0 basechar 0
LayerCount: 2
Fore
SplineSet
124 742 m 2
 239 741 l 2
 518 739 626 622 626 379 c 0
 626 115 499 0 225 0 c 2
 123 0 l 2
 117 0 114 3 114 10 c 2
 114 732 l 2
 114 738 117 742 124 742 c 2
170 701 m 2
 162 701 160 695 160 687 c 2
 160 49 l 2
 160 43 163 40 171 40 c 2
 221 40 l 2
 478 40 578 130 578 371 c 0
 578 633 465 701 223 701 c 2
 170 701 l 2
358 -72 m 2
 358 -153 l 2
 358 -163 356 -165 346 -165 c 2
 317 -165 l 2
 308 -165 306 -163 306 -155 c 2
 306 -72 l 2
 306 -64 308 -62 315 -62 c 2
 349 -62 l 2
 356 -62 358 -64 358 -72 c 2
EndSplineSet
Validated: 1
EndChar

StartChar: E
Encoding: 69 69 40
Width: 612
GlyphClass: 2
Flags: MW
HStem: 0 40<169 552 552 553> 355 40<165.5 458 169 457> 702 40<165.5 169 169 537>
VStem: 114 46<45 49 49 346 399 402 402 693>
AnchorPoint: "Anchor-5" 0 0 basechar 0
AnchorPoint: "Anchor-4" 345 742 basechar 0
AnchorPoint: "Anchor-3" 549 10 basechar 0
AnchorPoint: "Anchor-2" 364 0 basechar 0
LayerCount: 2
Fore
SplineSet
114 732 m 2
 114 740 116 742 123 742 c 2
 538 742 l 2
 543 742 545 740 545 735 c 2
 545 709 l 2
 545 703 543 702 537 702 c 2
 169 702 l 2
 162 702 160 701 160 693 c 2
 160 402 l 2
 160 396 162 395 169 395 c 2
 458 395 l 2
 463 395 465 393 465 388 c 2
 465 362 l 2
 465 356 463 355 457 355 c 2
 169 355 l 6
 162 355 160 354 160 346 c 2
 160 49 l 2
 160 41 162 40 169 40 c 2
 552 40 l 2
 558 40 560 39 560 33 c 2
 560 7 l 2
 560 2 558 0 553 0 c 2
 123 0 l 2
 116 0 114 2 114 10 c 2
 114 732 l 2
EndSplineSet
Validated: 1
EndChar

StartChar: Eacute
Encoding: 201 201 41
Width: 612
GlyphClass: 2
Flags: MW
HStem: 0 40<169 552 552 553> 355 40<165.5 458 169 457> 702 40<165.5 169 169 537>
VStem: 114 46<45 49 49 346 399 402 402 693>
AnchorPoint: "Anchor-5" 0 0 basechar 0
AnchorPoint: "Anchor-4" 345 742 basechar 0
AnchorPoint: "Anchor-3" 549 10 basechar 0
AnchorPoint: "Anchor-2" 364 0 basechar 0
LayerCount: 2
Fore
SplineSet
464 964 m 2
 474 932 l 2
 476 926 475 923 467 920 c 2
 240 846 l 2
 234 844 231 845 229 851 c 2
 224 866 l 2
 222 871 224 875 227 876 c 2
 456 967 l 2
 459 968 463 967 464 964 c 2
114 732 m 2
 114 740 116 742 123 742 c 2
 538 742 l 2
 543 742 545 740 545 735 c 2
 545 709 l 2
 545 703 543 702 537 702 c 2
 169 702 l 2
 162 702 160 701 160 693 c 2
 160 402 l 2
 160 396 162 395 169 395 c 2
 458 395 l 2
 463 395 465 393 465 388 c 2
 465 362 l 2
 465 356 463 355 457 355 c 2
 169 355 l 2
 162 355 160 354 160 346 c 2
 160 49 l 2
 160 41 162 40 169 40 c 2
 552 40 l 2
 558 40 560 39 560 33 c 2
 560 7 l 2
 560 2 558 0 553 0 c 2
 123 0 l 2
 116 0 114 2 114 10 c 2
 114 732 l 2
EndSplineSet
Validated: 1
EndChar

StartChar: Ebreve
Encoding: 276 276 42
Width: 612
GlyphClass: 2
Flags: MW
HStem: 0 40<169 552 552 553> 355 40<165.5 458 169 457> 702 40<165.5 169 169 537> 862 41<318.5 366 318.5 383>
VStem: 114 46<45 49 49 346 399 402 402 693>
AnchorPoint: "Anchor-5" 0 0 basechar 0
AnchorPoint: "Anchor-4" 343 920 basechar 0
AnchorPoint: "Anchor-3" 549 10 basechar 0
AnchorPoint: "Anchor-2" 364 0 basechar 0
LayerCount: 2
Fore
SplineSet
467 954 m 2
 475 954 476 952 474 945 c 0
 465 913 423 862 343 862 c 0
 266 862 229 910 217 946 c 0
 216 949 215 954 221 954 c 2
 256 954 l 2
 262 954 264 952 268 947 c 0
 278 934 294 903 343 903 c 0
 389 903 412 929 423 948 c 0
 426 953 428 954 432 954 c 2
 467 954 l 2
114 732 m 2
 114 740 116 742 123 742 c 2
 538 742 l 2
 543 742 545 740 545 735 c 2
 545 709 l 2
 545 703 543 702 537 702 c 2
 169 702 l 2
 162 702 160 701 160 693 c 2
 160 402 l 2
 160 396 162 395 169 395 c 2
 458 395 l 2
 463 395 465 393 465 388 c 2
 465 362 l 2
 465 356 463 355 457 355 c 2
 169 355 l 2
 162 355 160 354 160 346 c 2
 160 49 l 2
 160 41 162 40 169 40 c 2
 552 40 l 2
 558 40 560 39 560 33 c 2
 560 7 l 2
 560 2 558 0 553 0 c 2
 123 0 l 2
 116 0 114 2 114 10 c 2
 114 732 l 2
EndSplineSet
Validated: 1
EndChar

StartChar: Ecaron
Encoding: 282 282 43
Width: 612
GlyphClass: 2
Flags: MW
HStem: 0 40<169 552 552 553> 355 40<165.5 458 169 457> 702 40<165.5 169 169 537> 856 38
VStem: 114 46<45 49 49 346 399 402 402 693>
AnchorPoint: "Anchor-5" 0 0 basechar 0
AnchorPoint: "Anchor-4" 345 742 basechar 0
AnchorPoint: "Anchor-3" 549 10 basechar 0
AnchorPoint: "Anchor-2" 364 0 basechar 0
LayerCount: 2
Fore
SplineSet
413 948 m 2
 418 952 422 954 428 954 c 2
 469 954 l 2
 477 954 477 950 470 944 c 2
 372 864 l 2
 368 861 364 856 356 856 c 2
 338 856 l 2
 329 856 324 860 318 865 c 2
 219 944 l 2
 213 949 214 954 221 954 c 2
 258 954 l 2
 265 954 266 953 273 948 c 2
 335 900 l 2
 346 892 344 892 354 900 c 2
 413 948 l 2
114 732 m 2
 114 740 116 742 123 742 c 2
 538 742 l 2
 543 742 545 740 545 735 c 2
 545 709 l 2
 545 703 543 702 537 702 c 2
 169 702 l 2
 162 702 160 701 160 693 c 2
 160 402 l 2
 160 396 162 395 169 395 c 2
 458 395 l 2
 463 395 465 393 465 388 c 2
 465 362 l 2
 465 356 463 355 457 355 c 2
 169 355 l 2
 162 355 160 354 160 346 c 2
 160 49 l 2
 160 41 162 40 169 40 c 2
 552 40 l 2
 558 40 560 39 560 33 c 2
 560 7 l 2
 560 2 558 0 553 0 c 2
 123 0 l 2
 116 0 114 2 114 10 c 2
 114 732 l 2
EndSplineSet
Validated: 1
EndChar

StartChar: Ecircumflex
Encoding: 202 202 44
Width: 612
GlyphClass: 2
Flags: MW
HStem: 0 40<169 552 552 553> 355 40<165.5 458 169 457> 702 40<165.5 169 169 537> 916 38
VStem: 114 46<45 49 49 346 399 402 402 693>
AnchorPoint: "Anchor-5" 0 0 basechar 0
AnchorPoint: "Anchor-4" 344 876 basechar 0
AnchorPoint: "Anchor-3" 549 10 basechar 0
AnchorPoint: "Anchor-2" 364 0 basechar 0
LayerCount: 2
Fore
SplineSet
413 862 m 2
 354 910 l 2
 344 918 346 918 335 910 c 2
 273 862 l 2
 266 857 265 856 258 856 c 2
 221 856 l 2
 214 856 213 861 219 866 c 2
 318 945 l 2
 324 950 329 954 338 954 c 2
 356 954 l 2
 364 954 368 949 372 946 c 2
 470 866 l 2
 477 860 477 856 469 856 c 2
 428 856 l 2
 422 856 418 858 413 862 c 2
114 732 m 2
 114 740 116 742 123 742 c 2
 538 742 l 2
 543 742 545 740 545 735 c 2
 545 709 l 2
 545 703 543 702 537 702 c 2
 169 702 l 2
 162 702 160 701 160 693 c 2
 160 402 l 2
 160 396 162 395 169 395 c 2
 458 395 l 2
 463 395 465 393 465 388 c 2
 465 362 l 2
 465 356 463 355 457 355 c 2
 169 355 l 2
 162 355 160 354 160 346 c 2
 160 49 l 2
 160 41 162 40 169 40 c 2
 552 40 l 2
 558 40 560 39 560 33 c 2
 560 7 l 2
 560 2 558 0 553 0 c 2
 123 0 l 2
 116 0 114 2 114 10 c 2
 114 732 l 2
EndSplineSet
Validated: 1
EndChar

StartChar: uni1EBE
Encoding: 7870 7870 45
Width: 612
GlyphClass: 2
Flags: MW
HStem: 0 40<169 552 552 553> 355 40<165.5 458 169 457> 702 40<165.5 169 169 537> 916 38
VStem: 114 46<45 49 49 346 399 402 402 693>
AnchorPoint: "Anchor-5" 0 0 basechar 0
AnchorPoint: "Anchor-4" 344 876 basechar 0
AnchorPoint: "Anchor-3" 549 10 basechar 0
AnchorPoint: "Anchor-2" 364 0 basechar 0
LayerCount: 2
Fore
SplineSet
463 1098 m 2
 473 1066 l 2
 475 1060 474 1057 466 1054 c 2
 239 980 l 2
 233 978 230 979 228 985 c 2
 223 1000 l 2
 221 1005 223 1009 226 1010 c 2
 455 1101 l 2
 458 1102 462 1101 463 1098 c 2
413 862 m 2
 354 910 l 2
 344 918 346 918 335 910 c 2
 273 862 l 2
 266 857 265 856 258 856 c 2
 221 856 l 2
 214 856 213 861 219 866 c 2
 318 945 l 2
 324 950 329 954 338 954 c 2
 356 954 l 2
 364 954 368 949 372 946 c 2
 470 866 l 2
 477 860 477 856 469 856 c 2
 428 856 l 2
 422 856 418 858 413 862 c 2
114 732 m 2
 114 740 116 742 123 742 c 2
 538 742 l 2
 543 742 545 740 545 735 c 2
 545 709 l 2
 545 703 543 702 537 702 c 2
 169 702 l 2
 162 702 160 701 160 693 c 2
 160 402 l 2
 160 396 162 395 169 395 c 2
 458 395 l 2
 463 395 465 393 465 388 c 2
 465 362 l 2
 465 356 463 355 457 355 c 2
 169 355 l 2
 162 355 160 354 160 346 c 2
 160 49 l 2
 160 41 162 40 169 40 c 2
 552 40 l 2
 558 40 560 39 560 33 c 2
 560 7 l 2
 560 2 558 0 553 0 c 2
 123 0 l 2
 116 0 114 2 114 10 c 2
 114 732 l 2
EndSplineSet
Validated: 1
EndChar

StartChar: uni1EC6
Encoding: 7878 7878 46
Width: 612
GlyphClass: 2
Flags: MW
HStem: -165 103<347 349 349 378> 0 40<169 552 552 553> 355 40<165.5 458 169 457> 702 40<165.5 169 169 537> 916 38
VStem: 114 46<45 49 49 346 399 402 402 693> 338 52<-155 -153 -153 -72>
AnchorPoint: "Anchor-5" 0 0 basechar 0
AnchorPoint: "Anchor-4" 344 876 basechar 0
AnchorPoint: "Anchor-3" 549 10 basechar 0
AnchorPoint: "Anchor-2" 364 0 basechar 0
LayerCount: 2
Fore
SplineSet
413 862 m 2
 354 910 l 2
 344 918 346 918 335 910 c 2
 273 862 l 2
 266 857 265 856 258 856 c 2
 221 856 l 2
 214 856 213 861 219 866 c 2
 318 945 l 2
 324 950 329 954 338 954 c 2
 356 954 l 2
 364 954 368 949 372 946 c 2
 470 866 l 2
 477 860 477 856 469 856 c 2
 428 856 l 2
 422 856 418 858 413 862 c 2
114 732 m 2
 114 740 116 742 123 742 c 2
 538 742 l 2
 543 742 545 740 545 735 c 2
 545 709 l 2
 545 703 543 702 537 702 c 2
 169 702 l 2
 162 702 160 701 160 693 c 2
 160 402 l 2
 160 396 162 395 169 395 c 2
 458 395 l 2
 463 395 465 393 465 388 c 2
 465 362 l 2
 465 356 463 355 457 355 c 2
 169 355 l 2
 162 355 160 354 160 346 c 2
 160 49 l 2
 160 41 162 40 169 40 c 2
 552 40 l 2
 558 40 560 39 560 33 c 2
 560 7 l 2
 560 2 558 0 553 0 c 2
 123 0 l 2
 116 0 114 2 114 10 c 2
 114 732 l 2
390 -72 m 2
 390 -153 l 2
 390 -163 388 -165 378 -165 c 2
 349 -165 l 2
 340 -165 338 -163 338 -155 c 2
 338 -72 l 2
 338 -64 340 -62 347 -62 c 2
 381 -62 l 2
 388 -62 390 -64 390 -72 c 2
EndSplineSet
Validated: 1
EndChar

StartChar: uni1EC0
Encoding: 7872 7872 47
Width: 612
GlyphClass: 2
Flags: MW
HStem: 0 40<169 552 552 553> 355 40<165.5 458 169 457> 702 40<165.5 169 169 537> 916 38
VStem: 114 46<45 49 49 346 399 402 402 693>
AnchorPoint: "Anchor-5" 0 0 basechar 0
AnchorPoint: "Anchor-4" 344 876 basechar 0
AnchorPoint: "Anchor-3" 549 10 basechar 0
AnchorPoint: "Anchor-2" 364 0 basechar 0
LayerCount: 2
Fore
SplineSet
236 1094 m 2
 237 1097 241 1098 244 1097 c 2
 473 1006 l 2
 476 1005 478 1001 476 996 c 2
 471 981 l 2
 469 975 466 974 460 976 c 2
 233 1050 l 2
 225 1053 224 1056 226 1062 c 2
 236 1094 l 2
413 862 m 2
 354 910 l 2
 344 918 346 918 335 910 c 2
 273 862 l 2
 266 857 265 856 258 856 c 2
 221 856 l 2
 214 856 213 861 219 866 c 2
 318 945 l 2
 324 950 329 954 338 954 c 2
 356 954 l 2
 364 954 368 949 372 946 c 2
 470 866 l 2
 477 860 477 856 469 856 c 2
 428 856 l 2
 422 856 418 858 413 862 c 2
114 732 m 2
 114 740 116 742 123 742 c 2
 538 742 l 2
 543 742 545 740 545 735 c 2
 545 709 l 2
 545 703 543 702 537 702 c 2
 169 702 l 2
 162 702 160 701 160 693 c 2
 160 402 l 2
 160 396 162 395 169 395 c 2
 458 395 l 2
 463 395 465 393 465 388 c 2
 465 362 l 2
 465 356 463 355 457 355 c 2
 169 355 l 2
 162 355 160 354 160 346 c 2
 160 49 l 2
 160 41 162 40 169 40 c 2
 552 40 l 2
 558 40 560 39 560 33 c 2
 560 7 l 2
 560 2 558 0 553 0 c 2
 123 0 l 2
 116 0 114 2 114 10 c 2
 114 732 l 2
EndSplineSet
Validated: 1
EndChar

StartChar: uni1EC2
Encoding: 7874 7874 48
Width: 612
GlyphClass: 2
Flags: HMW
HStem: 0 40<169 552 552 553> 355 40<165.5 458 169 457> 702 40<165.5 169 169 537> 916 38
VStem: 114 46<45 49 49 346 399 402 402 693>
AnchorPoint: "Anchor-5" 0 0 basechar 0
AnchorPoint: "Anchor-4" 344 876 basechar 0
AnchorPoint: "Anchor-3" 549 10 basechar 0
AnchorPoint: "Anchor-2" 364 0 basechar 0
LayerCount: 2
Fore
SplineSet
396 1076 m 0
 415 1088 442 1098 462 1098 c 0
 505 1098 533 1073 533 1033 c 0
 533 1002 508 973 477 942 c 0
 475 940 473 941 471 943 c 2
 457 960 l 2
 455 962 456 965 458 967 c 0
 482 991 501 1014 501 1031 c 0
 501 1056 484 1064 459 1064 c 0
 442 1064 426 1055 409 1044 c 0
 406 1042 405 1044 404 1046 c 2
 394 1069 l 2
 392 1073 393 1074 396 1076 c 0
413 862 m 2
 354 910 l 2
 344 918 346 918 335 910 c 2
 273 862 l 2
 266 857 265 856 258 856 c 2
 221 856 l 2
 214 856 213 861 219 866 c 2
 318 945 l 2
 324 950 329 954 338 954 c 2
 356 954 l 2
 364 954 368 949 372 946 c 2
 470 866 l 2
 477 860 477 856 469 856 c 2
 428 856 l 2
 422 856 418 858 413 862 c 2
114 732 m 2
 114 740 116 742 123 742 c 2
 538 742 l 2
 543 742 545 740 545 735 c 2
 545 709 l 2
 545 703 543 702 537 702 c 2
 169 702 l 2
 162 702 160 701 160 693 c 2
 160 402 l 2
 160 396 162 395 169 395 c 2
 458 395 l 2
 463 395 465 393 465 388 c 2
 465 362 l 2
 465 356 463 355 457 355 c 2
 169 355 l 2
 162 355 160 354 160 346 c 2
 160 49 l 2
 160 41 162 40 169 40 c 2
 552 40 l 2
 558 40 560 39 560 33 c 2
 560 7 l 2
 560 2 558 0 553 0 c 2
 123 0 l 2
 116 0 114 2 114 10 c 2
 114 732 l 2
EndSplineSet
Validated: 1
EndChar

StartChar: uni1EC4
Encoding: 7876 7876 49
Width: 612
GlyphClass: 2
Flags: MW
HStem: 0 40<169 552 552 553> 355 40<165.5 458 169 457> 702 40<165.5 169 169 537> 916 38 1019 33<381 414 381 420> 1043 34<273 306 269 308.5>
VStem: 114 46<45 49 49 346 399 402 402 693>
AnchorPoint: "Anchor-5" 0 0 basechar 0
AnchorPoint: "Anchor-4" 344 876 basechar 0
AnchorPoint: "Anchor-3" 549 10 basechar 0
AnchorPoint: "Anchor-2" 364 0 basechar 0
LayerCount: 2
Fore
SplineSet
469 1038 m 0xfa
 456 1030 438 1019 402 1019 c 0xfa
 350 1019 329 1043 288 1043 c 0
 258 1043 245 1030 232 1023 c 0
 226 1020 224 1020 221 1027 c 2
 214 1043 l 2
 212 1048 213 1049 216 1051 c 0
 236 1065 254 1077 284 1077 c 0xf6
 328 1077 359 1052 403 1052 c 0
 425 1052 436 1058 453 1068 c 0
 460 1072 463 1071 466 1065 c 2
 474 1047 l 2
 476 1043 475 1042 469 1038 c 0xfa
413 862 m 2
 354 910 l 2
 344 918 346 918 335 910 c 2
 273 862 l 2
 266 857 265 856 258 856 c 2
 221 856 l 2
 214 856 213 861 219 866 c 2
 318 945 l 2
 324 950 329 954 338 954 c 2
 356 954 l 2
 364 954 368 949 372 946 c 2
 470 866 l 2
 477 860 477 856 469 856 c 2
 428 856 l 2
 422 856 418 858 413 862 c 2
114 732 m 2
 114 740 116 742 123 742 c 2
 538 742 l 2
 543 742 545 740 545 735 c 2
 545 709 l 2
 545 703 543 702 537 702 c 2
 169 702 l 2
 162 702 160 701 160 693 c 2
 160 402 l 2
 160 396 162 395 169 395 c 2
 458 395 l 2
 463 395 465 393 465 388 c 2
 465 362 l 2
 465 356 463 355 457 355 c 2
 169 355 l 2
 162 355 160 354 160 346 c 2
 160 49 l 2
 160 41 162 40 169 40 c 2
 552 40 l 2
 558 40 560 39 560 33 c 2
 560 7 l 2
 560 2 558 0 553 0 c 2
 123 0 l 2
 116 0 114 2 114 10 c 2
 114 732 l 2
EndSplineSet
Validated: 1
EndChar

StartChar: uni0204
Encoding: 516 516 50
Width: 612
GlyphClass: 2
Flags: MW
HStem: 0 40<169 552 552 553> 355 40<165.5 458 169 457> 702 40<165.5 169 169 537>
VStem: 114 46<45 49 49 346 399 402 402 693>
AnchorPoint: "Anchor-5" 0 0 basechar 0
AnchorPoint: "Anchor-4" 345 742 basechar 0
AnchorPoint: "Anchor-3" 549 10 basechar 0
AnchorPoint: "Anchor-2" 364 0 basechar 0
LayerCount: 2
Fore
SplineSet
175 959 m 2
 177 961 181 962 184 959 c 2
 301 826 l 2
 303 824 305 820 301 816 c 2
 292 803 l 2
 289 798 285 798 280 802 c 2
 156 919 l 2
 149 925 149 927 153 932 c 2
 175 959 l 2
315 959 m 2
 317 961 321 962 324 959 c 2
 441 826 l 2
 443 824 445 820 441 816 c 2
 432 803 l 2
 429 798 425 798 420 802 c 2
 296 919 l 2
 289 925 289 927 293 932 c 2
 315 959 l 2
114 732 m 2
 114 740 116 742 123 742 c 2
 538 742 l 2
 543 742 545 740 545 735 c 2
 545 709 l 2
 545 703 543 702 537 702 c 2
 169 702 l 2
 162 702 160 701 160 693 c 2
 160 402 l 2
 160 396 162 395 169 395 c 2
 458 395 l 2
 463 395 465 393 465 388 c 2
 465 362 l 2
 465 356 463 355 457 355 c 2
 169 355 l 2
 162 355 160 354 160 346 c 2
 160 49 l 2
 160 41 162 40 169 40 c 2
 552 40 l 2
 558 40 560 39 560 33 c 2
 560 7 l 2
 560 2 558 0 553 0 c 2
 123 0 l 2
 116 0 114 2 114 10 c 2
 114 732 l 2
EndSplineSet
Validated: 1
EndChar

StartChar: Edieresis
Encoding: 203 203 51
Width: 612
GlyphClass: 2
Flags: MW
HStem: 0 40<169 552 552 553> 355 40<165.5 458 169 457> 702 40<165.5 169 169 537> 856 98<273 275 275 302 384 386 386 413>
VStem: 114 46<45 49 49 346 399 402 402 693> 264 50<866 868 868 944> 375 50<866 868 868 944>
AnchorPoint: "Anchor-5" 0 0 basechar 0
AnchorPoint: "Anchor-4" 345 742 basechar 0
AnchorPoint: "Anchor-3" 549 10 basechar 0
AnchorPoint: "Anchor-2" 364 0 basechar 0
LayerCount: 2
Fore
SplineSet
314 944 m 2
 314 868 l 2
 314 858 312 856 302 856 c 2
 275 856 l 2
 266 856 264 858 264 866 c 2
 264 944 l 2
 264 952 266 954 273 954 c 2
 305 954 l 2
 312 954 314 952 314 944 c 2
425 944 m 2
 425 868 l 2
 425 858 423 856 413 856 c 2
 386 856 l 2
 377 856 375 858 375 866 c 2
 375 944 l 2
 375 952 377 954 384 954 c 2
 416 954 l 2
 423 954 425 952 425 944 c 2
114 732 m 2
 114 740 116 742 123 742 c 2
 538 742 l 2
 543 742 545 740 545 735 c 2
 545 709 l 2
 545 703 543 702 537 702 c 2
 169 702 l 2
 162 702 160 701 160 693 c 2
 160 402 l 2
 160 396 162 395 169 395 c 2
 458 395 l 2
 463 395 465 393 465 388 c 2
 465 362 l 2
 465 356 463 355 457 355 c 2
 169 355 l 2
 162 355 160 354 160 346 c 2
 160 49 l 2
 160 41 162 40 169 40 c 2
 552 40 l 2
 558 40 560 39 560 33 c 2
 560 7 l 2
 560 2 558 0 553 0 c 2
 123 0 l 2
 116 0 114 2 114 10 c 2
 114 732 l 2
EndSplineSet
Validated: 1
EndChar

StartChar: Edotaccent
Encoding: 278 278 52
Width: 612
GlyphClass: 2
Flags: MW
HStem: 0 40<169 552 552 553> 355 40<165.5 458 169 457> 702 40<165.5 169 169 537> 856 98<329 331 331 358>
VStem: 114 46<45 49 49 346 399 402 402 693> 320 50<866 868 868 944>
AnchorPoint: "Anchor-5" 0 0 basechar 0
AnchorPoint: "Anchor-4" 345 742 basechar 0
AnchorPoint: "Anchor-3" 549 10 basechar 0
AnchorPoint: "Anchor-2" 364 0 basechar 0
LayerCount: 2
Fore
SplineSet
370 944 m 2
 370 868 l 2
 370 858 368 856 358 856 c 2
 331 856 l 2
 322 856 320 858 320 866 c 2
 320 944 l 2
 320 952 322 954 329 954 c 2
 361 954 l 2
 368 954 370 952 370 944 c 2
114 732 m 2
 114 740 116 742 123 742 c 2
 538 742 l 2
 543 742 545 740 545 735 c 2
 545 709 l 2
 545 703 543 702 537 702 c 2
 169 702 l 2
 162 702 160 701 160 693 c 2
 160 402 l 2
 160 396 162 395 169 395 c 2
 458 395 l 2
 463 395 465 393 465 388 c 2
 465 362 l 2
 465 356 463 355 457 355 c 2
 169 355 l 2
 162 355 160 354 160 346 c 2
 160 49 l 2
 160 41 162 40 169 40 c 2
 552 40 l 2
 558 40 560 39 560 33 c 2
 560 7 l 2
 560 2 558 0 553 0 c 2
 123 0 l 2
 116 0 114 2 114 10 c 2
 114 732 l 2
EndSplineSet
Validated: 1
EndChar

StartChar: uni1EB8
Encoding: 7864 7864 53
Width: 612
GlyphClass: 2
Flags: MW
HStem: -165 103<329 331 331 360> 0 40<169 552 552 553> 355 40<165.5 458 169 457> 702 40<165.5 169 169 537>
VStem: 114 46<45 49 49 346 399 402 402 693> 320 52<-155 -153 -153 -72>
AnchorPoint: "Anchor-5" 0 0 basechar 0
AnchorPoint: "Anchor-4" 345 742 basechar 0
AnchorPoint: "Anchor-3" 549 10 basechar 0
AnchorPoint: "Anchor-2" 364 0 basechar 0
LayerCount: 2
Fore
SplineSet
114 732 m 2
 114 740 116 742 123 742 c 2
 538 742 l 2
 543 742 545 740 545 735 c 2
 545 709 l 2
 545 703 543 702 537 702 c 2
 169 702 l 2
 162 702 160 701 160 693 c 2
 160 402 l 2
 160 396 162 395 169 395 c 2
 458 395 l 2
 463 395 465 393 465 388 c 2
 465 362 l 2
 465 356 463 355 457 355 c 2
 169 355 l 2
 162 355 160 354 160 346 c 2
 160 49 l 2
 160 41 162 40 169 40 c 2
 552 40 l 2
 558 40 560 39 560 33 c 2
 560 7 l 2
 560 2 558 0 553 0 c 2
 123 0 l 2
 116 0 114 2 114 10 c 2
 114 732 l 2
372 -72 m 2
 372 -153 l 2
 372 -163 370 -165 360 -165 c 2
 331 -165 l 2
 322 -165 320 -163 320 -155 c 2
 320 -72 l 2
 320 -64 322 -62 329 -62 c 2
 363 -62 l 2
 370 -62 372 -64 372 -72 c 2
EndSplineSet
Validated: 1
EndChar

StartChar: Egrave
Encoding: 200 200 54
Width: 612
GlyphClass: 2
Flags: MW
HStem: 0 40<169 552 552 553> 355 40<165.5 458 169 457> 702 40<165.5 169 169 537>
VStem: 114 46<45 49 49 346 399 402 402 693>
AnchorPoint: "Anchor-5" 0 0 basechar 0
AnchorPoint: "Anchor-4" 345 742 basechar 0
AnchorPoint: "Anchor-3" 549 10 basechar 0
AnchorPoint: "Anchor-2" 364 0 basechar 0
LayerCount: 2
Fore
SplineSet
237 960 m 2
 238 963 242 964 245 963 c 2
 474 872 l 2
 477 871 479 867 477 862 c 2
 472 847 l 2
 470 841 467 840 461 842 c 2
 234 916 l 2
 226 919 225 922 227 928 c 2
 237 960 l 2
114 732 m 2
 114 740 116 742 123 742 c 2
 538 742 l 2
 543 742 545 740 545 735 c 2
 545 709 l 2
 545 703 543 702 537 702 c 2
 169 702 l 2
 162 702 160 701 160 693 c 2
 160 402 l 2
 160 396 162 395 169 395 c 2
 458 395 l 2
 463 395 465 393 465 388 c 2
 465 362 l 2
 465 356 463 355 457 355 c 2
 169 355 l 2
 162 355 160 354 160 346 c 2
 160 49 l 2
 160 41 162 40 169 40 c 2
 552 40 l 2
 558 40 560 39 560 33 c 2
 560 7 l 2
 560 2 558 0 553 0 c 2
 123 0 l 2
 116 0 114 2 114 10 c 2
 114 732 l 2
EndSplineSet
Validated: 1
EndChar

StartChar: uni1EBA
Encoding: 7866 7866 55
Width: 612
GlyphClass: 2
Flags: HMW
HStem: 0 40<169 552 552 553> 355 40<165.5 458 169 457> 702 40<165.5 169 169 537>
VStem: 114 46<45 49 49 346 399 402 402 693>
AnchorPoint: "Anchor-5" 0 0 basechar 0
AnchorPoint: "Anchor-4" 345 742 basechar 0
AnchorPoint: "Anchor-3" 549 10 basechar 0
AnchorPoint: "Anchor-2" 364 0 basechar 0
LayerCount: 2
Fore
SplineSet
266 945 m 0
 285 957 312 967 332 967 c 0
 375 967 403 942 403 902 c 0
 403 871 378 842 347 811 c 0
 345 809 343 810 341 812 c 2
 327 829 l 2
 325 831 326 834 328 836 c 0
 352 860 371 883 371 900 c 0
 371 925 354 933 329 933 c 0
 312 933 296 924 279 913 c 0
 276 911 275 913 274 915 c 2
 264 938 l 2
 262 942 263 943 266 945 c 0
114 732 m 2
 114 740 116 742 123 742 c 2
 538 742 l 2
 543 742 545 740 545 735 c 2
 545 709 l 2
 545 703 543 702 537 702 c 2
 169 702 l 2
 162 702 160 701 160 693 c 2
 160 402 l 2
 160 396 162 395 169 395 c 2
 458 395 l 2
 463 395 465 393 465 388 c 2
 465 362 l 2
 465 356 463 355 457 355 c 2
 169 355 l 2
 162 355 160 354 160 346 c 2
 160 49 l 2
 160 41 162 40 169 40 c 2
 552 40 l 2
 558 40 560 39 560 33 c 2
 560 7 l 2
 560 2 558 0 553 0 c 2
 123 0 l 2
 116 0 114 2 114 10 c 2
 114 732 l 2
EndSplineSet
Validated: 1
EndChar

StartChar: uni0206
Encoding: 518 518 56
Width: 612
GlyphClass: 2
Flags: MW
HStem: 0 40<169 552 552 553> 355 40<165.5 458 169 457> 702 40<165.5 169 169 537> 921 41<317.5 365>
VStem: 114 46<45 49 49 346 399 402 402 693>
AnchorPoint: "Anchor-5" 0 0 basechar 0
AnchorPoint: "Anchor-4" 342 904 basechar 0
AnchorPoint: "Anchor-3" 549 10 basechar 0
AnchorPoint: "Anchor-2" 364 0 basechar 0
LayerCount: 2
Fore
SplineSet
466 870 m 2
 431 870 l 2
 427 870 425 871 422 876 c 0
 411 895 388 921 342 921 c 0
 293 921 277 890 267 877 c 0
 263 872 261 870 255 870 c 2
 220 870 l 2
 214 870 215 875 216 878 c 0
 228 914 265 962 342 962 c 0
 422 962 464 911 473 879 c 0
 475 872 474 870 466 870 c 2
114 732 m 2
 114 740 116 742 123 742 c 2
 538 742 l 2
 543 742 545 740 545 735 c 2
 545 709 l 2
 545 703 543 702 537 702 c 2
 169 702 l 2
 162 702 160 701 160 693 c 2
 160 402 l 2
 160 396 162 395 169 395 c 2
 458 395 l 2
 463 395 465 393 465 388 c 2
 465 362 l 2
 465 356 463 355 457 355 c 2
 169 355 l 2
 162 355 160 354 160 346 c 2
 160 49 l 2
 160 41 162 40 169 40 c 2
 552 40 l 2
 558 40 560 39 560 33 c 2
 560 7 l 2
 560 2 558 0 553 0 c 2
 123 0 l 2
 116 0 114 2 114 10 c 2
 114 732 l 2
EndSplineSet
Validated: 1
EndChar

StartChar: Emacron
Encoding: 274 274 57
Width: 612
GlyphClass: 2
Flags: MW
HStem: 0 40<169 552 552 553> 355 40<165.5 458 169 457> 702 40<165.5 169 169 537> 896 38<224 226 226 461>
VStem: 114 46<45 49 49 346 399 402 402 693>
AnchorPoint: "Anchor-5" 0 0 basechar 0
AnchorPoint: "Anchor-4" 345 742 basechar 0
AnchorPoint: "Anchor-3" 549 10 basechar 0
AnchorPoint: "Anchor-2" 364 0 basechar 0
LayerCount: 2
Fore
SplineSet
471 928 m 2
 471 904 l 2
 471 899 469 896 461 896 c 2
 226 896 l 2
 220 896 219 899 219 904 c 2
 219 927 l 2
 219 931 221 934 224 934 c 2
 466 934 l 2
 469 934 471 931 471 928 c 2
114 732 m 2
 114 740 116 742 123 742 c 2
 538 742 l 2
 543 742 545 740 545 735 c 2
 545 709 l 2
 545 703 543 702 537 702 c 2
 169 702 l 2
 162 702 160 701 160 693 c 2
 160 402 l 2
 160 396 162 395 169 395 c 2
 458 395 l 2
 463 395 465 393 465 388 c 2
 465 362 l 2
 465 356 463 355 457 355 c 2
 169 355 l 2
 162 355 160 354 160 346 c 2
 160 49 l 2
 160 41 162 40 169 40 c 2
 552 40 l 2
 558 40 560 39 560 33 c 2
 560 7 l 2
 560 2 558 0 553 0 c 2
 123 0 l 2
 116 0 114 2 114 10 c 2
 114 732 l 2
EndSplineSet
Validated: 1
EndChar

StartChar: Eogonek
Encoding: 280 280 58
Width: 612
GlyphClass: 2
Flags: MW
HStem: -170 34<490.5 517> 0 40<169 492 554 555 169 556> 355 40<165.5 458 169 457> 702 40<165.5 169 169 537>
VStem: 114 46<45 49 49 346 399 402 402 693> 409 44<-108 -74.5 -108 -72.5>
AnchorPoint: "Anchor-5" 0 0 basechar 0
AnchorPoint: "Anchor-4" 345 742 basechar 0
AnchorPoint: "Anchor-3" 549 10 basechar 0
AnchorPoint: "Anchor-2" 364 0 basechar 0
LayerCount: 2
Fore
SplineSet
576 -124 m 0
 582 -121 584 -122 584 -127 c 2
 584 -147 l 2
 584 -152 583 -153 579 -155 c 0
 564 -162 533 -170 501 -170 c 0
 437 -170 409 -137 409 -92 c 0
 409 -53 430 -23 492 0 c 1
 123 0 l 2
 116 0 114 2 114 10 c 2
 114 732 l 2
 114 740 116 742 123 742 c 2
 538 742 l 2
 543 742 545 740 545 735 c 2
 545 709 l 2
 545 703 543 702 537 702 c 2
 169 702 l 2
 162 702 160 701 160 693 c 2
 160 402 l 2
 160 396 162 395 169 395 c 2
 458 395 l 2
 463 395 465 393 465 388 c 2
 465 362 l 2
 465 356 463 355 457 355 c 2
 169 355 l 2
 162 355 160 354 160 346 c 2
 160 49 l 2
 160 41 162 40 169 40 c 2
 552 40 l 2
 558 40 560 39 560 33 c 2
 560 7 l 2
 560 2 558 0 554 0 c 0
 487 -31 453 -55 453 -94 c 0
 453 -122 470 -136 511 -136 c 0
 542 -136 568 -128 576 -124 c 0
EndSplineSet
Validated: 1
EndChar

StartChar: uni1EBC
Encoding: 7868 7868 59
Width: 612
GlyphClass: 2
Flags: MW
HStem: 0 40<169 552 552 553> 355 40<165.5 458 169 457> 702 40<165.5 169 169 537> 885 33<382 415 382 421> 909 34<274 307 270 309.5>
VStem: 114 46<45 49 49 346 399 402 402 693>
AnchorPoint: "Anchor-5" 0 0 basechar 0
AnchorPoint: "Anchor-4" 345 742 basechar 0
AnchorPoint: "Anchor-3" 549 10 basechar 0
AnchorPoint: "Anchor-2" 364 0 basechar 0
LayerCount: 2
Fore
SplineSet
470 904 m 0xf4
 457 896 439 885 403 885 c 0xf4
 351 885 330 909 289 909 c 0
 259 909 246 896 233 889 c 0
 227 886 225 886 222 893 c 2
 215 909 l 2
 213 914 214 915 217 917 c 0
 237 931 255 943 285 943 c 0xec
 329 943 360 918 404 918 c 0
 426 918 437 924 454 934 c 0
 461 938 464 937 467 931 c 2
 475 913 l 2
 477 909 476 908 470 904 c 0xf4
114 732 m 2
 114 740 116 742 123 742 c 2
 538 742 l 2
 543 742 545 740 545 735 c 2
 545 709 l 2
 545 703 543 702 537 702 c 2
 169 702 l 2
 162 702 160 701 160 693 c 2
 160 402 l 2
 160 396 162 395 169 395 c 2
 458 395 l 2
 463 395 465 393 465 388 c 2
 465 362 l 2
 465 356 463 355 457 355 c 2
 169 355 l 2
 162 355 160 354 160 346 c 2
 160 49 l 2
 160 41 162 40 169 40 c 2
 552 40 l 2
 558 40 560 39 560 33 c 2
 560 7 l 2
 560 2 558 0 553 0 c 2
 123 0 l 2
 116 0 114 2 114 10 c 2
 114 732 l 2
EndSplineSet
Validated: 1
EndChar

StartChar: F
Encoding: 70 70 60
Width: 583
Flags: MW
HStem: 0 21G<119.5 123 123 153> 342 40<165.5 468 169 467> 702 40<165.5 169 169 527>
VStem: 114 46<10 333 386 389 389 693>
LayerCount: 2
Fore
SplineSet
114 732 m 2
 114 740 116 742 123 742 c 2
 528 742 l 2
 533 742 535 740 535 735 c 2
 535 709 l 2
 535 703 533 702 527 702 c 2
 169 702 l 2
 162 702 160 701 160 693 c 2
 160 389 l 2
 160 383 162 382 169 382 c 2
 468 382 l 2
 473 382 475 380 475 375 c 2
 475 349 l 2
 475 343 473 342 467 342 c 2
 169 342 l 2
 162 342 160 341 160 333 c 2
 160 7 l 2
 160 2 158 0 153 0 c 2
 123 0 l 2
 116 0 114 2 114 10 c 2
 114 732 l 2
EndSplineSet
Validated: 1
EndChar

StartChar: G
Encoding: 71 71 61
Width: 730
GlyphClass: 2
Flags: MW
HStem: -10 42<292.5 428.5> 0 21G<613 617 617 634> 342 35<402 404 404 593> 710 42<293.5 427>
VStem: 78 48<263.5 479 263.5 491> 604 40<9 11 11 115 115 118 255 334 334 337.5>
AnchorPoint: "Anchor-5" 0 0 basechar 0
AnchorPoint: "Anchor-4" 374 742 basechar 0
AnchorPoint: "Anchor-3" 0 0 basechar 0
AnchorPoint: "Anchor-2" 379 0 basechar 0
LayerCount: 2
Fore
SplineSet
373 -10 m 0xbc
 188 -10 78 129 78 368 c 0
 78 614 193 752 374 752 c 0
 497 752 616 663 628 559 c 0
 628 555 628 552 623 551 c 2
 588 545 l 2
 585 544 582 546 581 551 c 0
 565 640 480 710 374 710 c 0
 213 710 126 584 126 374 c 0
 126 153 211 32 374 32 c 0xbc
 532 32 604 161 604 255 c 2
 604 334 l 2
 604 341 599 342 593 342 c 2
 404 342 l 2
 399 342 397 344 397 348 c 2
 397 371 l 2
 397 375 399 377 402 377 c 2
 638 377 l 2
 642 377 644 375 644 371 c 2
 644 11 l 2
 644 2 641 0 634 0 c 2
 617 0 l 2
 609 0 604 0 604 9 c 2x7c
 604 115 l 2
 604 121 600 122 596 115 c 0
 557 45 484 -10 373 -10 c 0xbc
EndSplineSet
Validated: 1
EndChar

StartChar: Gbreve
Encoding: 286 286 62
Width: 730
GlyphClass: 2
Flags: MW
HStem: -10 42<292.5 428.5> 0 21G<613 617 617 634> 342 35<402 404 404 593> 710 42<293.5 427> 862 41<347.5 395 347.5 412>
VStem: 78 48<263.5 479 263.5 491> 604 40<9 11 11 115 115 118 255 334 334 337.5>
AnchorPoint: "Anchor-5" 0 0 basechar 0
AnchorPoint: "Anchor-4" 372 920 basechar 0
AnchorPoint: "Anchor-3" 0 0 basechar 0
AnchorPoint: "Anchor-2" 379 0 basechar 0
LayerCount: 2
Fore
SplineSet
496 954 m 2xbe
 504 954 505 952 503 945 c 0
 494 913 452 862 372 862 c 4
 295 862 258 910 246 946 c 0
 245 949 244 954 250 954 c 2
 285 954 l 2
 291 954 293 952 297 947 c 0
 307 934 323 903 372 903 c 0
 418 903 441 929 452 948 c 0
 455 953 457 954 461 954 c 2
 496 954 l 2xbe
373 -10 m 0
 188 -10 78 129 78 368 c 0
 78 614 193 752 374 752 c 0
 497 752 616 663 628 559 c 0
 628 555 628 552 623 551 c 2
 588 545 l 2
 585 544 582 546 581 551 c 0
 565 640 480 710 374 710 c 0
 213 710 126 584 126 374 c 0
 126 153 211 32 374 32 c 0xbe
 532 32 604 161 604 255 c 2
 604 334 l 2
 604 341 599 342 593 342 c 2
 404 342 l 2
 399 342 397 344 397 348 c 2
 397 371 l 2
 397 375 399 377 402 377 c 2
 638 377 l 2
 642 377 644 375 644 371 c 2
 644 11 l 2
 644 2 641 0 634 0 c 2
 617 0 l 2
 609 0 604 0 604 9 c 2x7e
 604 115 l 2
 604 121 600 122 596 115 c 0
 557 45 484 -10 373 -10 c 0
EndSplineSet
Validated: 1
EndChar

StartChar: Gcircumflex
Encoding: 284 284 63
Width: 730
GlyphClass: 2
Flags: MW
HStem: -10 42<292.5 428.5> 0 21G<613 617 617 634> 342 35<402 404 404 593> 710 42<293.5 427> 916 38
VStem: 78 48<263.5 479 263.5 491> 604 40<9 11 11 115 115 118 255 334 334 337.5>
AnchorPoint: "Anchor-5" 0 0 basechar 0
AnchorPoint: "Anchor-4" 373 876 basechar 0
AnchorPoint: "Anchor-3" 0 0 basechar 0
AnchorPoint: "Anchor-2" 379 0 basechar 0
LayerCount: 2
Fore
SplineSet
442 862 m 2xbe
 383 910 l 2
 373 918 375 918 364 910 c 2
 302 862 l 2
 295 857 294 856 287 856 c 2
 250 856 l 2
 243 856 242 861 248 866 c 2
 347 945 l 2
 353 950 358 954 367 954 c 2
 385 954 l 2
 393 954 397 949 401 946 c 2
 499 866 l 2
 506 860 506 856 498 856 c 2
 457 856 l 2
 451 856 447 858 442 862 c 2xbe
373 -10 m 0
 188 -10 78 129 78 368 c 0
 78 614 193 752 374 752 c 0
 497 752 616 663 628 559 c 0
 628 555 628 552 623 551 c 2
 588 545 l 2
 585 544 582 546 581 551 c 0
 565 640 480 710 374 710 c 0
 213 710 126 584 126 374 c 0
 126 153 211 32 374 32 c 0xbe
 532 32 604 161 604 255 c 2
 604 334 l 2
 604 341 599 342 593 342 c 2
 404 342 l 2
 399 342 397 344 397 348 c 2
 397 371 l 2
 397 375 399 377 402 377 c 2
 638 377 l 2
 642 377 644 375 644 371 c 2
 644 11 l 2
 644 2 641 0 634 0 c 2
 617 0 l 2
 609 0 604 0 604 9 c 2x7e
 604 115 l 2
 604 121 600 122 596 115 c 0
 557 45 484 -10 373 -10 c 0
EndSplineSet
Validated: 1
EndChar

StartChar: Gcommaaccent
Encoding: 290 290 64
Width: 730
GlyphClass: 2
Flags: MW
HStem: -165 83<360 361 361 369 360 411> -10 42<292.5 428.5> 0 21G<613 617 617 634> 342 35<402 404 404 593> 710 42<293.5 427>
VStem: 78 48<263.5 479 263.5 491> 353 58<-156 -90 -90 -89> 604 40<9 11 11 115 115 118 255 334 334 337.5>
AnchorPoint: "Anchor-5" 0 0 basechar 0
AnchorPoint: "Anchor-4" 374 742 basechar 0
AnchorPoint: "Anchor-3" 0 0 basechar 0
AnchorPoint: "Anchor-2" 379 0 basechar 0
LayerCount: 2
Fore
SplineSet
373 -10 m 0xdf
 188 -10 78 129 78 368 c 0
 78 614 193 752 374 752 c 0
 497 752 616 663 628 559 c 0
 628 555 628 552 623 551 c 2
 588 545 l 2
 585 544 582 546 581 551 c 0
 565 640 480 710 374 710 c 0
 213 710 126 584 126 374 c 0
 126 153 211 32 374 32 c 0xdf
 532 32 604 161 604 255 c 2
 604 334 l 2
 604 341 599 342 593 342 c 2
 404 342 l 2
 399 342 397 344 397 348 c 2
 397 371 l 2
 397 375 399 377 402 377 c 2
 638 377 l 2
 642 377 644 375 644 371 c 2
 644 11 l 2
 644 2 641 0 634 0 c 2
 617 0 l 2
 609 0 604 0 604 9 c 2xbf
 604 115 l 2
 604 121 600 122 596 115 c 0
 557 45 484 -10 373 -10 c 0xdf
352 -236 m 2
 348 -236 346 -232 348 -228 c 2
 373 -174 l 2
 376 -168 374 -165 369 -165 c 2
 361 -165 l 2
 355 -165 353 -163 353 -156 c 2
 353 -90 l 2
 353 -84 356 -82 360 -82 c 2
 405 -82 l 2
 409 -82 411 -84 411 -89 c 2
 411 -165 l 2
 411 -167 410 -170 410 -171 c 2
 379 -230 l 2
 376 -235 373 -236 365 -236 c 2
 352 -236 l 2
EndSplineSet
Validated: 1
EndChar

StartChar: Gdotaccent
Encoding: 288 288 65
Width: 730
GlyphClass: 2
Flags: MW
HStem: -10 42<292.5 428.5> 0 21G<613 617 617 634> 342 35<402 404 404 593> 710 42<293.5 427> 856 98<358 360 360 387>
VStem: 78 48<263.5 479 263.5 491> 349 50<866 868 868 944> 604 40<9 11 11 115 115 118 255 334 334 337.5>
AnchorPoint: "Anchor-5" 0 0 basechar 0
AnchorPoint: "Anchor-4" 374 742 basechar 0
AnchorPoint: "Anchor-3" 0 0 basechar 0
AnchorPoint: "Anchor-2" 379 0 basechar 0
LayerCount: 2
Fore
SplineSet
399 944 m 2xbf
 399 868 l 2
 399 858 397 856 387 856 c 2
 360 856 l 2
 351 856 349 858 349 866 c 2
 349 944 l 2
 349 952 351 954 358 954 c 2
 390 954 l 2
 397 954 399 952 399 944 c 2xbf
373 -10 m 0
 188 -10 78 129 78 368 c 0
 78 614 193 752 374 752 c 0
 497 752 616 663 628 559 c 0
 628 555 628 552 623 551 c 2
 588 545 l 2
 585 544 582 546 581 551 c 0
 565 640 480 710 374 710 c 0
 213 710 126 584 126 374 c 0
 126 153 211 32 374 32 c 0xbf
 532 32 604 161 604 255 c 2
 604 334 l 2
 604 341 599 342 593 342 c 2
 404 342 l 2
 399 342 397 344 397 348 c 2
 397 371 l 2
 397 375 399 377 402 377 c 2
 638 377 l 2
 642 377 644 375 644 371 c 2
 644 11 l 2
 644 2 641 0 634 0 c 2
 617 0 l 2
 609 0 604 0 604 9 c 2x7f
 604 115 l 2
 604 121 600 122 596 115 c 0
 557 45 484 -10 373 -10 c 0
EndSplineSet
Validated: 1
EndChar

StartChar: H
Encoding: 72 72 66
Width: 725
GlyphClass: 2
Flags: MW
HStem: 0 21G<119.5 123 123 150 571.5 575 575 602> 366 40<164 557 169 557 557 558> 722 20G<123 151 151 154.5 573 602 602 605.5>
VStem: 114 46<10 360 411 415 415 732> 565 46<9 10 10 359 359 361.5 414 732>
AnchorPoint: "Anchor-5" 0 0 basechar 0
AnchorPoint: "Anchor-4" 363 742 basechar 0
AnchorPoint: "Anchor-3" 0 0 basechar 0
AnchorPoint: "Anchor-2" 363 0 basechar 0
LayerCount: 2
Fore
SplineSet
558 366 m 6
 166 366 l 6
 162 366 160 363 160 360 c 6
 160 9 l 6
 160 3 157 0 150 0 c 6
 123 0 l 6
 116 0 114 3 114 10 c 6
 114 732 l 6
 114 740 116 742 123 742 c 6
 151 742 l 6
 158 742 160 740 160 732 c 6
 160 415 l 6
 160 407 162 406 169 406 c 6
 557 406 l 6
 563 406 565 408 565 414 c 6
 565 733 l 6
 565 739 567 742 573 742 c 6
 602 742 l 6
 609 742 611 740 611 732 c 6
 611 10 l 6
 611 3 608 0 602 0 c 6
 575 0 l 6
 568 0 565 2 565 9 c 6
 565 359 l 6
 565 364 563 366 558 366 c 6
EndSplineSet
Validated: 1
EndChar

StartChar: Hbar
Encoding: 294 294 67
Width: 707
GlyphClass: 2
Flags: MW
HStem: 0 21G<118.5 122 122 149 570.5 574 574 601> 366 40<163 556 168 556 556 557> 578 40<12 15 15 113 159 564 610 689> 578 164<11 150 15 150 122 159 122 564>
VStem: 113 46<10 360 411 415 415 578 618 732> 564 46<9 10 10 359 359 361.5 414 578 618 732>
AnchorPoint: "Anchor-5" 0 0 basechar 0
AnchorPoint: "Anchor-4" 362 742 basechar 0
AnchorPoint: "Anchor-3" 0 0 basechar 0
AnchorPoint: "Anchor-2" 362 0 basechar 0
LayerCount: 2
Fore
SplineSet
695 618 m 2xec
 700 618 702 615 702 610 c 2
 702 589 l 2
 702 581 698 578 689 578 c 2
 610 578 l 1
 610 10 l 2
 610 3 607 0 601 0 c 2
 574 0 l 2
 567 0 564 2 564 9 c 2
 564 359 l 2
 564 364 562 366 557 366 c 2
 165 366 l 2
 161 366 159 363 159 360 c 2
 159 9 l 2
 159 3 156 0 149 0 c 2
 122 0 l 2
 115 0 113 3 113 10 c 2
 113 578 l 1
 15 578 l 2
 7 578 5 581 5 588 c 2
 5 609 l 2
 5 615 7 618 12 618 c 2
 113 618 l 1xec
 113 732 l 2
 113 740 115 742 122 742 c 2
 150 742 l 2
 157 742 159 740 159 732 c 2xdc
 159 618 l 1
 564 618 l 1xec
 564 733 l 2
 564 739 566 742 572 742 c 2
 601 742 l 2
 608 742 610 740 610 732 c 2xdc
 610 618 l 1
 695 618 l 2xec
564 414 m 2
 564 578 l 1
 159 578 l 1
 159 415 l 2
 159 407 161 406 168 406 c 2
 556 406 l 2
 562 406 564 408 564 414 c 2
EndSplineSet
Validated: 1
EndChar

StartChar: Hcircumflex
Encoding: 292 292 68
Width: 725
GlyphClass: 2
Flags: MW
HStem: 0 21G<119.5 123 123 150 571.5 575 575 602> 366 40<164 557 169 557 557 558> 722 20G<123 151 151 154.5 573 602 602 605.5> 916 38
VStem: 114 46<10 360 411 415 415 732> 565 46<9 10 10 359 359 361.5 414 732>
AnchorPoint: "Anchor-5" 0 0 basechar 0
AnchorPoint: "Anchor-4" 362 876 basechar 0
AnchorPoint: "Anchor-3" 0 0 basechar 0
AnchorPoint: "Anchor-2" 363 0 basechar 0
LayerCount: 2
Fore
SplineSet
431 862 m 2
 372 910 l 2
 362 918 364 918 353 910 c 2
 291 862 l 2
 284 857 283 856 276 856 c 2
 239 856 l 2
 232 856 231 861 237 866 c 2
 336 945 l 2
 342 950 347 954 356 954 c 2
 374 954 l 2
 382 954 386 949 390 946 c 2
 488 866 l 2
 495 860 495 856 487 856 c 2
 446 856 l 2
 440 856 436 858 431 862 c 2
558 366 m 2
 166 366 l 2
 162 366 160 363 160 360 c 2
 160 9 l 2
 160 3 157 0 150 0 c 2
 123 0 l 2
 116 0 114 3 114 10 c 2
 114 732 l 2
 114 740 116 742 123 742 c 2
 151 742 l 2
 158 742 160 740 160 732 c 2
 160 415 l 2
 160 407 162 406 169 406 c 2
 557 406 l 2
 563 406 565 408 565 414 c 2
 565 733 l 2
 565 739 567 742 573 742 c 2
 602 742 l 2
 609 742 611 740 611 732 c 2
 611 10 l 2
 611 3 608 0 602 0 c 2
 575 0 l 2
 568 0 565 2 565 9 c 2
 565 359 l 2
 565 364 563 366 558 366 c 2
EndSplineSet
Validated: 1
EndChar

StartChar: uni1E24
Encoding: 7716 7716 69
Width: 725
GlyphClass: 2
Flags: MW
HStem: -165 103<346 348 348 377> 0 21G<119.5 123 123 150 571.5 575 575 602> 366 40<164 557 169 557 557 558> 722 20G<123 151 151 154.5 573 602 602 605.5>
VStem: 114 46<10 360 411 415 415 732> 337 52<-155 -153 -153 -72> 565 46<9 10 10 359 359 361.5 414 732>
AnchorPoint: "Anchor-5" 0 0 basechar 0
AnchorPoint: "Anchor-4" 363 742 basechar 0
AnchorPoint: "Anchor-3" 0 0 basechar 0
AnchorPoint: "Anchor-2" 363 0 basechar 0
LayerCount: 2
Fore
SplineSet
558 366 m 2
 166 366 l 2
 162 366 160 363 160 360 c 2
 160 9 l 2
 160 3 157 0 150 0 c 2
 123 0 l 2
 116 0 114 3 114 10 c 2
 114 732 l 2
 114 740 116 742 123 742 c 2
 151 742 l 2
 158 742 160 740 160 732 c 2
 160 415 l 2
 160 407 162 406 169 406 c 2
 557 406 l 2
 563 406 565 408 565 414 c 2
 565 733 l 2
 565 739 567 742 573 742 c 2
 602 742 l 2
 609 742 611 740 611 732 c 2
 611 10 l 2
 611 3 608 0 602 0 c 2
 575 0 l 2
 568 0 565 2 565 9 c 2
 565 359 l 2
 565 364 563 366 558 366 c 2
389 -72 m 2
 389 -153 l 2
 389 -163 387 -165 377 -165 c 2
 348 -165 l 2
 339 -165 337 -163 337 -155 c 2
 337 -72 l 2
 337 -64 339 -62 346 -62 c 2
 380 -62 l 2
 387 -62 389 -64 389 -72 c 2
EndSplineSet
Validated: 1
EndChar

StartChar: I
Encoding: 73 73 70
Width: 274
GlyphClass: 2
Flags: MW
HStem: 0 21G<120.5 125 125 148> 722 20G<123 151 151 154.5>
VStem: 114 46<10 12 12 732>
AnchorPoint: "Anchor-5" 0 0 basechar 0
AnchorPoint: "Anchor-4" 140 742 basechar 0
AnchorPoint: "Anchor-3" 149 10 basechar 0
AnchorPoint: "Anchor-2" 137 0 basechar 0
LayerCount: 2
Fore
SplineSet
123 742 m 6
 151 742 l 6
 158 742 160 740 160 732 c 6
 160 12 l 6
 160 2 158 0 148 0 c 6
 125 0 l 6
 116 0 114 2 114 10 c 6
 114 732 l 6
 114 740 116 742 123 742 c 6
EndSplineSet
Validated: 1
EndChar

StartChar: Iacute
Encoding: 205 205 71
Width: 274
GlyphClass: 2
Flags: MW
HStem: 0 21G<120.5 125 125 148> 722 20G<123 151 151 154.5>
VStem: 114 46<10 12 12 732>
AnchorPoint: "Anchor-5" 0 0 basechar 0
AnchorPoint: "Anchor-4" 140 742 basechar 0
AnchorPoint: "Anchor-3" 149 10 basechar 0
AnchorPoint: "Anchor-2" 137 0 basechar 0
LayerCount: 2
Fore
SplineSet
259 964 m 2
 269 932 l 2
 271 926 270 923 262 920 c 2
 35 846 l 2
 29 844 26 845 24 851 c 2
 19 866 l 2
 17 871 19 875 22 876 c 2
 251 967 l 2
 254 968 258 967 259 964 c 2
123 742 m 2
 151 742 l 2
 158 742 160 740 160 732 c 2
 160 12 l 2
 160 2 158 0 148 0 c 2
 125 0 l 2
 116 0 114 2 114 10 c 2
 114 732 l 2
 114 740 116 742 123 742 c 2
EndSplineSet
Validated: 1
EndChar

StartChar: Ibreve
Encoding: 300 300 72
Width: 274
GlyphClass: 2
Flags: MW
HStem: 0 21G<120.5 125 125 148> 722 20G<123 151 151 154.5> 862 41<113.5 161 113.5 178>
VStem: 114 46<10 12 12 732>
AnchorPoint: "Anchor-5" 0 0 basechar 0
AnchorPoint: "Anchor-4" 138 920 basechar 0
AnchorPoint: "Anchor-3" 149 10 basechar 0
AnchorPoint: "Anchor-2" 137 0 basechar 0
LayerCount: 2
Fore
SplineSet
262 954 m 2
 270 954 271 952 269 945 c 0
 260 913 218 862 138 862 c 0
 61 862 24 910 12 946 c 0
 11 949 10 954 16 954 c 2
 51 954 l 2
 57 954 59 952 63 947 c 0
 73 934 89 903 138 903 c 0
 184 903 207 929 218 948 c 0
 221 953 223 954 227 954 c 2
 262 954 l 2
123 742 m 2
 151 742 l 2
 158 742 160 740 160 732 c 2
 160 12 l 2
 160 2 158 0 148 0 c 2
 125 0 l 2
 116 0 114 2 114 10 c 2
 114 732 l 2
 114 740 116 742 123 742 c 2
EndSplineSet
Validated: 1
EndChar

StartChar: Icircumflex
Encoding: 206 206 73
Width: 274
GlyphClass: 2
Flags: MW
HStem: 0 21G<120.5 125 125 148> 722 20G<123 151 151 154.5> 916 38
VStem: 114 46<10 12 12 732>
AnchorPoint: "Anchor-5" 0 0 basechar 0
AnchorPoint: "Anchor-4" 139 876 basechar 0
AnchorPoint: "Anchor-3" 149 10 basechar 0
AnchorPoint: "Anchor-2" 137 0 basechar 0
LayerCount: 2
Fore
SplineSet
208 862 m 2
 149 910 l 2
 139 918 141 918 130 910 c 2
 68 862 l 2
 61 857 60 856 53 856 c 2
 16 856 l 2
 9 856 8 861 14 866 c 2
 113 945 l 2
 119 950 124 954 133 954 c 2
 151 954 l 2
 159 954 163 949 167 946 c 2
 265 866 l 2
 272 860 272 856 264 856 c 2
 223 856 l 2
 217 856 213 858 208 862 c 2
123 742 m 2
 151 742 l 2
 158 742 160 740 160 732 c 2
 160 12 l 2
 160 2 158 0 148 0 c 2
 125 0 l 2
 116 0 114 2 114 10 c 2
 114 732 l 2
 114 740 116 742 123 742 c 2
EndSplineSet
Validated: 1
EndChar

StartChar: uni0208
Encoding: 520 520 74
Width: 274
GlyphClass: 2
Flags: MW
HStem: 0 21G<120.5 125 125 148> 722 20G<123 151 151 154.5>
VStem: 114 46<10 12 12 732>
AnchorPoint: "Anchor-5" 0 0 basechar 0
AnchorPoint: "Anchor-4" 140 742 basechar 0
AnchorPoint: "Anchor-3" 149 10 basechar 0
AnchorPoint: "Anchor-2" 137 0 basechar 0
LayerCount: 2
Fore
SplineSet
-30 959 m 2
 -28 961 -24 962 -21 959 c 2
 96 826 l 2
 98 824 100 820 96 816 c 2
 87 803 l 2
 84 798 80 798 75 802 c 2
 -49 919 l 2
 -56 925 -56 927 -52 932 c 2
 -30 959 l 2
110 959 m 2
 112 961 116 962 119 959 c 2
 236 826 l 2
 238 824 240 820 236 816 c 2
 227 803 l 2
 224 798 220 798 215 802 c 2
 91 919 l 2
 84 925 84 927 88 932 c 2
 110 959 l 2
123 742 m 2
 151 742 l 2
 158 742 160 740 160 732 c 2
 160 12 l 2
 160 2 158 0 148 0 c 2
 125 0 l 2
 116 0 114 2 114 10 c 2
 114 732 l 2
 114 740 116 742 123 742 c 2
EndSplineSet
Validated: 1
EndChar

StartChar: Idieresis
Encoding: 207 207 75
Width: 274
GlyphClass: 2
Flags: MW
HStem: 0 21G<120.5 125 125 148> 722 20G<123 151 151 154.5> 856 98<68 70 70 97 179 181 181 208>
VStem: 59 50<866 868 868 944> 114 46<10 12 12 732> 170 50<866 868 868 944>
AnchorPoint: "Anchor-5" 0 0 basechar 0
AnchorPoint: "Anchor-4" 140 742 basechar 0
AnchorPoint: "Anchor-3" 149 10 basechar 0
AnchorPoint: "Anchor-2" 137 0 basechar 0
LayerCount: 2
Fore
SplineSet
109 944 m 2
 109 868 l 2
 109 858 107 856 97 856 c 2
 70 856 l 2
 61 856 59 858 59 866 c 2
 59 944 l 2
 59 952 61 954 68 954 c 2
 100 954 l 2
 107 954 109 952 109 944 c 2
220 944 m 2
 220 868 l 2
 220 858 218 856 208 856 c 2
 181 856 l 2
 172 856 170 858 170 866 c 2
 170 944 l 2
 170 952 172 954 179 954 c 2
 211 954 l 2
 218 954 220 952 220 944 c 2
123 742 m 2xe8
 151 742 l 2
 158 742 160 740 160 732 c 2
 160 12 l 2
 160 2 158 0 148 0 c 2
 125 0 l 2
 116 0 114 2 114 10 c 2
 114 732 l 2
 114 740 116 742 123 742 c 2xe8
EndSplineSet
Validated: 1
EndChar

StartChar: Idotaccent
Encoding: 304 304 76
Width: 274
GlyphClass: 2
Flags: MW
HStem: 0 21G<120.5 125 125 148> 722 20G<123 151 151 154.5> 856 98<124 126 126 153>
VStem: 114 46<10 12 12 732> 115 50<866 868 868 944>
AnchorPoint: "Anchor-5" 0 0 basechar 0
AnchorPoint: "Anchor-4" 140 742 basechar 0
AnchorPoint: "Anchor-3" 149 10 basechar 0
AnchorPoint: "Anchor-2" 137 0 basechar 0
LayerCount: 2
Fore
SplineSet
165 944 m 2xe8
 165 868 l 2
 165 858 163 856 153 856 c 2
 126 856 l 2
 117 856 115 858 115 866 c 2
 115 944 l 2
 115 952 117 954 124 954 c 2
 156 954 l 2
 163 954 165 952 165 944 c 2xe8
123 742 m 2xf0
 151 742 l 2
 158 742 160 740 160 732 c 2
 160 12 l 2
 160 2 158 0 148 0 c 2
 125 0 l 2
 116 0 114 2 114 10 c 2
 114 732 l 2
 114 740 116 742 123 742 c 2xf0
EndSplineSet
Validated: 1
EndChar

StartChar: uni1ECA
Encoding: 7882 7882 77
Width: 274
GlyphClass: 2
Flags: MW
HStem: -165 103<120 122 122 151> 0 21G<120.5 125 125 148> 722 20G<123 151 151 154.5>
VStem: 111 52<-155 -153 -153 -72> 114 46<10 12 12 732>
AnchorPoint: "Anchor-5" 0 0 basechar 0
AnchorPoint: "Anchor-4" 140 742 basechar 0
AnchorPoint: "Anchor-3" 149 10 basechar 0
AnchorPoint: "Anchor-2" 137 0 basechar 0
LayerCount: 2
Fore
SplineSet
123 742 m 2xe8
 151 742 l 2
 158 742 160 740 160 732 c 2
 160 12 l 2
 160 2 158 0 148 0 c 2
 125 0 l 2
 116 0 114 2 114 10 c 2
 114 732 l 2
 114 740 116 742 123 742 c 2xe8
163 -72 m 2xf0
 163 -153 l 2
 163 -163 161 -165 151 -165 c 2
 122 -165 l 2
 113 -165 111 -163 111 -155 c 2
 111 -72 l 2
 111 -64 113 -62 120 -62 c 2
 154 -62 l 2
 161 -62 163 -64 163 -72 c 2xf0
EndSplineSet
Validated: 1
EndChar

StartChar: Igrave
Encoding: 204 204 78
Width: 274
GlyphClass: 2
Flags: MW
HStem: 0 21G<120.5 125 125 148> 722 20G<123 151 151 154.5>
VStem: 114 46<10 12 12 732>
AnchorPoint: "Anchor-5" 0 0 basechar 0
AnchorPoint: "Anchor-4" 140 742 basechar 0
AnchorPoint: "Anchor-3" 149 10 basechar 0
AnchorPoint: "Anchor-2" 137 0 basechar 0
LayerCount: 2
Fore
SplineSet
32 960 m 2
 33 963 37 964 40 963 c 2
 269 872 l 2
 272 871 274 867 272 862 c 2
 267 847 l 2
 265 841 262 840 256 842 c 2
 29 916 l 2
 21 919 20 922 22 928 c 2
 32 960 l 2
123 742 m 2
 151 742 l 2
 158 742 160 740 160 732 c 2
 160 12 l 2
 160 2 158 0 148 0 c 2
 125 0 l 2
 116 0 114 2 114 10 c 2
 114 732 l 2
 114 740 116 742 123 742 c 2
EndSplineSet
Validated: 1
EndChar

StartChar: uni1EC8
Encoding: 7880 7880 79
Width: 274
GlyphClass: 2
Flags: HMW
HStem: 0 21G<120.5 125 125 148> 722 20G<123 151 151 154.5>
VStem: 114 46<10 12 12 732>
AnchorPoint: "Anchor-5" 0 0 basechar 0
AnchorPoint: "Anchor-4" 140 742 basechar 0
AnchorPoint: "Anchor-3" 149 10 basechar 0
AnchorPoint: "Anchor-2" 137 0 basechar 0
LayerCount: 2
Fore
SplineSet
61 945 m 0
 80 957 107 967 127 967 c 0
 170 967 198 942 198 902 c 0
 198 871 173 842 142 811 c 0
 140 809 138 810 136 812 c 2
 122 829 l 2
 120 831 121 834 123 836 c 0
 147 860 166 883 166 900 c 0
 166 925 149 933 124 933 c 0
 107 933 91 924 74 913 c 0
 71 911 70 913 69 915 c 2
 59 938 l 2
 57 942 58 943 61 945 c 0
123 742 m 2
 151 742 l 2
 158 742 160 740 160 732 c 2
 160 12 l 2
 160 2 158 0 148 0 c 2
 125 0 l 2
 116 0 114 2 114 10 c 2
 114 732 l 2
 114 740 116 742 123 742 c 2
EndSplineSet
Validated: 1
EndChar

StartChar: uni020A
Encoding: 522 522 80
Width: 274
GlyphClass: 2
Flags: MW
HStem: 0 21G<120.5 125 125 148> 722 20G<123 151 151 154.5> 921 41<112.5 160>
VStem: 114 46<10 12 12 732>
AnchorPoint: "Anchor-5" 0 0 basechar 0
AnchorPoint: "Anchor-4" 137 904 basechar 0
AnchorPoint: "Anchor-3" 149 10 basechar 0
AnchorPoint: "Anchor-2" 137 0 basechar 0
LayerCount: 2
Fore
SplineSet
261 870 m 2
 226 870 l 2
 222 870 220 871 217 876 c 0
 206 895 183 921 137 921 c 0
 88 921 72 890 62 877 c 0
 58 872 56 870 50 870 c 2
 15 870 l 2
 9 870 10 875 11 878 c 0
 23 914 60 962 137 962 c 0
 217 962 259 911 268 879 c 0
 270 872 269 870 261 870 c 2
123 742 m 2
 151 742 l 2
 158 742 160 740 160 732 c 2
 160 12 l 2
 160 2 158 0 148 0 c 2
 125 0 l 2
 116 0 114 2 114 10 c 2
 114 732 l 2
 114 740 116 742 123 742 c 2
EndSplineSet
Validated: 1
EndChar

StartChar: Imacron
Encoding: 298 298 81
Width: 274
GlyphClass: 2
Flags: MW
HStem: 0 21G<120.5 125 125 148> 722 20G<123 151 151 154.5> 896 38<19 21 21 256>
VStem: 114 46<10 12 12 732>
AnchorPoint: "Anchor-5" 0 0 basechar 0
AnchorPoint: "Anchor-4" 140 742 basechar 0
AnchorPoint: "Anchor-3" 149 10 basechar 0
AnchorPoint: "Anchor-2" 137 0 basechar 0
LayerCount: 2
Fore
SplineSet
266 928 m 2
 266 904 l 2
 266 899 264 896 256 896 c 2
 21 896 l 2
 15 896 14 899 14 904 c 2
 14 927 l 2
 14 931 16 934 19 934 c 2
 261 934 l 2
 264 934 266 931 266 928 c 2
123 742 m 2
 151 742 l 2
 158 742 160 740 160 732 c 2
 160 12 l 2
 160 2 158 0 148 0 c 2
 125 0 l 2
 116 0 114 2 114 10 c 2
 114 732 l 2
 114 740 116 742 123 742 c 2
EndSplineSet
Validated: 1
EndChar

StartChar: Iogonek
Encoding: 302 302 82
Width: 274
GlyphClass: 2
Flags: MW
HStem: -169 34<92.5 119> 722 20G<123 151 151 154.5>
VStem: 11 44<-107 -73.5 -107 -69.5> 114 46<9 10 10 12 12 732>
AnchorPoint: "Anchor-5" 0 0 basechar 0
AnchorPoint: "Anchor-4" 140 742 basechar 0
AnchorPoint: "Anchor-3" 149 10 basechar 0
AnchorPoint: "Anchor-2" 137 0 basechar 0
LayerCount: 2
Fore
SplineSet
178 -123 m 0
 184 -120 186 -121 186 -126 c 2
 186 -146 l 2
 186 -151 185 -152 181 -154 c 0
 166 -161 135 -169 103 -169 c 0
 39 -169 11 -136 11 -91 c 0
 11 -48 36 -16 114 8 c 1
 114 10 l 1
 114 732 l 2
 114 740 116 742 123 742 c 2
 151 742 l 2
 158 742 160 740 160 732 c 2
 160 12 l 2
 160 6 159 2 156 1 c 0
 89 -30 55 -54 55 -93 c 0
 55 -121 72 -135 113 -135 c 0
 144 -135 170 -127 178 -123 c 0
EndSplineSet
Validated: 1
EndChar

StartChar: Itilde
Encoding: 296 296 83
Width: 274
GlyphClass: 2
Flags: MW
HStem: 0 21G<120.5 125 125 148> 722 20G<123 151 151 154.5> 885 33<177 210 177 216> 909 34<69 102 65 104.5>
VStem: 114 46<10 12 12 732>
AnchorPoint: "Anchor-5" 0 0 basechar 0
AnchorPoint: "Anchor-4" 140 742 basechar 0
AnchorPoint: "Anchor-3" 149 10 basechar 0
AnchorPoint: "Anchor-2" 137 0 basechar 0
LayerCount: 2
Fore
SplineSet
265 904 m 0xe8
 252 896 234 885 198 885 c 0xe8
 146 885 125 909 84 909 c 0
 54 909 41 896 28 889 c 0
 22 886 20 886 17 893 c 2
 10 909 l 2
 8 914 9 915 12 917 c 0
 32 931 50 943 80 943 c 0xd8
 124 943 155 918 199 918 c 0
 221 918 232 924 249 934 c 0
 256 938 259 937 262 931 c 2
 270 913 l 2
 272 909 271 908 265 904 c 0xe8
123 742 m 2
 151 742 l 2
 158 742 160 740 160 732 c 2
 160 12 l 2
 160 2 158 0 148 0 c 2
 125 0 l 2
 116 0 114 2 114 10 c 2
 114 732 l 2
 114 740 116 742 123 742 c 2
EndSplineSet
Validated: 1
EndChar

StartChar: J
Encoding: 74 74 84
Width: 399
GlyphClass: 2
Flags: MW
HStem: -10 44<131.5 188.5 131.5 206.5> 722 20G<251 281 281 284>
VStem: 243 46<154 732>
AnchorPoint: "Anchor-5" 0 0 basechar 0
AnchorPoint: "Anchor-4" 266 742 basechar 0
AnchorPoint: "Anchor-3" 0 0 basechar 0
AnchorPoint: "Anchor-2" 0 0 basechar 0
LayerCount: 2
Fore
SplineSet
289 144 m 2
 289 49 255 -10 158 -10 c 0
 103 -10 58 10 51 15 c 0
 48 17 46 20 47 24 c 2
 56 55 l 2
 57 60 60 61 64 59 c 0
 85 49 107 34 156 34 c 0
 221 34 243 61 243 154 c 2
 243 733 l 2
 243 739 245 742 251 742 c 2
 281 742 l 2
 287 742 289 739 289 732 c 2
 289 144 l 2
EndSplineSet
Validated: 1
EndChar

StartChar: Jcircumflex
Encoding: 308 308 85
Width: 399
GlyphClass: 2
Flags: MW
HStem: -10 44<131.5 188.5 131.5 206.5> 722 20G<251 281 281 284> 916 38
VStem: 243 46<154 732>
AnchorPoint: "Anchor-5" 0 0 basechar 0
AnchorPoint: "Anchor-4" 265 876 basechar 0
AnchorPoint: "Anchor-3" 0 0 basechar 0
AnchorPoint: "Anchor-2" 0 0 basechar 0
LayerCount: 2
Fore
SplineSet
334 862 m 2
 275 910 l 2
 265 918 267 918 256 910 c 2
 194 862 l 2
 187 857 186 856 179 856 c 2
 142 856 l 2
 135 856 134 861 140 866 c 2
 239 945 l 2
 245 950 250 954 259 954 c 2
 277 954 l 2
 285 954 289 949 293 946 c 2
 391 866 l 2
 398 860 398 856 390 856 c 2
 349 856 l 2
 343 856 339 858 334 862 c 2
289 144 m 2
 289 49 255 -10 158 -10 c 0
 103 -10 58 10 51 15 c 0
 48 17 46 20 47 24 c 2
 56 55 l 2
 57 60 60 61 64 59 c 0
 85 49 107 34 156 34 c 0
 221 34 243 61 243 154 c 2
 243 733 l 2
 243 739 245 742 251 742 c 2
 281 742 l 2
 287 742 289 739 289 732 c 2
 289 144 l 2
EndSplineSet
Validated: 1
EndChar

StartChar: K
Encoding: 75 75 86
Width: 674
GlyphClass: 2
Flags: MW
HStem: 0 21G<120.5 124 124 150 578.5 581 581 620> 722 20G<122 152 152 154.5 561 599 599 602>
VStem: 114 46<9 246 320 323 323 734>
AnchorPoint: "Anchor-5" 0 0 basechar 0
AnchorPoint: "Anchor-4" 373 742 basechar 0
AnchorPoint: "Anchor-3" 0 0 basechar 0
AnchorPoint: "Anchor-2" 343 0 basechar 0
LayerCount: 2
Fore
SplineSet
623 7 m 2
 626 3 624 0 620 0 c 2
 581 0 l 2
 576 0 572 2 570 5 c 2
 312 409 l 2
 308 415 305 414 300 409 c 2
 168 263 l 2
 162 257 160 254 160 246 c 2
 160 9 l 2
 160 3 157 0 150 0 c 2
 124 0 l 2
 117 0 114 2 114 9 c 2
 114 734 l 2
 114 739 116 742 122 742 c 2
 152 742 l 2
 157 742 160 740 160 734 c 2
 160 323 l 2
 160 317 162 317 167 322 c 2
 550 738 l 2
 553 741 555 742 561 742 c 2
 599 742 l 2
 605 742 606 738 602 734 c 2
 343 451 l 2
 341 449 341 449 343 445 c 2
 623 7 l 2
EndSplineSet
Validated: 1
EndChar

StartChar: Kcommaaccent
Encoding: 310 310 87
Width: 674
GlyphClass: 2
Flags: MW
HStem: -165 83<324 325 325 333 324 375> 0 21G<120.5 124 124 150 578.5 581 581 620> 722 20G<122 152 152 154.5 561 599 599 602>
VStem: 114 46<9 246 320 323 323 734> 317 58<-156 -90 -90 -89>
AnchorPoint: "Anchor-5" 0 0 basechar 0
AnchorPoint: "Anchor-4" 373 742 basechar 0
AnchorPoint: "Anchor-3" 0 0 basechar 0
AnchorPoint: "Anchor-2" 343 0 basechar 0
LayerCount: 2
Fore
SplineSet
623 7 m 2
 626 3 624 0 620 0 c 2
 581 0 l 2
 576 0 572 2 570 5 c 2
 312 409 l 2
 308 415 305 414 300 409 c 2
 168 263 l 2
 162 257 160 254 160 246 c 2
 160 9 l 2
 160 3 157 0 150 0 c 2
 124 0 l 2
 117 0 114 2 114 9 c 2
 114 734 l 2
 114 739 116 742 122 742 c 2
 152 742 l 2
 157 742 160 740 160 734 c 2
 160 323 l 2
 160 317 162 317 167 322 c 2
 550 738 l 2
 553 741 555 742 561 742 c 2
 599 742 l 2
 605 742 606 738 602 734 c 2
 343 451 l 2
 341 449 341 449 343 445 c 2
 623 7 l 2
316 -236 m 2
 312 -236 310 -232 312 -228 c 2
 337 -174 l 2
 340 -168 338 -165 333 -165 c 2
 325 -165 l 2
 319 -165 317 -163 317 -156 c 2
 317 -90 l 2
 317 -84 320 -82 324 -82 c 2
 369 -82 l 2
 373 -82 375 -84 375 -89 c 2
 375 -165 l 2
 375 -167 374 -170 374 -171 c 2
 343 -230 l 2
 340 -235 337 -236 329 -236 c 2
 316 -236 l 2
EndSplineSet
Validated: 1
EndChar

StartChar: L
Encoding: 76 76 88
Width: 587
GlyphClass: 2
Flags: MW
HStem: 0 40<169 532 532 533> 722 20G<123 151 151 154.5>
VStem: 114 46<45 49 49 732>
AnchorPoint: "Anchor-5" 423 742 basechar 0
AnchorPoint: "Anchor-4" 137 742 basechar 0
AnchorPoint: "Anchor-3" 0 0 basechar 0
AnchorPoint: "Anchor-2" 319 0 basechar 0
LayerCount: 2
Fore
SplineSet
114 732 m 2
 114 740 116 742 123 742 c 2
 151 742 l 2
 158 742 160 740 160 732 c 2
 160 49 l 2
 160 41 162 40 169 40 c 2
 532 40 l 2
 538 40 540 39 540 33 c 2
 540 7 l 2
 540 2 538 0 533 0 c 2
 123 0 l 2
 116 0 114 3 114 10 c 2
 114 732 l 2
EndSplineSet
Validated: 1
EndChar

StartChar: Lacute
Encoding: 313 313 89
Width: 587
GlyphClass: 2
Flags: MW
HStem: 0 40<169 532 532 533> 722 20G<123 151 151 154.5>
VStem: 114 46<45 49 49 732>
AnchorPoint: "Anchor-5" 423 742 basechar 0
AnchorPoint: "Anchor-4" 137 742 basechar 0
AnchorPoint: "Anchor-3" 0 0 basechar 0
AnchorPoint: "Anchor-2" 319 0 basechar 0
LayerCount: 2
Fore
SplineSet
257 964 m 2
 267 932 l 2
 269 926 268 923 260 920 c 2
 33 846 l 2
 27 844 24 845 22 851 c 2
 17 866 l 2
 15 871 17 875 20 876 c 2
 249 967 l 2
 252 968 256 967 257 964 c 2
114 732 m 2
 114 740 116 742 123 742 c 2
 151 742 l 2
 158 742 160 740 160 732 c 2
 160 49 l 2
 160 41 162 40 169 40 c 2
 532 40 l 2
 538 40 540 39 540 33 c 2
 540 7 l 2
 540 2 538 0 533 0 c 2
 123 0 l 2
 116 0 114 3 114 10 c 2
 114 732 l 2
EndSplineSet
Validated: 1
EndChar

StartChar: Lcaron
Encoding: 317 317 90
Width: 587
GlyphClass: 2
Flags: MW
HStem: 0 40<169 532 532 533> 567 175<410 411> 653.5 88.5 722 20G<123 151 151 154.5 410 453 453 454.5>
VStem: 114 46<45 49 49 732> 404 54<662 735 735 736>
AnchorPoint: "Anchor-5" 423 742 basechar 0
AnchorPoint: "Anchor-4" 137 742 basechar 0
AnchorPoint: "Anchor-3" 0 0 basechar 0
AnchorPoint: "Anchor-2" 319 0 basechar 0
LayerCount: 2
Fore
SplineSet
114 732 m 2x9c
 114 740 116 742 123 742 c 2
 151 742 l 2
 158 742 160 740 160 732 c 2
 160 49 l 2
 160 41 162 40 169 40 c 2
 532 40 l 2
 538 40 540 39 540 33 c 2
 540 7 l 2
 540 2 538 0 533 0 c 2
 123 0 l 2
 116 0 114 3 114 10 c 2
 114 732 l 2x9c
395 567 m 2xcc
 391 567 389 571 390 574 c 2xcc
 420 644 l 2
 422 650 422 652 417 653 c 2
 412 654 l 2
 406 655 404 656 404 662 c 2xac
 404 735 l 2
 404 740 406 742 410 742 c 2
 453 742 l 2
 456 742 458 740 458 736 c 2
 458 654 l 2
 458 652 457 651 457 650 c 2
 424 574 l 2
 422 569 419 567 411 567 c 2
 395 567 l 2xcc
EndSplineSet
Validated: 1
EndChar

StartChar: Lcommaaccent
Encoding: 315 315 91
Width: 587
GlyphClass: 2
Flags: MW
HStem: -165 83<286 287 287 295 286 337> 0 40<169 532 532 533> 722 20G<123 151 151 154.5>
VStem: 114 46<45 49 49 732> 279 58<-156 -90 -90 -89>
AnchorPoint: "Anchor-5" 423 742 basechar 0
AnchorPoint: "Anchor-4" 137 742 basechar 0
AnchorPoint: "Anchor-3" 0 0 basechar 0
AnchorPoint: "Anchor-2" 319 0 basechar 0
LayerCount: 2
Fore
SplineSet
114 732 m 2
 114 740 116 742 123 742 c 2
 151 742 l 2
 158 742 160 740 160 732 c 2
 160 49 l 2
 160 41 162 40 169 40 c 2
 532 40 l 2
 538 40 540 39 540 33 c 2
 540 7 l 2
 540 2 538 0 533 0 c 2
 123 0 l 2
 116 0 114 3 114 10 c 2
 114 732 l 2
278 -236 m 2
 274 -236 272 -232 274 -228 c 2
 299 -174 l 2
 302 -168 300 -165 295 -165 c 2
 287 -165 l 2
 281 -165 279 -163 279 -156 c 2
 279 -90 l 2
 279 -84 282 -82 286 -82 c 2
 331 -82 l 2
 335 -82 337 -84 337 -89 c 2
 337 -165 l 2
 337 -167 336 -170 336 -171 c 2
 305 -230 l 2
 302 -235 299 -236 291 -236 c 2
 278 -236 l 2
EndSplineSet
Validated: 1
EndChar

StartChar: Ldot
Encoding: 319 319 92
Width: 616
GlyphClass: 2
Flags: MW
HStem: 0 40<169 532 532 533> 357 79<423 426 426 485> 722 20G<123 151 151 154.5>
VStem: 114 46<45 49 49 732> 416 82<367 368 368 427 427 428 364 430.5>
AnchorPoint: "Anchor-5" 423 742 basechar 0
AnchorPoint: "Anchor-4" 137 742 basechar 0
AnchorPoint: "Anchor-3" 0 0 basechar 0
AnchorPoint: "Anchor-2" 319 0 basechar 0
LayerCount: 2
Fore
SplineSet
114 732 m 2
 114 740 116 742 123 742 c 2
 151 742 l 2
 158 742 160 740 160 732 c 2
 160 49 l 2
 160 41 162 40 169 40 c 2
 532 40 l 2
 538 40 540 39 540 33 c 2
 540 7 l 2
 540 2 538 0 533 0 c 2
 123 0 l 2
 116 0 114 3 114 10 c 2
 114 732 l 2
498 428 m 2
 498 368 l 2
 498 360 495 357 485 357 c 2
 426 357 l 2
 418 357 416 360 416 367 c 2
 416 427 l 2
 416 434 419 436 423 436 c 2
 491 436 l 2
 496 436 498 434 498 428 c 2
EndSplineSet
Validated: 1
Ligature2: "Ligature Substitution lookup 24 subtable" L periodcentered
EndChar

StartChar: Lslash
Encoding: 321 321 93
Width: 587
GlyphClass: 2
Flags: MW
HStem: 0 40<169 532 532 533> 722 20G<123 151 151 154.5>
VStem: 114 46<45 49 49 346 346 346 396 732>
AnchorPoint: "Anchor-5" 423 742 basechar 0
AnchorPoint: "Anchor-4" 137 742 basechar 0
AnchorPoint: "Anchor-3" 0 0 basechar 0
AnchorPoint: "Anchor-2" 319 0 basechar 0
LayerCount: 2
Fore
SplineSet
532 40 m 2
 538 40 540 39 540 33 c 2
 540 7 l 2
 540 2 538 0 533 0 c 2
 123 0 l 2
 116 0 114 3 114 10 c 2
 114 346 l 1
 40 327 l 2
 35 326 33 327 33 332 c 2
 33 356 l 2
 33 361 35 364 38 365 c 2
 114 384 l 1
 114 732 l 2
 114 740 116 742 123 742 c 2
 151 742 l 2
 158 742 160 740 160 732 c 2
 160 396 l 1
 320 437 l 2
 325 438 327 436 327 432 c 2
 327 408 l 2
 327 404 325 401 321 400 c 2
 160 358 l 1
 160 49 l 2
 160 41 162 40 169 40 c 2
 532 40 l 2
EndSplineSet
Validated: 1
EndChar

StartChar: M
Encoding: 77 77 94
Width: 879
Flags: MW
HStem: 0 54.38 722 20G<123 149 149 153 727 756 756 759.5>
VStem: 114 44<10 622> 719 46<9 10 10 627 627 629.5>
LayerCount: 2
Fore
SplineSet
123 0 m 2
 116 0 114 3 114 10 c 2
 114 732 l 2
 114 740 116 742 123 742 c 2
 149 742 l 2
 157 742 160 740 162 734 c 2
 429 64 l 2
 434 51 439 51 445 65 c 2
 716 735 l 2
 718 740 721 742 727 742 c 2
 756 742 l 2
 763 742 765 740 765 732 c 2
 765 10 l 2
 765 3 762 0 756 0 c 2
 729 0 l 2
 722 0 719 2 719 9 c 2
 719 627 l 2
 719 632 717 630 716 627 c 2
 467 11 l 2
 464 3 460 0 451 0 c 2
 424 0 l 2
 413 0 408 3 405 10 c 2
 161 622 l 2
 160 625 158 626 158 622 c 2
 158 9 l 2
 158 3 155 0 148 0 c 2
 123 0 l 2
EndSplineSet
Validated: 1
EndChar

StartChar: N
Encoding: 78 78 95
Width: 755
GlyphClass: 2
Flags: MW
HStem: 0 21G<119.5 123 123 148 613 617 617 632> 0 100 643.75 98.25 722 20G<123 141 141 145 605 632 632 635.5>
VStem: 114 44<10 637> 597 44<107 732>
AnchorPoint: "Anchor-5" 0 0 basechar 0
AnchorPoint: "Anchor-4" 394 742 basechar 0
AnchorPoint: "Anchor-3" 0 0 basechar 0
AnchorPoint: "Anchor-2" 359 0 basechar 0
LayerCount: 2
Fore
SplineSet
605 742 m 2x9c
 632 742 l 2
 639 742 641 740 641 732 c 2
 641 10 l 2
 641 3 638 0 632 0 c 2
 617 0 l 2
 609 0 603 -1 598 6 c 2
 170 637 l 2
 163 647 158 645 158 637 c 2xac
 158 9 l 2
 158 3 155 0 148 0 c 2
 123 0 l 2
 116 0 114 3 114 10 c 2
 114 732 l 2
 114 740 116 742 123 742 c 2
 141 742 l 2
 149 742 152 741 156 735 c 2
 583 105 l 2
 590 95 597 101 597 107 c 2x5c
 597 733 l 2
 597 739 599 742 605 742 c 2x9c
EndSplineSet
Validated: 1
EndChar

StartChar: Nacute
Encoding: 323 323 96
Width: 755
GlyphClass: 2
Flags: MW
HStem: 0 21G<119.5 123 123 148 613 617 617 632> 0 100 643.75 98.25 722 20G<123 141 141 145 605 632 632 635.5>
VStem: 114 44<10 637> 597 44<107 732>
AnchorPoint: "Anchor-5" 0 0 basechar 0
AnchorPoint: "Anchor-4" 394 742 basechar 0
AnchorPoint: "Anchor-3" 0 0 basechar 0
AnchorPoint: "Anchor-2" 359 0 basechar 0
LayerCount: 2
Fore
SplineSet
513 964 m 2x9c
 523 932 l 2
 525 926 524 923 516 920 c 2
 289 846 l 2
 283 844 280 845 278 851 c 2
 273 866 l 2
 271 871 273 875 276 876 c 2
 505 967 l 2
 508 968 512 967 513 964 c 2x9c
605 742 m 2
 632 742 l 2
 639 742 641 740 641 732 c 2
 641 10 l 2
 641 3 638 0 632 0 c 2
 617 0 l 2
 609 0 603 -1 598 6 c 2
 170 637 l 2
 163 647 158 645 158 637 c 2xac
 158 9 l 2
 158 3 155 0 148 0 c 2
 123 0 l 2
 116 0 114 3 114 10 c 2
 114 732 l 2
 114 740 116 742 123 742 c 2
 141 742 l 2
 149 742 152 741 156 735 c 2
 583 105 l 2
 590 95 597 101 597 107 c 2x5c
 597 733 l 2
 597 739 599 742 605 742 c 2
EndSplineSet
Validated: 1
EndChar

StartChar: Ncaron
Encoding: 327 327 97
Width: 755
GlyphClass: 2
Flags: MW
HStem: 0 21G<119.5 123 123 148 613 617 617 632> 0 100 643.75 98.25 722 20G<123 141 141 145 605 632 632 635.5> 856 38
VStem: 114 44<10 637> 597 44<107 732>
AnchorPoint: "Anchor-5" 0 0 basechar 0
AnchorPoint: "Anchor-4" 394 742 basechar 0
AnchorPoint: "Anchor-3" 0 0 basechar 0
AnchorPoint: "Anchor-2" 359 0 basechar 0
LayerCount: 2
Fore
SplineSet
462 948 m 2x9e
 467 952 471 954 477 954 c 2
 518 954 l 2
 526 954 526 950 519 944 c 2
 421 864 l 2
 417 861 413 856 405 856 c 2
 387 856 l 2
 378 856 373 860 367 865 c 2
 268 944 l 2
 262 949 263 954 270 954 c 2
 307 954 l 2
 314 954 315 953 322 948 c 2
 384 900 l 2
 395 892 393 892 403 900 c 2
 462 948 l 2x9e
605 742 m 2
 632 742 l 2
 639 742 641 740 641 732 c 2
 641 10 l 2
 641 3 638 0 632 0 c 2
 617 0 l 2
 609 0 603 -1 598 6 c 2
 170 637 l 2
 163 647 158 645 158 637 c 2xae
 158 9 l 2
 158 3 155 0 148 0 c 2
 123 0 l 2
 116 0 114 3 114 10 c 2
 114 732 l 2
 114 740 116 742 123 742 c 2
 141 742 l 2
 149 742 152 741 156 735 c 2
 583 105 l 2
 590 95 597 101 597 107 c 2x5e
 597 733 l 2
 597 739 599 742 605 742 c 2
EndSplineSet
Validated: 1
EndChar

StartChar: Ncommaaccent
Encoding: 325 325 98
Width: 755
GlyphClass: 2
Flags: MW
HStem: -165 83<340 341 341 349 340 391> 0 21G<119.5 123 123 148 613 617 617 632> 0 100 643.75 98.25 722 20G<123 141 141 145 605 632 632 635.5>
VStem: 114 44<10 637> 333 58<-156 -90 -90 -89> 597 44<107 732>
AnchorPoint: "Anchor-5" 0 0 basechar 0
AnchorPoint: "Anchor-4" 394 742 basechar 0
AnchorPoint: "Anchor-3" 0 0 basechar 0
AnchorPoint: "Anchor-2" 359 0 basechar 0
LayerCount: 2
Fore
SplineSet
605 742 m 2xcf
 632 742 l 2
 639 742 641 740 641 732 c 2
 641 10 l 2
 641 3 638 0 632 0 c 2
 617 0 l 2
 609 0 603 -1 598 6 c 2
 170 637 l 2
 163 647 158 645 158 637 c 2xd7
 158 9 l 2
 158 3 155 0 148 0 c 2
 123 0 l 2
 116 0 114 3 114 10 c 2
 114 732 l 2
 114 740 116 742 123 742 c 2
 141 742 l 2
 149 742 152 741 156 735 c 2
 583 105 l 2
 590 95 597 101 597 107 c 2xaf
 597 733 l 2
 597 739 599 742 605 742 c 2xcf
332 -236 m 2
 328 -236 326 -232 328 -228 c 2
 353 -174 l 2
 356 -168 354 -165 349 -165 c 2
 341 -165 l 2
 335 -165 333 -163 333 -156 c 2
 333 -90 l 2
 333 -84 336 -82 340 -82 c 2
 385 -82 l 2
 389 -82 391 -84 391 -89 c 2
 391 -165 l 2
 391 -167 390 -170 390 -171 c 2
 359 -230 l 2
 356 -235 353 -236 345 -236 c 2
 332 -236 l 2
EndSplineSet
Validated: 1
EndChar

StartChar: uni1E44
Encoding: 7748 7748 99
Width: 755
GlyphClass: 2
Flags: MW
HStem: 0 21G<119.5 123 123 148 613 617 617 632> 0 100 643.75 98.25 722 20G<123 141 141 145 605 632 632 635.5> 856 98<378 380 380 407>
VStem: 114 44<10 637> 369 50<866 868 868 944> 597 44<107 732>
AnchorPoint: "Anchor-5" 0 0 basechar 0
AnchorPoint: "Anchor-4" 394 742 basechar 0
AnchorPoint: "Anchor-3" 0 0 basechar 0
AnchorPoint: "Anchor-2" 359 0 basechar 0
LayerCount: 2
Fore
SplineSet
419 944 m 2x9f
 419 868 l 2
 419 858 417 856 407 856 c 2
 380 856 l 2
 371 856 369 858 369 866 c 2
 369 944 l 2
 369 952 371 954 378 954 c 2
 410 954 l 2
 417 954 419 952 419 944 c 2x9f
605 742 m 2
 632 742 l 2
 639 742 641 740 641 732 c 2
 641 10 l 2
 641 3 638 0 632 0 c 2
 617 0 l 2
 609 0 603 -1 598 6 c 2
 170 637 l 2
 163 647 158 645 158 637 c 2xaf
 158 9 l 2
 158 3 155 0 148 0 c 2
 123 0 l 2
 116 0 114 3 114 10 c 2
 114 732 l 2
 114 740 116 742 123 742 c 2
 141 742 l 2
 149 742 152 741 156 735 c 2
 583 105 l 2
 590 95 597 101 597 107 c 2x5f
 597 733 l 2
 597 739 599 742 605 742 c 2
EndSplineSet
Validated: 1
EndChar

StartChar: Eng
Encoding: 330 330 100
Width: 755
Flags: MW
HStem: -175 40<495 537 495 561> 0 21G<119.5 123 123 148> 646.75 95.25 722 20G<123 144 144 147.5 606 632 632 635.5>
VStem: 114 44<10 640> 598 43<107 732>
LayerCount: 2
Fore
SplineSet
632 742 m 2xdc
 639 742 641 740 641 732 c 2
 641 -46 l 2
 641 -124 608 -175 514 -175 c 0
 473 -175 440 -165 433 -160 c 0
 430 -158 429 -155 429 -151 c 2
 432 -126 l 2
 433 -121 435 -120 440 -122 c 0
 456 -128 480 -135 510 -135 c 0
 564 -135 595 -112 595 -41 c 2
 595 12 l 1
 167 640 l 2
 160 650 158 648 158 640 c 2xec
 158 9 l 2
 158 3 155 0 148 0 c 2
 123 0 l 2
 116 0 114 3 114 10 c 2
 114 732 l 2
 114 740 116 742 123 742 c 2
 144 742 l 2
 151 742 154 741 158 735 c 2
 584 104 l 2
 591 94 598 101 598 107 c 2
 598 733 l 2
 598 739 600 742 606 742 c 2
 632 742 l 2xdc
EndSplineSet
Validated: 1
EndChar

StartChar: Ntilde
Encoding: 209 209 101
Width: 755
GlyphClass: 2
Flags: MW
HStem: 0 21G<119.5 123 123 148 613 617 617 632> 0 100 643.75 98.25 722 20G<123 141 141 145 605 632 632 635.5> 885 33<431 464 431 470> 909 34<323 356 319 358.5>
VStem: 114 44<10 637> 597 44<107 732>
AnchorPoint: "Anchor-5" 0 0 basechar 0
AnchorPoint: "Anchor-4" 394 742 basechar 0
AnchorPoint: "Anchor-3" 0 0 basechar 0
AnchorPoint: "Anchor-2" 359 0 basechar 0
LayerCount: 2
Fore
SplineSet
519 904 m 0x9b
 506 896 488 885 452 885 c 0x9b
 400 885 379 909 338 909 c 0
 308 909 295 896 282 889 c 0
 276 886 274 886 271 893 c 2
 264 909 l 2
 262 914 263 915 266 917 c 0
 286 931 304 943 334 943 c 0x97
 378 943 409 918 453 918 c 0
 475 918 486 924 503 934 c 0
 510 938 513 937 516 931 c 2
 524 913 l 2
 526 909 525 908 519 904 c 0x9b
605 742 m 2
 632 742 l 2
 639 742 641 740 641 732 c 2
 641 10 l 2
 641 3 638 0 632 0 c 2
 617 0 l 2
 609 0 603 -1 598 6 c 2
 170 637 l 2
 163 647 158 645 158 637 c 2xab
 158 9 l 2
 158 3 155 0 148 0 c 2
 123 0 l 2
 116 0 114 3 114 10 c 2
 114 732 l 2
 114 740 116 742 123 742 c 2
 141 742 l 2
 149 742 152 741 156 735 c 2
 583 105 l 2
 590 95 597 101 597 107 c 2x5b
 597 733 l 2
 597 739 599 742 605 742 c 2
EndSplineSet
Validated: 1
EndChar

StartChar: O
Encoding: 79 79 102
Width: 758
GlyphClass: 2
Flags: MW
HStem: -10 42<298 463.5 298 473> 710 42<297.5 462>
VStem: 78 48<256 483 256 492> 632 48<255.5 483.5>
AnchorPoint: "Anchor-5" 517 742 basechar 0
AnchorPoint: "Anchor-4" 381 742 basechar 0
AnchorPoint: "Anchor-3" 451 9 basechar 0
AnchorPoint: "Anchor-2" 381 0 basechar 0
LayerCount: 2
Fore
SplineSet
379 -10 m 4
 190 -10 78 121 78 367 c 4
 78 617 192 752 380 752 c 4
 567 752 680 618 680 369 c 4
 680 122 567 -10 379 -10 c 4
381 32 m 4
 546 32 632 142 632 369 c 4
 632 598 544 710 380 710 c 4
 215 710 126 597 126 369 c 4
 126 143 215 32 381 32 c 4
EndSplineSet
Validated: 1
Substitution2: "Single Substitution lookup 25 subtable" ordmasculine
Substitution2: "'aalt' Access All Alternates in Latin lookup 0 subtable" ordmasculine
EndChar

StartChar: Oacute
Encoding: 211 211 103
Width: 758
GlyphClass: 2
Flags: MW
HStem: -10 42<298 463.5 298 473> 710 42<297.5 462>
VStem: 78 48<256 483 256 492> 632 48<255.5 483.5>
AnchorPoint: "Anchor-5" 517 742 basechar 0
AnchorPoint: "Anchor-4" 381 742 basechar 0
AnchorPoint: "Anchor-3" 451 9 basechar 0
AnchorPoint: "Anchor-2" 381 0 basechar 0
LayerCount: 2
Fore
SplineSet
500 964 m 2
 510 932 l 2
 512 926 511 923 503 920 c 2
 276 846 l 2
 270 844 267 845 265 851 c 2
 260 866 l 2
 258 871 260 875 263 876 c 2
 492 967 l 2
 495 968 499 967 500 964 c 2
379 -10 m 0
 190 -10 78 121 78 367 c 0
 78 617 192 752 380 752 c 0
 567 752 680 618 680 369 c 0
 680 122 567 -10 379 -10 c 0
381 32 m 0
 546 32 632 142 632 369 c 0
 632 598 544 710 380 710 c 0
 215 710 126 597 126 369 c 0
 126 143 215 32 381 32 c 0
EndSplineSet
Validated: 1
EndChar

StartChar: Obreve
Encoding: 334 334 104
Width: 758
GlyphClass: 2
Flags: MW
HStem: -10 42<298 463.5 298 473> 710 42<297.5 462> 862 41<354.5 402 354.5 419>
VStem: 78 48<256 483 256 492> 632 48<255.5 483.5>
AnchorPoint: "Anchor-5" 517 742 basechar 0
AnchorPoint: "Anchor-4" 379 920 basechar 0
AnchorPoint: "Anchor-3" 451 9 basechar 0
AnchorPoint: "Anchor-2" 381 0 basechar 0
LayerCount: 2
Fore
SplineSet
503 954 m 2
 511 954 512 952 510 945 c 0
 501 913 459 862 379 862 c 0
 302 862 265 910 253 946 c 0
 252 949 251 954 257 954 c 2
 292 954 l 2
 298 954 300 952 304 947 c 0
 314 934 330 903 379 903 c 0
 425 903 448 929 459 948 c 0
 462 953 464 954 468 954 c 2
 503 954 l 2
379 -10 m 0
 190 -10 78 121 78 367 c 0
 78 617 192 752 380 752 c 0
 567 752 680 618 680 369 c 0
 680 122 567 -10 379 -10 c 0
381 32 m 0
 546 32 632 142 632 369 c 0
 632 598 544 710 380 710 c 0
 215 710 126 597 126 369 c 0
 126 143 215 32 381 32 c 0
EndSplineSet
Validated: 1
EndChar

StartChar: Ocircumflex
Encoding: 212 212 105
Width: 758
GlyphClass: 2
Flags: MW
HStem: -10 42<298 463.5 298 473> 710 42<297.5 462> 916 38
VStem: 78 48<256 483 256 492> 632 48<255.5 483.5>
AnchorPoint: "Anchor-5" 517 742 basechar 0
AnchorPoint: "Anchor-4" 380 876 basechar 0
AnchorPoint: "Anchor-3" 451 9 basechar 0
AnchorPoint: "Anchor-2" 381 0 basechar 0
LayerCount: 2
Fore
SplineSet
449 862 m 2
 390 910 l 2
 380 918 382 918 371 910 c 2
 309 862 l 2
 302 857 301 856 294 856 c 2
 257 856 l 2
 250 856 249 861 255 866 c 2
 354 945 l 2
 360 950 365 954 374 954 c 2
 392 954 l 2
 400 954 404 949 408 946 c 2
 506 866 l 2
 513 860 513 856 505 856 c 2
 464 856 l 2
 458 856 454 858 449 862 c 2
379 -10 m 0
 190 -10 78 121 78 367 c 0
 78 617 192 752 380 752 c 0
 567 752 680 618 680 369 c 0
 680 122 567 -10 379 -10 c 0
381 32 m 0
 546 32 632 142 632 369 c 0
 632 598 544 710 380 710 c 0
 215 710 126 597 126 369 c 0
 126 143 215 32 381 32 c 0
EndSplineSet
Validated: 1
EndChar

StartChar: uni1ED0
Encoding: 7888 7888 106
Width: 758
GlyphClass: 2
Flags: MW
HStem: -10 42<298 463.5 298 473> 710 42<297.5 462> 916 38
VStem: 78 48<256 483 256 492> 632 48<255.5 483.5>
AnchorPoint: "Anchor-5" 517 742 basechar 0
AnchorPoint: "Anchor-4" 380 876 basechar 0
AnchorPoint: "Anchor-3" 451 9 basechar 0
AnchorPoint: "Anchor-2" 381 0 basechar 0
LayerCount: 2
Fore
SplineSet
499 1098 m 2
 509 1066 l 2
 511 1060 510 1057 502 1054 c 2
 275 980 l 2
 269 978 266 979 264 985 c 2
 259 1000 l 2
 257 1005 259 1009 262 1010 c 2
 491 1101 l 2
 494 1102 498 1101 499 1098 c 2
449 862 m 2
 390 910 l 2
 380 918 382 918 371 910 c 2
 309 862 l 2
 302 857 301 856 294 856 c 2
 257 856 l 2
 250 856 249 861 255 866 c 2
 354 945 l 2
 360 950 365 954 374 954 c 2
 392 954 l 2
 400 954 404 949 408 946 c 2
 506 866 l 2
 513 860 513 856 505 856 c 2
 464 856 l 2
 458 856 454 858 449 862 c 2
379 -10 m 0
 190 -10 78 121 78 367 c 0
 78 617 192 752 380 752 c 0
 567 752 680 618 680 369 c 0
 680 122 567 -10 379 -10 c 0
381 32 m 0
 546 32 632 142 632 369 c 0
 632 598 544 710 380 710 c 0
 215 710 126 597 126 369 c 0
 126 143 215 32 381 32 c 0
EndSplineSet
Validated: 1
EndChar

StartChar: uni1ED8
Encoding: 7896 7896 107
Width: 758
GlyphClass: 2
Flags: MW
HStem: -165 103<364 366 366 395> -10 42<298 463.5 298 473> 710 42<297.5 462> 916 38
VStem: 78 48<256 483 256 492> 355 52<-155 -153 -153 -72> 632 48<255.5 483.5>
AnchorPoint: "Anchor-5" 517 742 basechar 0
AnchorPoint: "Anchor-4" 380 876 basechar 0
AnchorPoint: "Anchor-3" 451 9 basechar 0
AnchorPoint: "Anchor-2" 381 0 basechar 0
LayerCount: 2
Fore
SplineSet
449 862 m 2
 390 910 l 2
 380 918 382 918 371 910 c 2
 309 862 l 2
 302 857 301 856 294 856 c 2
 257 856 l 2
 250 856 249 861 255 866 c 2
 354 945 l 2
 360 950 365 954 374 954 c 2
 392 954 l 2
 400 954 404 949 408 946 c 2
 506 866 l 2
 513 860 513 856 505 856 c 2
 464 856 l 2
 458 856 454 858 449 862 c 2
379 -10 m 0
 190 -10 78 121 78 367 c 0
 78 617 192 752 380 752 c 0
 567 752 680 618 680 369 c 0
 680 122 567 -10 379 -10 c 0
381 32 m 0
 546 32 632 142 632 369 c 0
 632 598 544 710 380 710 c 0
 215 710 126 597 126 369 c 0
 126 143 215 32 381 32 c 0
407 -72 m 2
 407 -153 l 2
 407 -163 405 -165 395 -165 c 2
 366 -165 l 2
 357 -165 355 -163 355 -155 c 2
 355 -72 l 2
 355 -64 357 -62 364 -62 c 2
 398 -62 l 2
 405 -62 407 -64 407 -72 c 2
EndSplineSet
Validated: 1
EndChar

StartChar: uni1ED2
Encoding: 7890 7890 108
Width: 758
GlyphClass: 2
Flags: MW
HStem: -10 42<298 463.5 298 473> 710 42<297.5 462> 916 38
VStem: 78 48<256 483 256 492> 632 48<255.5 483.5>
AnchorPoint: "Anchor-5" 517 742 basechar 0
AnchorPoint: "Anchor-4" 380 876 basechar 0
AnchorPoint: "Anchor-3" 451 9 basechar 0
AnchorPoint: "Anchor-2" 381 0 basechar 0
LayerCount: 2
Fore
SplineSet
272 1094 m 2
 273 1097 277 1098 280 1097 c 2
 509 1006 l 2
 512 1005 514 1001 512 996 c 2
 507 981 l 2
 505 975 502 974 496 976 c 2
 269 1050 l 2
 261 1053 260 1056 262 1062 c 2
 272 1094 l 2
449 862 m 2
 390 910 l 2
 380 918 382 918 371 910 c 2
 309 862 l 2
 302 857 301 856 294 856 c 2
 257 856 l 2
 250 856 249 861 255 866 c 2
 354 945 l 2
 360 950 365 954 374 954 c 2
 392 954 l 2
 400 954 404 949 408 946 c 2
 506 866 l 2
 513 860 513 856 505 856 c 2
 464 856 l 2
 458 856 454 858 449 862 c 2
379 -10 m 0
 190 -10 78 121 78 367 c 0
 78 617 192 752 380 752 c 0
 567 752 680 618 680 369 c 0
 680 122 567 -10 379 -10 c 0
381 32 m 0
 546 32 632 142 632 369 c 0
 632 598 544 710 380 710 c 0
 215 710 126 597 126 369 c 0
 126 143 215 32 381 32 c 0
EndSplineSet
Validated: 1
EndChar

StartChar: uni1ED4
Encoding: 7892 7892 109
Width: 758
GlyphClass: 2
Flags: HMW
HStem: -10 42<298 463.5 298 473> 710 42<297.5 462> 916 38
VStem: 78 48<256 483 256 492> 632 48<255.5 483.5>
AnchorPoint: "Anchor-5" 517 742 basechar 0
AnchorPoint: "Anchor-4" 380 876 basechar 0
AnchorPoint: "Anchor-3" 451 9 basechar 0
AnchorPoint: "Anchor-2" 381 0 basechar 0
LayerCount: 2
Fore
SplineSet
432 1076 m 0
 451 1088 478 1098 498 1098 c 0
 541 1098 569 1073 569 1033 c 0
 569 1002 544 973 513 942 c 0
 511 940 509 941 507 943 c 2
 493 960 l 2
 491 962 492 965 494 967 c 0
 518 991 537 1014 537 1031 c 0
 537 1056 520 1064 495 1064 c 0
 478 1064 462 1055 445 1044 c 0
 442 1042 441 1044 440 1046 c 2
 430 1069 l 2
 428 1073 429 1074 432 1076 c 0
449 862 m 2
 390 910 l 2
 380 918 382 918 371 910 c 2
 309 862 l 2
 302 857 301 856 294 856 c 2
 257 856 l 2
 250 856 249 861 255 866 c 2
 354 945 l 2
 360 950 365 954 374 954 c 2
 392 954 l 2
 400 954 404 949 408 946 c 2
 506 866 l 2
 513 860 513 856 505 856 c 2
 464 856 l 2
 458 856 454 858 449 862 c 2
379 -10 m 0
 190 -10 78 121 78 367 c 0
 78 617 192 752 380 752 c 0
 567 752 680 618 680 369 c 0
 680 122 567 -10 379 -10 c 0
381 32 m 0
 546 32 632 142 632 369 c 0
 632 598 544 710 380 710 c 0
 215 710 126 597 126 369 c 0
 126 143 215 32 381 32 c 0
EndSplineSet
Validated: 1
EndChar

StartChar: uni1ED6
Encoding: 7894 7894 110
Width: 758
GlyphClass: 2
Flags: MW
HStem: -10 42<298 463.5 298 473> 710 42<297.5 462> 916 38 1019 33<417 450 417 456> 1043 34<309 342 305 344.5>
VStem: 78 48<256 483 256 492> 632 48<255.5 483.5>
AnchorPoint: "Anchor-5" 517 742 basechar 0
AnchorPoint: "Anchor-4" 380 876 basechar 0
AnchorPoint: "Anchor-3" 451 9 basechar 0
AnchorPoint: "Anchor-2" 381 0 basechar 0
LayerCount: 2
Fore
SplineSet
505 1038 m 0xf6
 492 1030 474 1019 438 1019 c 0xf6
 386 1019 365 1043 324 1043 c 0
 294 1043 281 1030 268 1023 c 0
 262 1020 260 1020 257 1027 c 2
 250 1043 l 2
 248 1048 249 1049 252 1051 c 0
 272 1065 290 1077 320 1077 c 0xee
 364 1077 395 1052 439 1052 c 0
 461 1052 472 1058 489 1068 c 0
 496 1072 499 1071 502 1065 c 2
 510 1047 l 2
 512 1043 511 1042 505 1038 c 0xf6
449 862 m 2
 390 910 l 2
 380 918 382 918 371 910 c 2
 309 862 l 2
 302 857 301 856 294 856 c 2
 257 856 l 2
 250 856 249 861 255 866 c 2
 354 945 l 2
 360 950 365 954 374 954 c 2
 392 954 l 2
 400 954 404 949 408 946 c 2
 506 866 l 2
 513 860 513 856 505 856 c 2
 464 856 l 2
 458 856 454 858 449 862 c 2
379 -10 m 0
 190 -10 78 121 78 367 c 0
 78 617 192 752 380 752 c 0
 567 752 680 618 680 369 c 0
 680 122 567 -10 379 -10 c 0
381 32 m 0
 546 32 632 142 632 369 c 0
 632 598 544 710 380 710 c 0
 215 710 126 597 126 369 c 0
 126 143 215 32 381 32 c 0
EndSplineSet
Validated: 1
EndChar

StartChar: uni020C
Encoding: 524 524 111
Width: 758
GlyphClass: 2
Flags: MW
HStem: -10 42<298 463.5 298 473> 710 42<297.5 462>
VStem: 78 48<256 483 256 492> 632 48<255.5 483.5>
AnchorPoint: "Anchor-5" 517 742 basechar 0
AnchorPoint: "Anchor-4" 381 742 basechar 0
AnchorPoint: "Anchor-3" 451 9 basechar 0
AnchorPoint: "Anchor-2" 381 0 basechar 0
LayerCount: 2
Fore
SplineSet
211 959 m 2
 213 961 217 962 220 959 c 2
 337 826 l 2
 339 824 341 820 337 816 c 2
 328 803 l 2
 325 798 321 798 316 802 c 2
 192 919 l 2
 185 925 185 927 189 932 c 2
 211 959 l 2
351 959 m 2
 353 961 357 962 360 959 c 2
 477 826 l 2
 479 824 481 820 477 816 c 2
 468 803 l 2
 465 798 461 798 456 802 c 2
 332 919 l 2
 325 925 325 927 329 932 c 2
 351 959 l 2
379 -10 m 0
 190 -10 78 121 78 367 c 0
 78 617 192 752 380 752 c 0
 567 752 680 618 680 369 c 0
 680 122 567 -10 379 -10 c 0
381 32 m 0
 546 32 632 142 632 369 c 0
 632 598 544 710 380 710 c 0
 215 710 126 597 126 369 c 0
 126 143 215 32 381 32 c 0
EndSplineSet
Validated: 1
EndChar

StartChar: Odieresis
Encoding: 214 214 112
Width: 758
GlyphClass: 2
Flags: MW
HStem: -10 42<298 463.5 298 473> 710 42<297.5 462> 856 98<309 311 311 338 420 422 422 449>
VStem: 78 48<256 483 256 492> 300 50<866 868 868 944> 411 50<866 868 868 944> 632 48<255.5 483.5>
AnchorPoint: "Anchor-5" 517 742 basechar 0
AnchorPoint: "Anchor-4" 381 742 basechar 0
AnchorPoint: "Anchor-3" 451 9 basechar 0
AnchorPoint: "Anchor-2" 381 0 basechar 0
LayerCount: 2
Fore
SplineSet
350 944 m 2
 350 868 l 2
 350 858 348 856 338 856 c 2
 311 856 l 2
 302 856 300 858 300 866 c 2
 300 944 l 2
 300 952 302 954 309 954 c 2
 341 954 l 2
 348 954 350 952 350 944 c 2
461 944 m 2
 461 868 l 2
 461 858 459 856 449 856 c 2
 422 856 l 2
 413 856 411 858 411 866 c 2
 411 944 l 2
 411 952 413 954 420 954 c 2
 452 954 l 2
 459 954 461 952 461 944 c 2
379 -10 m 0
 190 -10 78 121 78 367 c 0
 78 617 192 752 380 752 c 0
 567 752 680 618 680 369 c 0
 680 122 567 -10 379 -10 c 0
381 32 m 0
 546 32 632 142 632 369 c 0
 632 598 544 710 380 710 c 0
 215 710 126 597 126 369 c 0
 126 143 215 32 381 32 c 0
EndSplineSet
Validated: 1
EndChar

StartChar: uni1ECC
Encoding: 7884 7884 113
Width: 758
GlyphClass: 2
Flags: MW
HStem: -165 103<364 366 366 395> -10 42<298 463.5 298 473> 710 42<297.5 462>
VStem: 78 48<256 483 256 492> 355 52<-155 -153 -153 -72> 632 48<255.5 483.5>
AnchorPoint: "Anchor-5" 517 742 basechar 0
AnchorPoint: "Anchor-4" 381 742 basechar 0
AnchorPoint: "Anchor-3" 451 9 basechar 0
AnchorPoint: "Anchor-2" 381 0 basechar 0
LayerCount: 2
Fore
SplineSet
379 -10 m 0
 190 -10 78 121 78 367 c 0
 78 617 192 752 380 752 c 0
 567 752 680 618 680 369 c 0
 680 122 567 -10 379 -10 c 0
381 32 m 0
 546 32 632 142 632 369 c 0
 632 598 544 710 380 710 c 0
 215 710 126 597 126 369 c 0
 126 143 215 32 381 32 c 0
407 -72 m 2
 407 -153 l 2
 407 -163 405 -165 395 -165 c 2
 366 -165 l 2
 357 -165 355 -163 355 -155 c 2
 355 -72 l 2
 355 -64 357 -62 364 -62 c 2
 398 -62 l 2
 405 -62 407 -64 407 -72 c 2
EndSplineSet
Validated: 1
EndChar

StartChar: Ograve
Encoding: 210 210 114
Width: 758
GlyphClass: 2
Flags: MW
HStem: -10 42<298 463.5 298 473> 710 42<297.5 462>
VStem: 78 48<256 483 256 492> 632 48<255.5 483.5>
AnchorPoint: "Anchor-5" 517 742 basechar 0
AnchorPoint: "Anchor-4" 381 742 basechar 0
AnchorPoint: "Anchor-3" 451 9 basechar 0
AnchorPoint: "Anchor-2" 381 0 basechar 0
LayerCount: 2
Fore
SplineSet
273 960 m 2
 274 963 278 964 281 963 c 2
 510 872 l 2
 513 871 515 867 513 862 c 2
 508 847 l 2
 506 841 503 840 497 842 c 2
 270 916 l 2
 262 919 261 922 263 928 c 2
 273 960 l 2
379 -10 m 0
 190 -10 78 121 78 367 c 0
 78 617 192 752 380 752 c 0
 567 752 680 618 680 369 c 0
 680 122 567 -10 379 -10 c 0
381 32 m 0
 546 32 632 142 632 369 c 0
 632 598 544 710 380 710 c 0
 215 710 126 597 126 369 c 0
 126 143 215 32 381 32 c 0
EndSplineSet
Validated: 1
EndChar

StartChar: uni1ECE
Encoding: 7886 7886 115
Width: 758
GlyphClass: 2
Flags: HMW
HStem: -10 42<298 463.5 298 473> 710 42<297.5 462>
VStem: 78 48<256 483 256 492> 632 48<255.5 483.5>
AnchorPoint: "Anchor-5" 517 742 basechar 0
AnchorPoint: "Anchor-4" 381 742 basechar 0
AnchorPoint: "Anchor-3" 451 9 basechar 0
AnchorPoint: "Anchor-2" 381 0 basechar 0
LayerCount: 2
Fore
SplineSet
302 945 m 0
 321 957 348 967 368 967 c 0
 411 967 439 942 439 902 c 0
 439 871 414 842 383 811 c 0
 381 809 379 810 377 812 c 2
 363 829 l 2
 361 831 362 834 364 836 c 0
 388 860 407 883 407 900 c 0
 407 925 390 933 365 933 c 0
 348 933 332 924 315 913 c 0
 312 911 311 913 310 915 c 2
 300 938 l 2
 298 942 299 943 302 945 c 0
379 -10 m 0
 190 -10 78 121 78 367 c 0
 78 617 192 752 380 752 c 0
 567 752 680 618 680 369 c 0
 680 122 567 -10 379 -10 c 0
381 32 m 0
 546 32 632 142 632 369 c 0
 632 598 544 710 380 710 c 0
 215 710 126 597 126 369 c 0
 126 143 215 32 381 32 c 0
EndSplineSet
Validated: 1
EndChar

StartChar: Ohorn
Encoding: 416 416 116
Width: 758
GlyphClass: 2
Flags: MW
HStem: -10 42<298 463.5 298 473> 710 33<459 462> 710 42<297.5 394 286 462>
VStem: 78 48<256 483 256 492> 632 48<255.5 457.5 245.5 483.5>
AnchorPoint: "Anchor-5" 517 742 basechar 0
AnchorPoint: "Anchor-4" 381 742 basechar 0
AnchorPoint: "Anchor-3" 451 9 basechar 0
AnchorPoint: "Anchor-2" 381 0 basechar 0
LayerCount: 2
Fore
SplineSet
522 719 m 1xd8
 623 665 680 546 680 369 c 0
 680 122 567 -10 379 -10 c 0
 190 -10 78 121 78 367 c 0
 78 617 192 752 380 752 c 0xb8
 408 752 434 749 459 743 c 1
 506 743 522 775 530 799 c 0
 532 804 536 803 540 803 c 2
 572 803 l 2
 580 803 581 800 579 792 c 0
 572 769 555 738 522 719 c 1xd8
381 32 m 0xb8
 546 32 632 142 632 369 c 0
 632 598 544 710 380 710 c 0
 215 710 126 597 126 369 c 0
 126 143 215 32 381 32 c 0xb8
EndSplineSet
Validated: 1
EndChar

StartChar: uni1EDA
Encoding: 7898 7898 117
Width: 758
GlyphClass: 2
Flags: MW
HStem: -10 42<298 463.5 298 473> 710 33<459 462> 710 42<297.5 394 286 462>
VStem: 78 48<256 483 256 492> 632 48<255.5 457.5 245.5 483.5>
AnchorPoint: "Anchor-5" 517 742 basechar 0
AnchorPoint: "Anchor-4" 381 742 basechar 0
AnchorPoint: "Anchor-3" 451 9 basechar 0
AnchorPoint: "Anchor-2" 381 0 basechar 0
LayerCount: 2
Fore
SplineSet
265 851 m 2xb8
 260 866 l 2
 258 871 260 875 263 876 c 2
 492 967 l 2
 495 968 499 967 500 964 c 2
 510 932 l 2
 512 926 511 923 503 920 c 2
 276 846 l 2
 270 844 267 845 265 851 c 2xb8
522 719 m 1xd8
 623 665 680 546 680 369 c 0
 680 122 567 -10 379 -10 c 0
 190 -10 78 121 78 367 c 0
 78 617 192 752 380 752 c 0xb8
 408 752 434 749 459 743 c 1
 506 743 522 775 530 799 c 0
 532 804 536 803 540 803 c 2
 572 803 l 2
 580 803 581 800 579 792 c 0
 572 769 555 738 522 719 c 1xd8
381 32 m 0xb8
 546 32 632 142 632 369 c 0
 632 598 544 710 380 710 c 0
 215 710 126 597 126 369 c 0
 126 143 215 32 381 32 c 0xb8
EndSplineSet
Validated: 1
EndChar

StartChar: uni1EE2
Encoding: 7906 7906 118
Width: 758
GlyphClass: 2
Flags: MW
HStem: -165 103<364 366 366 395> -10 42<298 463.5 298 473> 710 33<459 462> 710 42<297.5 394 286 462>
VStem: 78 48<256 483 256 492> 355 52<-155 -153 -153 -72> 632 48<255.5 457.5 245.5 483.5>
AnchorPoint: "Anchor-5" 517 742 basechar 0
AnchorPoint: "Anchor-4" 381 742 basechar 0
AnchorPoint: "Anchor-3" 451 9 basechar 0
AnchorPoint: "Anchor-2" 381 0 basechar 0
LayerCount: 2
Fore
SplineSet
522 719 m 1xee
 623 665 680 546 680 369 c 0
 680 122 567 -10 379 -10 c 0
 190 -10 78 121 78 367 c 0
 78 617 192 752 380 752 c 0xde
 408 752 434 749 459 743 c 1
 506 743 522 775 530 799 c 0
 532 804 536 803 540 803 c 2
 572 803 l 2
 580 803 581 800 579 792 c 0
 572 769 555 738 522 719 c 1xee
381 32 m 0xde
 546 32 632 142 632 369 c 0
 632 598 544 710 380 710 c 0
 215 710 126 597 126 369 c 0
 126 143 215 32 381 32 c 0xde
398 -62 m 2
 405 -62 407 -64 407 -72 c 2
 407 -153 l 2
 407 -163 405 -165 395 -165 c 2
 366 -165 l 2
 357 -165 355 -163 355 -155 c 2
 355 -72 l 2
 355 -64 357 -62 364 -62 c 2
 398 -62 l 2
EndSplineSet
Validated: 1
EndChar

StartChar: uni1EDC
Encoding: 7900 7900 119
Width: 758
GlyphClass: 2
Flags: MW
HStem: -10 42<298 463.5 298 473> 710 33<459 462> 710 42<297.5 394 286 462>
VStem: 78 48<256 483 256 492> 632 48<255.5 457.5 245.5 483.5>
AnchorPoint: "Anchor-5" 517 742 basechar 0
AnchorPoint: "Anchor-4" 381 742 basechar 0
AnchorPoint: "Anchor-3" 451 9 basechar 0
AnchorPoint: "Anchor-2" 381 0 basechar 0
LayerCount: 2
Fore
SplineSet
270 916 m 2xb8
 262 919 261 922 263 928 c 2
 273 960 l 2
 274 963 278 964 281 963 c 2
 510 872 l 2
 513 871 515 867 513 862 c 2
 508 847 l 2
 506 841 503 840 497 842 c 2
 270 916 l 2xb8
522 719 m 1xd8
 623 665 680 546 680 369 c 0
 680 122 567 -10 379 -10 c 0
 190 -10 78 121 78 367 c 0
 78 617 192 752 380 752 c 0xb8
 408 752 434 749 459 743 c 1
 506 743 522 775 530 799 c 0
 532 804 536 803 540 803 c 2
 572 803 l 2
 580 803 581 800 579 792 c 0
 572 769 555 738 522 719 c 1xd8
381 32 m 0xb8
 546 32 632 142 632 369 c 0
 632 598 544 710 380 710 c 0
 215 710 126 597 126 369 c 0
 126 143 215 32 381 32 c 0xb8
EndSplineSet
Validated: 1
EndChar

StartChar: uni1EDE
Encoding: 7902 7902 120
Width: 758
GlyphClass: 2
Flags: MW
HStem: -10 42<298 463.5 298 473> 710 33<459 462> 710 42<297.5 394 286 462> 933 34<358 377.5>
VStem: 78 48<256 483 256 492> 407 32<891.5 912.5> 632 48<255.5 457.5 245.5 483.5>
AnchorPoint: "Anchor-5" 517 742 basechar 0
AnchorPoint: "Anchor-4" 381 742 basechar 0
AnchorPoint: "Anchor-3" 451 9 basechar 0
AnchorPoint: "Anchor-2" 381 0 basechar 0
LayerCount: 2
Fore
SplineSet
310 915 m 2xbe
 300 938 l 2
 298 942 299 943 302 945 c 0
 321 957 348 967 368 967 c 0
 411 967 439 942 439 902 c 0
 439 871 414 842 383 811 c 0
 381 809 379 810 377 812 c 2
 363 829 l 2
 361 831 362 834 364 836 c 0
 388 860 407 883 407 900 c 0
 407 925 390 933 365 933 c 0
 348 933 332 924 315 913 c 0
 312 911 311 913 310 915 c 2xbe
522 719 m 1xde
 623 665 680 546 680 369 c 0
 680 122 567 -10 379 -10 c 0
 190 -10 78 121 78 367 c 0
 78 617 192 752 380 752 c 0xbe
 408 752 434 749 459 743 c 1
 506 743 522 775 530 799 c 0
 532 804 536 803 540 803 c 2
 572 803 l 2
 580 803 581 800 579 792 c 0
 572 769 555 738 522 719 c 1xde
381 32 m 0xbe
 546 32 632 142 632 369 c 0
 632 598 544 710 380 710 c 0
 215 710 126 597 126 369 c 0
 126 143 215 32 381 32 c 0xbe
EndSplineSet
Validated: 1
EndChar

StartChar: uni1EE0
Encoding: 7904 7904 121
Width: 758
GlyphClass: 2
Flags: MW
HStem: -10 42<298 463.5 298 473> 710 33<459 462> 710 42<297.5 394 286 462> 885 33<418 451 418 457> 909 34<310 343 306 345.5>
VStem: 78 48<256 483 256 492> 632 48<255.5 457.5 245.5 483.5>
AnchorPoint: "Anchor-5" 517 742 basechar 0
AnchorPoint: "Anchor-4" 381 742 basechar 0
AnchorPoint: "Anchor-3" 451 9 basechar 0
AnchorPoint: "Anchor-2" 381 0 basechar 0
LayerCount: 2
Fore
SplineSet
258 893 m 2xae
 251 909 l 2
 249 914 250 915 253 917 c 0
 273 931 291 943 321 943 c 0xce
 365 943 396 918 440 918 c 0
 462 918 473 924 490 934 c 0
 497 938 500 937 503 931 c 2
 511 913 l 2
 513 909 512 908 506 904 c 0
 493 896 475 885 439 885 c 0xb6
 387 885 366 909 325 909 c 0
 295 909 282 896 269 889 c 0
 263 886 261 886 258 893 c 2xae
522 719 m 1
 623 665 680 546 680 369 c 0
 680 122 567 -10 379 -10 c 0
 190 -10 78 121 78 367 c 0
 78 617 192 752 380 752 c 0xb6
 408 752 434 749 459 743 c 1
 506 743 522 775 530 799 c 0
 532 804 536 803 540 803 c 2
 572 803 l 2
 580 803 581 800 579 792 c 0
 572 769 555 738 522 719 c 1
381 32 m 0xb6
 546 32 632 142 632 369 c 0
 632 598 544 710 380 710 c 0
 215 710 126 597 126 369 c 0
 126 143 215 32 381 32 c 0xb6
EndSplineSet
Validated: 1
EndChar

StartChar: Ohungarumlaut
Encoding: 336 336 122
Width: 758
GlyphClass: 2
Flags: MW
HStem: -10 42<298 463.5 298 473> 710 42<297.5 462>
VStem: 78 48<256 483 256 492> 632 48<255.5 483.5>
AnchorPoint: "Anchor-5" 517 742 basechar 0
AnchorPoint: "Anchor-4" 381 742 basechar 0
AnchorPoint: "Anchor-3" 451 9 basechar 0
AnchorPoint: "Anchor-2" 381 0 basechar 0
LayerCount: 2
Fore
SplineSet
411 959 m 2
 433 932 l 2
 437 927 437 925 430 919 c 2
 306 802 l 2
 301 798 297 798 294 803 c 2
 285 816 l 2
 281 820 283 824 285 826 c 2
 402 959 l 2
 405 962 409 961 411 959 c 2
552 959 m 2
 574 932 l 2
 578 927 578 925 571 919 c 2
 447 802 l 2
 442 798 438 798 435 803 c 2
 426 816 l 2
 422 820 424 824 426 826 c 2
 543 959 l 2
 546 962 550 961 552 959 c 2
379 -10 m 0
 190 -10 78 121 78 367 c 0
 78 617 192 752 380 752 c 0
 567 752 680 618 680 369 c 0
 680 122 567 -10 379 -10 c 0
381 32 m 0
 546 32 632 142 632 369 c 0
 632 598 544 710 380 710 c 0
 215 710 126 597 126 369 c 0
 126 143 215 32 381 32 c 0
EndSplineSet
Validated: 1
EndChar

StartChar: uni020E
Encoding: 526 526 123
Width: 758
GlyphClass: 2
Flags: MW
HStem: -10 42<298 463.5 298 473> 710 42<297.5 462> 921 41<353.5 401>
VStem: 78 48<256 483 256 492> 632 48<255.5 483.5>
AnchorPoint: "Anchor-5" 517 742 basechar 0
AnchorPoint: "Anchor-4" 378 904 basechar 0
AnchorPoint: "Anchor-3" 451 9 basechar 0
AnchorPoint: "Anchor-2" 381 0 basechar 0
LayerCount: 2
Fore
SplineSet
502 870 m 2
 467 870 l 2
 463 870 461 871 458 876 c 0
 447 895 424 921 378 921 c 0
 329 921 313 890 303 877 c 0
 299 872 297 870 291 870 c 2
 256 870 l 2
 250 870 251 875 252 878 c 0
 264 914 301 962 378 962 c 0
 458 962 500 911 509 879 c 0
 511 872 510 870 502 870 c 2
379 -10 m 0
 190 -10 78 121 78 367 c 0
 78 617 192 752 380 752 c 0
 567 752 680 618 680 369 c 0
 680 122 567 -10 379 -10 c 0
381 32 m 0
 546 32 632 142 632 369 c 0
 632 598 544 710 380 710 c 0
 215 710 126 597 126 369 c 0
 126 143 215 32 381 32 c 0
EndSplineSet
Validated: 1
EndChar

StartChar: Omacron
Encoding: 332 332 124
Width: 758
GlyphClass: 2
Flags: MW
HStem: -10 42<298 463.5 298 473> 710 42<297.5 462> 896 38<260 262 262 497>
VStem: 78 48<256 483 256 492> 632 48<255.5 483.5>
AnchorPoint: "Anchor-5" 517 742 basechar 0
AnchorPoint: "Anchor-4" 381 742 basechar 0
AnchorPoint: "Anchor-3" 451 9 basechar 0
AnchorPoint: "Anchor-2" 381 0 basechar 0
LayerCount: 2
Fore
SplineSet
507 928 m 2
 507 904 l 2
 507 899 505 896 497 896 c 2
 262 896 l 2
 256 896 255 899 255 904 c 2
 255 927 l 2
 255 931 257 934 260 934 c 2
 502 934 l 2
 505 934 507 931 507 928 c 2
379 -10 m 0
 190 -10 78 121 78 367 c 0
 78 617 192 752 380 752 c 0
 567 752 680 618 680 369 c 0
 680 122 567 -10 379 -10 c 0
381 32 m 0
 546 32 632 142 632 369 c 0
 632 598 544 710 380 710 c 0
 215 710 126 597 126 369 c 0
 126 143 215 32 381 32 c 0
EndSplineSet
Validated: 1
EndChar

StartChar: uni01EA
Encoding: 490 490 125
Width: 758
GlyphClass: 2
Flags: MW
HStem: -171 34<392.5 419> -10 42 710 42<297.5 462>
VStem: 78 48<256 483 256 492> 311 44<-109 -76 -109 -76> 632 48<262.5 483.5>
AnchorPoint: "Anchor-5" 517 742 basechar 0
AnchorPoint: "Anchor-4" 381 742 basechar 0
AnchorPoint: "Anchor-3" 451 9 basechar 0
AnchorPoint: "Anchor-2" 381 0 basechar 0
LayerCount: 2
Fore
SplineSet
453 -2 m 1
 388 -33 355 -57 355 -95 c 0
 355 -123 372 -137 413 -137 c 0
 444 -137 470 -129 478 -125 c 0
 484 -122 486 -123 486 -128 c 2
 486 -148 l 2
 486 -153 485 -154 481 -156 c 0
 466 -163 435 -171 403 -171 c 0
 339 -171 311 -138 311 -93 c 0
 311 -59 327 -32 373 -10 c 1
 188 -7 78 124 78 367 c 0
 78 617 192 752 380 752 c 0
 567 752 680 618 680 369 c 0
 680 156 596 29 453 -2 c 1
126 369 m 0
 126 143 215 32 381 32 c 0
 546 32 632 142 632 369 c 0
 632 598 544 710 380 710 c 0
 215 710 126 597 126 369 c 0
EndSplineSet
Validated: 1
EndChar

StartChar: Oslash
Encoding: 216 216 126
Width: 708
GlyphClass: 2
Flags: MW
HStem: -10 43<314.5 438.5 314.5 448> 709 43<272.5 396>
VStem: 53 51<326 483 326 492> 604 51<255.5 412.5>
AnchorPoint: "Anchor-5" 0 0 basechar 0
AnchorPoint: "Anchor-4" 355 742 basechar 0
AnchorPoint: "Anchor-3" 0 0 basechar 0
AnchorPoint: "Anchor-2" 0 0 basechar 0
LayerCount: 2
Fore
SplineSet
684 727 m 2
 687 724 688 720 685 716 c 2
 600 617 l 1
 636 555 655 472 655 369 c 0
 655 122 542 -10 354 -10 c 0
 262 -10 188 21 137 81 c 1
 64 -3 l 2
 58 -11 53 -11 45 -5 c 2
 28 11 l 2
 21 18 20 21 24 26 c 2
 108 123 l 1
 72 184 53 266 53 367 c 0
 53 617 167 752 355 752 c 0
 446 752 519 720 571 659 c 1
 646 746 l 2
 650 751 654 753 659 749 c 2
 684 727 l 2
104 369 m 0
 104 283 116 214 141 161 c 1
 541 625 l 1
 499 681 437 709 355 709 c 0
 190 709 104 597 104 369 c 0
604 369 m 0
 604 456 592 526 567 580 c 1
 167 117 l 1
 210 61 273 33 356 33 c 0
 521 33 604 142 604 369 c 0
EndSplineSet
Validated: 1
EndChar

StartChar: Oslashacute
Encoding: 510 510 127
Width: 708
GlyphClass: 2
Flags: MW
HStem: -10 43<314.5 438.5 314.5 448> 709 43<272.5 396>
VStem: 53 51<326 483 326 492> 604 51<255.5 412.5>
AnchorPoint: "Anchor-5" 0 0 basechar 0
AnchorPoint: "Anchor-4" 355 742 basechar 0
AnchorPoint: "Anchor-3" 0 0 basechar 0
AnchorPoint: "Anchor-2" 0 0 basechar 0
LayerCount: 2
Fore
SplineSet
474 964 m 2
 484 932 l 2
 486 926 485 923 477 920 c 2
 250 846 l 2
 244 844 241 845 239 851 c 2
 234 866 l 2
 232 871 234 875 237 876 c 2
 466 967 l 2
 469 968 473 967 474 964 c 2
684 727 m 2
 687 724 688 720 685 716 c 2
 600 617 l 1
 636 555 655 472 655 369 c 0
 655 122 542 -10 354 -10 c 0
 262 -10 188 21 137 81 c 1
 64 -3 l 2
 58 -11 53 -11 45 -5 c 2
 28 11 l 2
 21 18 20 21 24 26 c 2
 108 123 l 1
 72 184 53 266 53 367 c 0
 53 617 167 752 355 752 c 0
 446 752 519 720 571 659 c 1
 646 746 l 2
 650 751 654 753 659 749 c 2
 684 727 l 2
104 369 m 0
 104 283 116 214 141 161 c 1
 541 625 l 1
 499 681 437 709 355 709 c 0
 190 709 104 597 104 369 c 0
604 369 m 0
 604 456 592 526 567 580 c 1
 167 117 l 1
 210 61 273 33 356 33 c 0
 521 33 604 142 604 369 c 0
EndSplineSet
Validated: 1
EndChar

StartChar: Otilde
Encoding: 213 213 128
Width: 758
GlyphClass: 2
Flags: MW
HStem: -10 42<298 463.5 298 473> 710 42<297.5 462> 885 33<418 451 418 457> 909 34<310 343 306 345.5>
VStem: 78 48<256 483 256 492> 632 48<255.5 483.5>
AnchorPoint: "Anchor-5" 517 742 basechar 0
AnchorPoint: "Anchor-4" 381 742 basechar 0
AnchorPoint: "Anchor-3" 451 9 basechar 0
AnchorPoint: "Anchor-2" 381 0 basechar 0
LayerCount: 2
Fore
SplineSet
506 904 m 0xec
 493 896 475 885 439 885 c 0xec
 387 885 366 909 325 909 c 0
 295 909 282 896 269 889 c 0
 263 886 261 886 258 893 c 2
 251 909 l 2
 249 914 250 915 253 917 c 0
 273 931 291 943 321 943 c 0xdc
 365 943 396 918 440 918 c 0
 462 918 473 924 490 934 c 0
 497 938 500 937 503 931 c 2
 511 913 l 2
 513 909 512 908 506 904 c 0xec
379 -10 m 0
 190 -10 78 121 78 367 c 0
 78 617 192 752 380 752 c 0
 567 752 680 618 680 369 c 0
 680 122 567 -10 379 -10 c 0
381 32 m 0
 546 32 632 142 632 369 c 0
 632 598 544 710 380 710 c 0
 215 710 126 597 126 369 c 0
 126 143 215 32 381 32 c 0
EndSplineSet
Validated: 1
EndChar

StartChar: OE
Encoding: 338 338 129
Width: 1122
Flags: MW
HStem: -10 42<298 437.5> 0 40<689 1062 1062 1063> 355 40<685.5 967 689 966> 702 40<685.5 689 689 1047> 710 42<297.5 438.5 286 460>
VStem: 78 48<256 483 256 492> 632 48<333 346 399 402 402 433 433 517>
LayerCount: 2
Fore
SplineSet
1062 40 m 2x76
 1068 40 1070 39 1070 33 c 2
 1070 7 l 2
 1070 2 1068 0 1063 0 c 2
 642 0 l 2
 635 0 633 2 633 10 c 2x76
 633 131 l 1
 583 32 496 -10 379 -10 c 0
 190 -10 78 121 78 367 c 0
 78 617 192 752 380 752 c 0xae
 497 752 584 701 634 601 c 1
 634 732 l 2
 634 740 636 742 643 742 c 2
 1048 742 l 2
 1053 742 1055 740 1055 735 c 2
 1055 709 l 2
 1055 703 1053 702 1047 702 c 2
 689 702 l 2
 682 702 680 701 680 693 c 2
 680 402 l 2
 680 396 682 395 689 395 c 2
 967 395 l 2
 972 395 974 393 974 388 c 2
 974 362 l 2
 974 356 972 355 966 355 c 2
 689 355 l 2
 682 355 680 354 680 346 c 2
 680 49 l 2
 680 41 682 40 689 40 c 2
 1062 40 l 2x76
381 32 m 0xae
 546 32 632 138 632 333 c 2
 632 433 l 2
 632 601 540 710 380 710 c 0
 215 710 126 597 126 369 c 0
 126 143 215 32 381 32 c 0xae
EndSplineSet
Validated: 1
EndChar

StartChar: P
Encoding: 80 80 130
Width: 674
Flags: MW
HStem: 0 21G<119.5 122 122 152> 327 40<167 168 168 351> 702 40<166 169 169 344>
VStem: 114 46<8 9 9 318 373.5 377 377 694> 563 48<476.5 600>
LayerCount: 2
Fore
SplineSet
611 535 m 0
 611 387 502 327 351 327 c 2
 168 327 l 2
 162 327 160 324 160 318 c 2
 160 9 l 2
 160 3 157 0 152 0 c 2
 122 0 l 2
 117 0 114 3 114 8 c 2
 114 732 l 2
 114 740 116 742 123 742 c 2
 345 742 l 2
 500 742 611 684 611 535 c 0
563 538 m 0
 563 662 479 702 344 702 c 2
 169 702 l 2
 163 702 160 700 160 694 c 2
 160 377 l 2
 160 370 162 367 167 367 c 2
 351 367 l 2
 479 367 563 415 563 538 c 0
EndSplineSet
Validated: 1
EndChar

StartChar: Thorn
Encoding: 222 222 131
Width: 674
Flags: MW
HStem: 0 21G<119.5 122 122 152> 182 40<167 168 168 351> 539 40<166 169 169 344> 722 20G<123 151 151 154.5>
VStem: 114 46<8 9 9 173 228.5 232 232 531 582.5 584 584 732> 563 48<329 445.5>
LayerCount: 2
Fore
SplineSet
611 390 m 0
 611 239 501 182 351 182 c 2
 168 182 l 2
 162 182 160 179 160 173 c 2
 160 9 l 2
 160 3 157 0 152 0 c 2
 122 0 l 2
 117 0 114 3 114 8 c 2
 114 732 l 2
 114 740 116 742 123 742 c 2
 151 742 l 2
 158 742 160 740 160 732 c 2
 160 584 l 2
 160 581 162 579 166 579 c 2
 345 579 l 2
 501 579 611 522 611 390 c 0
563 390 m 0
 563 501 479 539 344 539 c 2
 169 539 l 2
 163 539 160 537 160 531 c 2
 160 232 l 2
 160 225 162 222 167 222 c 2
 351 222 l 2
 479 222 563 268 563 390 c 0
EndSplineSet
Validated: 1
EndChar

StartChar: Q
Encoding: 81 81 132
Width: 758
Flags: MW
HStem: -10 42<297 392> -1 33 710 42<295.5 462.5>
VStem: 78 48<254 479.5 254 494.5> 632 48<279 480.5>
LayerCount: 2
Fore
SplineSet
78 369 m 0xb8
 78 620 191 752 379 752 c 0
 567 752 680 620 680 369 c 0
 680 189 624 83 527 25 c 0
 522 22 521 20 521 16 c 0
 521 -11 588 -70 663 -80 c 0
 669 -81 670 -84 670 -87 c 2
 670 -109 l 2
 670 -120 664 -122 650 -122 c 0
 606 -122 540 -96 475 -5 c 0
 472 -1 467 1 460 -1 c 0x78
 435 -7 405 -10 379 -10 c 0
 195 -10 78 116 78 369 c 0xb8
126 367 m 0
 126 141 215 32 379 32 c 0
 543 32 632 141 632 369 c 0
 632 592 546 710 379 710 c 0
 212 710 126 592 126 367 c 0
EndSplineSet
Validated: 1
EndChar

StartChar: R
Encoding: 82 82 133
Width: 679
GlyphClass: 2
Flags: MW
HStem: 0 21G<120 124 124 150 559.5 563 563 591> 355 40<167.5 172 172 346 346 388> 702 40<167 171 171 380>
VStem: 114 46<9 11 11 344 401 404 404 694> 561 48<496.5 602>
AnchorPoint: "Anchor-5" 0 0 basechar 0
AnchorPoint: "Anchor-4" 334 742 basechar 0
AnchorPoint: "Anchor-3" 0 0 basechar 0
AnchorPoint: "Anchor-2" 341 0 basechar 0
LayerCount: 2
Fore
SplineSet
599 14 m 2
 602 7 598 0 591 0 c 2
 563 0 l 2
 556 0 554 3 551 9 c 2
 409 345 l 2
 406 352 401 355 388 355 c 2
 172 355 l 2
 163 355 160 351 160 344 c 2
 160 11 l 2
 160 3 158 0 150 0 c 2
 124 0 l 2
 116 0 114 3 114 9 c 2
 114 732 l 2
 114 740 116 742 123 742 c 2
 381 742 l 2
 525 742 609 680 609 558 c 0
 609 435 526 384 457 366 c 0
 453 365 452 362 453 359 c 2
 599 14 l 2
346 395 m 2
 489 395 561 439 561 551 c 0
 561 653 501 702 380 702 c 2
 171 702 l 2
 163 702 160 700 160 694 c 2
 160 404 l 2
 160 398 162 395 167 395 c 2
 346 395 l 2
EndSplineSet
Validated: 1
EndChar

StartChar: Racute
Encoding: 340 340 134
Width: 679
GlyphClass: 2
Flags: MW
HStem: 0 21G<120 124 124 150 559.5 563 563 591> 355 40<167.5 172 172 346 346 388> 702 40<167 171 171 380>
VStem: 114 46<9 11 11 344 401 404 404 694> 561 48<496.5 602>
AnchorPoint: "Anchor-5" 0 0 basechar 0
AnchorPoint: "Anchor-4" 334 742 basechar 0
AnchorPoint: "Anchor-3" 0 0 basechar 0
AnchorPoint: "Anchor-2" 341 0 basechar 0
LayerCount: 2
Fore
SplineSet
453 964 m 2
 463 932 l 2
 465 926 464 923 456 920 c 2
 229 846 l 2
 223 844 220 845 218 851 c 2
 213 866 l 2
 211 871 213 875 216 876 c 2
 445 967 l 2
 448 968 452 967 453 964 c 2
599 14 m 2
 602 7 598 0 591 0 c 2
 563 0 l 2
 556 0 554 3 551 9 c 2
 409 345 l 2
 406 352 401 355 388 355 c 2
 172 355 l 2
 163 355 160 351 160 344 c 2
 160 11 l 2
 160 3 158 0 150 0 c 2
 124 0 l 2
 116 0 114 3 114 9 c 2
 114 732 l 2
 114 740 116 742 123 742 c 2
 381 742 l 2
 525 742 609 680 609 558 c 0
 609 435 526 384 457 366 c 0
 453 365 452 362 453 359 c 2
 599 14 l 2
346 395 m 2
 489 395 561 439 561 551 c 0
 561 653 501 702 380 702 c 2
 171 702 l 2
 163 702 160 700 160 694 c 2
 160 404 l 2
 160 398 162 395 167 395 c 2
 346 395 l 2
EndSplineSet
Validated: 1
EndChar

StartChar: Rcaron
Encoding: 344 344 135
Width: 679
GlyphClass: 2
Flags: MW
HStem: 0 21G<120 124 124 150 559.5 563 563 591> 355 40<167.5 172 172 346 346 388> 702 40<167 171 171 380> 856 38
VStem: 114 46<9 11 11 344 401 404 404 694> 561 48<496.5 602>
AnchorPoint: "Anchor-5" 0 0 basechar 0
AnchorPoint: "Anchor-4" 334 742 basechar 0
AnchorPoint: "Anchor-3" 0 0 basechar 0
AnchorPoint: "Anchor-2" 341 0 basechar 0
LayerCount: 2
Fore
SplineSet
402 948 m 2
 407 952 411 954 417 954 c 2
 458 954 l 2
 466 954 466 950 459 944 c 2
 361 864 l 2
 357 861 353 856 345 856 c 2
 327 856 l 2
 318 856 313 860 307 865 c 2
 208 944 l 2
 202 949 203 954 210 954 c 2
 247 954 l 2
 254 954 255 953 262 948 c 2
 324 900 l 2
 335 892 333 892 343 900 c 2
 402 948 l 2
599 14 m 2
 602 7 598 0 591 0 c 2
 563 0 l 2
 556 0 554 3 551 9 c 2
 409 345 l 2
 406 352 401 355 388 355 c 2
 172 355 l 2
 163 355 160 351 160 344 c 2
 160 11 l 2
 160 3 158 0 150 0 c 2
 124 0 l 2
 116 0 114 3 114 9 c 2
 114 732 l 2
 114 740 116 742 123 742 c 2
 381 742 l 2
 525 742 609 680 609 558 c 0
 609 435 526 384 457 366 c 0
 453 365 452 362 453 359 c 2
 599 14 l 2
346 395 m 2
 489 395 561 439 561 551 c 0
 561 653 501 702 380 702 c 2
 171 702 l 2
 163 702 160 700 160 694 c 2
 160 404 l 2
 160 398 162 395 167 395 c 2
 346 395 l 2
EndSplineSet
Validated: 1
EndChar

StartChar: Rcommaaccent
Encoding: 342 342 136
Width: 679
GlyphClass: 2
Flags: MW
HStem: -165 83<322 323 323 331 322 373> 0 21G<120 124 124 150 559.5 563 563 591> 355 40<167.5 172 172 346 346 388> 702 40<167 171 171 380>
VStem: 114 46<9 11 11 344 401 404 404 694> 315 58<-156 -90 -90 -89> 561 48<496.5 602>
AnchorPoint: "Anchor-5" 0 0 basechar 0
AnchorPoint: "Anchor-4" 334 742 basechar 0
AnchorPoint: "Anchor-3" 0 0 basechar 0
AnchorPoint: "Anchor-2" 341 0 basechar 0
LayerCount: 2
Fore
SplineSet
599 14 m 2
 602 7 598 0 591 0 c 2
 563 0 l 2
 556 0 554 3 551 9 c 2
 409 345 l 2
 406 352 401 355 388 355 c 2
 172 355 l 2
 163 355 160 351 160 344 c 2
 160 11 l 2
 160 3 158 0 150 0 c 2
 124 0 l 2
 116 0 114 3 114 9 c 2
 114 732 l 2
 114 740 116 742 123 742 c 2
 381 742 l 2
 525 742 609 680 609 558 c 0
 609 435 526 384 457 366 c 0
 453 365 452 362 453 359 c 2
 599 14 l 2
346 395 m 2
 489 395 561 439 561 551 c 0
 561 653 501 702 380 702 c 2
 171 702 l 2
 163 702 160 700 160 694 c 2
 160 404 l 2
 160 398 162 395 167 395 c 2
 346 395 l 2
314 -236 m 2
 310 -236 308 -232 310 -228 c 2
 335 -174 l 2
 338 -168 336 -165 331 -165 c 2
 323 -165 l 2
 317 -165 315 -163 315 -156 c 2
 315 -90 l 2
 315 -84 318 -82 322 -82 c 2
 367 -82 l 2
 371 -82 373 -84 373 -89 c 2
 373 -165 l 2
 373 -167 372 -170 372 -171 c 2
 341 -230 l 2
 338 -235 335 -236 327 -236 c 2
 314 -236 l 2
EndSplineSet
Validated: 1
EndChar

StartChar: uni0210
Encoding: 528 528 137
Width: 679
GlyphClass: 2
Flags: MW
HStem: 0 21G<120 124 124 150 559.5 563 563 591> 355 40<167.5 172 172 346 346 388> 702 40<167 171 171 380>
VStem: 114 46<9 11 11 344 401 404 404 694> 561 48<496.5 602>
AnchorPoint: "Anchor-5" 0 0 basechar 0
AnchorPoint: "Anchor-4" 334 742 basechar 0
AnchorPoint: "Anchor-3" 0 0 basechar 0
AnchorPoint: "Anchor-2" 341 0 basechar 0
LayerCount: 2
Fore
SplineSet
164 959 m 2
 166 961 170 962 173 959 c 2
 290 826 l 2
 292 824 294 820 290 816 c 2
 281 803 l 2
 278 798 274 798 269 802 c 2
 145 919 l 2
 138 925 138 927 142 932 c 2
 164 959 l 2
304 959 m 2
 306 961 310 962 313 959 c 2
 430 826 l 2
 432 824 434 820 430 816 c 2
 421 803 l 2
 418 798 414 798 409 802 c 2
 285 919 l 2
 278 925 278 927 282 932 c 2
 304 959 l 2
599 14 m 2
 602 7 598 0 591 0 c 2
 563 0 l 2
 556 0 554 3 551 9 c 2
 409 345 l 2
 406 352 401 355 388 355 c 2
 172 355 l 2
 163 355 160 351 160 344 c 2
 160 11 l 2
 160 3 158 0 150 0 c 2
 124 0 l 2
 116 0 114 3 114 9 c 2
 114 732 l 2
 114 740 116 742 123 742 c 2
 381 742 l 2
 525 742 609 680 609 558 c 0
 609 435 526 384 457 366 c 0
 453 365 452 362 453 359 c 2
 599 14 l 2
346 395 m 2
 489 395 561 439 561 551 c 0
 561 653 501 702 380 702 c 2
 171 702 l 2
 163 702 160 700 160 694 c 2
 160 404 l 2
 160 398 162 395 167 395 c 2
 346 395 l 2
EndSplineSet
Validated: 1
EndChar

StartChar: uni1E5A
Encoding: 7770 7770 138
Width: 679
GlyphClass: 2
Flags: MW
HStem: -165 103<324 326 326 355> 0 21G<120 124 124 150 559.5 563 563 591> 355 40<167.5 172 172 346 346 388> 702 40<167 171 171 380>
VStem: 114 46<9 11 11 344 401 404 404 694> 315 52<-155 -153 -153 -72> 561 48<496.5 602>
AnchorPoint: "Anchor-5" 0 0 basechar 0
AnchorPoint: "Anchor-4" 334 742 basechar 0
AnchorPoint: "Anchor-3" 0 0 basechar 0
AnchorPoint: "Anchor-2" 341 0 basechar 0
LayerCount: 2
Fore
SplineSet
599 14 m 2
 602 7 598 0 591 0 c 2
 563 0 l 2
 556 0 554 3 551 9 c 2
 409 345 l 2
 406 352 401 355 388 355 c 2
 172 355 l 2
 163 355 160 351 160 344 c 2
 160 11 l 2
 160 3 158 0 150 0 c 2
 124 0 l 2
 116 0 114 3 114 9 c 2
 114 732 l 2
 114 740 116 742 123 742 c 2
 381 742 l 2
 525 742 609 680 609 558 c 0
 609 435 526 384 457 366 c 0
 453 365 452 362 453 359 c 2
 599 14 l 2
346 395 m 2
 489 395 561 439 561 551 c 0
 561 653 501 702 380 702 c 2
 171 702 l 2
 163 702 160 700 160 694 c 2
 160 404 l 2
 160 398 162 395 167 395 c 2
 346 395 l 2
367 -72 m 2
 367 -153 l 2
 367 -163 365 -165 355 -165 c 2
 326 -165 l 2
 317 -165 315 -163 315 -155 c 2
 315 -72 l 2
 315 -64 317 -62 324 -62 c 2
 358 -62 l 2
 365 -62 367 -64 367 -72 c 2
EndSplineSet
Validated: 1
EndChar

StartChar: uni0212
Encoding: 530 530 139
Width: 679
GlyphClass: 2
Flags: MW
HStem: 0 21G<120 124 124 150 559.5 563 563 591> 355 40<167.5 172 172 346 346 388> 702 40<167 171 171 380> 921 41<306.5 354>
VStem: 114 46<9 11 11 344 401 404 404 694> 561 48<496.5 602>
AnchorPoint: "Anchor-5" 0 0 basechar 0
AnchorPoint: "Anchor-4" 331 904 basechar 0
AnchorPoint: "Anchor-3" 0 0 basechar 0
AnchorPoint: "Anchor-2" 341 0 basechar 0
LayerCount: 2
Fore
SplineSet
455 870 m 2
 420 870 l 2
 416 870 414 871 411 876 c 0
 400 895 377 921 331 921 c 0
 282 921 266 890 256 877 c 0
 252 872 250 870 244 870 c 2
 209 870 l 2
 203 870 204 875 205 878 c 0
 217 914 254 962 331 962 c 0
 411 962 453 911 462 879 c 0
 464 872 463 870 455 870 c 2
599 14 m 2
 602 7 598 0 591 0 c 2
 563 0 l 2
 556 0 554 3 551 9 c 2
 409 345 l 2
 406 352 401 355 388 355 c 2
 172 355 l 2
 163 355 160 351 160 344 c 2
 160 11 l 2
 160 3 158 0 150 0 c 2
 124 0 l 2
 116 0 114 3 114 9 c 2
 114 732 l 2
 114 740 116 742 123 742 c 2
 381 742 l 2
 525 742 609 680 609 558 c 0
 609 435 526 384 457 366 c 0
 453 365 452 362 453 359 c 2
 599 14 l 2
346 395 m 2
 489 395 561 439 561 551 c 0
 561 653 501 702 380 702 c 2
 171 702 l 2
 163 702 160 700 160 694 c 2
 160 404 l 2
 160 398 162 395 167 395 c 2
 346 395 l 2
EndSplineSet
Validated: 1
EndChar

StartChar: S
Encoding: 83 83 140
Width: 618
GlyphClass: 2
Flags: MW
HStem: -10 42<255.5 368.5 255.5 384.5> 710 42<260.5 357>
VStem: 86 46<537.5 606.5 537.5 618.5> 507 46<126.5 209.5>
AnchorPoint: "Anchor-5" 0 0 basechar 0
AnchorPoint: "Anchor-4" 319 742 basechar 0
AnchorPoint: "Anchor-3" 0 0 basechar 0
AnchorPoint: "Anchor-2" 323 0 basechar 0
LayerCount: 2
Fore
SplineSet
500 627 m 0
 460 674 399 710 315 710 c 0
 206 710 132 656 132 557 c 0
 132 518 147 458 254 419 c 2
 392 369 l 2
 510 326 553 266 553 182 c 0
 553 60 460 -10 309 -10 c 0
 198 -10 120 29 61 113 c 0
 56 120 57 126 67 133 c 2
 78 141 l 2
 88 148 93 147 98 141 c 0
 154 69 202 32 309 32 c 0
 428 32 507 73 507 180 c 0
 507 239 484 280 375 322 c 2
 224 380 l 2
 116 421 86 492 86 556 c 0
 86 681 181 752 318 752 c 0
 411 752 478 716 535 656 c 0
 539 652 541 647 535 642 c 2
 513 622 l 2
 508 618 506 620 500 627 c 0
EndSplineSet
Validated: 1
EndChar

StartChar: Sacute
Encoding: 346 346 141
Width: 618
GlyphClass: 2
Flags: MW
HStem: -10 42<255.5 368.5 255.5 384.5> 710 42<260.5 357>
VStem: 86 46<537.5 606.5 537.5 618.5> 507 46<126.5 209.5>
AnchorPoint: "Anchor-5" 0 0 basechar 0
AnchorPoint: "Anchor-4" 319 742 basechar 0
AnchorPoint: "Anchor-3" 0 0 basechar 0
AnchorPoint: "Anchor-2" 323 0 basechar 0
LayerCount: 2
Fore
SplineSet
438 964 m 2
 448 932 l 2
 450 926 449 923 441 920 c 2
 214 846 l 2
 208 844 205 845 203 851 c 2
 198 866 l 2
 196 871 198 875 201 876 c 2
 430 967 l 2
 433 968 437 967 438 964 c 2
500 627 m 0
 460 674 399 710 315 710 c 0
 206 710 132 656 132 557 c 0
 132 518 147 458 254 419 c 2
 392 369 l 2
 510 326 553 266 553 182 c 0
 553 60 460 -10 309 -10 c 0
 198 -10 120 29 61 113 c 0
 56 120 57 126 67 133 c 2
 78 141 l 2
 88 148 93 147 98 141 c 0
 154 69 202 32 309 32 c 0
 428 32 507 73 507 180 c 0
 507 239 484 280 375 322 c 2
 224 380 l 2
 116 421 86 492 86 556 c 0
 86 681 181 752 318 752 c 0
 411 752 478 716 535 656 c 0
 539 652 541 647 535 642 c 2
 513 622 l 2
 508 618 506 620 500 627 c 0
EndSplineSet
Validated: 1
EndChar

StartChar: Scaron
Encoding: 352 352 142
Width: 618
GlyphClass: 2
Flags: MW
HStem: -10 42<255.5 368.5 255.5 384.5> 710 42<260.5 357> 856 38
VStem: 86 46<537.5 606.5 537.5 618.5> 507 46<126.5 209.5>
AnchorPoint: "Anchor-5" 0 0 basechar 0
AnchorPoint: "Anchor-4" 319 742 basechar 0
AnchorPoint: "Anchor-3" 0 0 basechar 0
AnchorPoint: "Anchor-2" 323 0 basechar 0
LayerCount: 2
Fore
SplineSet
387 948 m 2
 392 952 396 954 402 954 c 2
 443 954 l 2
 451 954 451 950 444 944 c 2
 346 864 l 2
 342 861 338 856 330 856 c 2
 312 856 l 2
 303 856 298 860 292 865 c 2
 193 944 l 2
 187 949 188 954 195 954 c 2
 232 954 l 2
 239 954 240 953 247 948 c 2
 309 900 l 2
 320 892 318 892 328 900 c 2
 387 948 l 2
500 627 m 0
 460 674 399 710 315 710 c 0
 206 710 132 656 132 557 c 0
 132 518 147 458 254 419 c 2
 392 369 l 2
 510 326 553 266 553 182 c 0
 553 60 460 -10 309 -10 c 0
 198 -10 120 29 61 113 c 0
 56 120 57 126 67 133 c 2
 78 141 l 2
 88 148 93 147 98 141 c 0
 154 69 202 32 309 32 c 0
 428 32 507 73 507 180 c 0
 507 239 484 280 375 322 c 2
 224 380 l 2
 116 421 86 492 86 556 c 0
 86 681 181 752 318 752 c 0
 411 752 478 716 535 656 c 0
 539 652 541 647 535 642 c 2
 513 622 l 2
 508 618 506 620 500 627 c 0
EndSplineSet
Validated: 1
EndChar

StartChar: Scedilla
Encoding: 350 350 143
Width: 618
GlyphClass: 2
Flags: MW
HStem: -204 30<281.5 313 277.5 323.5> -83 25 -10 42<301 301> 710 42<260.5 357>
VStem: 86 46<537.5 606.5 537.5 618.5> 352 44<-145 -115> 507 46<126.5 209.5>
AnchorPoint: "Anchor-5" 0 0 basechar 0
AnchorPoint: "Anchor-4" 319 742 basechar 0
AnchorPoint: "Anchor-3" 0 0 basechar 0
AnchorPoint: "Anchor-2" 323 0 basechar 0
LayerCount: 2
Fore
SplineSet
335 -9 m 1
 317 -55 l 2
 316 -57 317 -58 320 -58 c 0
 379 -64 396 -97 396 -129 c 0
 396 -179 351 -204 296 -204 c 0
 267 -204 244 -197 223 -183 c 0
 221 -182 219 -180 220 -177 c 2
 229 -157 l 2
 230 -155 233 -154 236 -156 c 0
 249 -167 263 -174 292 -174 c 0
 334 -174 352 -159 352 -131 c 0
 352 -99 327 -85 275 -83 c 0
 270 -83 270 -81 271 -79 c 2
 301 -10 l 1
 194 -8 119 31 61 113 c 0
 56 120 57 126 67 133 c 2
 78 141 l 2
 88 148 93 147 98 141 c 0
 154 69 202 32 309 32 c 0
 428 32 507 73 507 180 c 0
 507 239 484 280 375 322 c 2
 224 380 l 2
 116 421 86 492 86 556 c 0
 86 681 181 752 318 752 c 0
 411 752 478 716 535 656 c 0
 539 652 541 647 535 642 c 2
 513 622 l 2
 508 618 506 620 500 627 c 0
 460 674 399 710 315 710 c 0
 206 710 132 656 132 557 c 0
 132 518 147 458 254 419 c 2
 392 369 l 2
 510 326 553 266 553 182 c 0
 553 67 471 -1 335 -9 c 1
EndSplineSet
Validated: 1
Substitution2: "'locl' Localized Forms in Latin lookup 6 subtable" Scommaaccent
Substitution2: "'locl' Localized Forms in Latin lookup 5 subtable" Scommaaccent
Substitution2: "'aalt' Access All Alternates in Latin lookup 0 subtable" Scommaaccent
EndChar

StartChar: Scircumflex
Encoding: 348 348 144
Width: 618
GlyphClass: 2
Flags: MW
HStem: -10 42<255.5 368.5 255.5 384.5> 710 42<260.5 357> 916 38
VStem: 86 46<537.5 606.5 537.5 618.5> 507 46<126.5 209.5>
AnchorPoint: "Anchor-5" 0 0 basechar 0
AnchorPoint: "Anchor-4" 318 876 basechar 0
AnchorPoint: "Anchor-3" 0 0 basechar 0
AnchorPoint: "Anchor-2" 323 0 basechar 0
LayerCount: 2
Fore
SplineSet
387 862 m 2
 328 910 l 2
 318 918 320 918 309 910 c 2
 247 862 l 2
 240 857 239 856 232 856 c 2
 195 856 l 2
 188 856 187 861 193 866 c 2
 292 945 l 2
 298 950 303 954 312 954 c 2
 330 954 l 2
 338 954 342 949 346 946 c 2
 444 866 l 2
 451 860 451 856 443 856 c 2
 402 856 l 2
 396 856 392 858 387 862 c 2
500 627 m 0
 460 674 399 710 315 710 c 0
 206 710 132 656 132 557 c 0
 132 518 147 458 254 419 c 2
 392 369 l 2
 510 326 553 266 553 182 c 0
 553 60 460 -10 309 -10 c 0
 198 -10 120 29 61 113 c 0
 56 120 57 126 67 133 c 2
 78 141 l 2
 88 148 93 147 98 141 c 0
 154 69 202 32 309 32 c 0
 428 32 507 73 507 180 c 0
 507 239 484 280 375 322 c 2
 224 380 l 2
 116 421 86 492 86 556 c 0
 86 681 181 752 318 752 c 0
 411 752 478 716 535 656 c 0
 539 652 541 647 535 642 c 2
 513 622 l 2
 508 618 506 620 500 627 c 0
EndSplineSet
Validated: 1
EndChar

StartChar: Scommaaccent
Encoding: 536 536 145
Width: 618
GlyphClass: 2
Flags: MW
HStem: -165 83<304 305 305 313 304 355> -10 42<255.5 368.5 255.5 384.5> 710 42<260.5 357>
VStem: 86 46<537.5 606.5 537.5 618.5> 297 58<-156 -90 -90 -89> 507 46<126.5 209.5>
AnchorPoint: "Anchor-5" 0 0 basechar 0
AnchorPoint: "Anchor-4" 319 742 basechar 0
AnchorPoint: "Anchor-3" 0 0 basechar 0
AnchorPoint: "Anchor-2" 323 0 basechar 0
LayerCount: 2
Fore
SplineSet
500 627 m 0
 460 674 399 710 315 710 c 0
 206 710 132 656 132 557 c 0
 132 518 147 458 254 419 c 2
 392 369 l 2
 510 326 553 266 553 182 c 0
 553 60 460 -10 309 -10 c 0
 198 -10 120 29 61 113 c 0
 56 120 57 126 67 133 c 2
 78 141 l 2
 88 148 93 147 98 141 c 0
 154 69 202 32 309 32 c 0
 428 32 507 73 507 180 c 0
 507 239 484 280 375 322 c 2
 224 380 l 2
 116 421 86 492 86 556 c 0
 86 681 181 752 318 752 c 0
 411 752 478 716 535 656 c 0
 539 652 541 647 535 642 c 2
 513 622 l 2
 508 618 506 620 500 627 c 0
296 -236 m 2
 292 -236 290 -232 292 -228 c 2
 317 -174 l 2
 320 -168 318 -165 313 -165 c 2
 305 -165 l 2
 299 -165 297 -163 297 -156 c 2
 297 -90 l 2
 297 -84 300 -82 304 -82 c 2
 349 -82 l 2
 353 -82 355 -84 355 -89 c 2
 355 -165 l 2
 355 -167 354 -170 354 -171 c 2
 323 -230 l 2
 320 -235 317 -236 309 -236 c 2
 296 -236 l 2
EndSplineSet
Validated: 1
EndChar

StartChar: uni1E62
Encoding: 7778 7778 146
Width: 618
GlyphClass: 2
Flags: MW
HStem: -165 103<306 308 308 337> -10 42<255.5 368.5 255.5 384.5> 710 42<260.5 357>
VStem: 86 46<537.5 606.5 537.5 618.5> 297 52<-155 -153 -153 -72> 507 46<126.5 209.5>
AnchorPoint: "Anchor-5" 0 0 basechar 0
AnchorPoint: "Anchor-4" 319 742 basechar 0
AnchorPoint: "Anchor-3" 0 0 basechar 0
AnchorPoint: "Anchor-2" 323 0 basechar 0
LayerCount: 2
Fore
SplineSet
500 627 m 0
 460 674 399 710 315 710 c 0
 206 710 132 656 132 557 c 0
 132 518 147 458 254 419 c 2
 392 369 l 2
 510 326 553 266 553 182 c 0
 553 60 460 -10 309 -10 c 0
 198 -10 120 29 61 113 c 0
 56 120 57 126 67 133 c 2
 78 141 l 2
 88 148 93 147 98 141 c 0
 154 69 202 32 309 32 c 0
 428 32 507 73 507 180 c 0
 507 239 484 280 375 322 c 2
 224 380 l 2
 116 421 86 492 86 556 c 0
 86 681 181 752 318 752 c 0
 411 752 478 716 535 656 c 0
 539 652 541 647 535 642 c 2
 513 622 l 2
 508 618 506 620 500 627 c 0
349 -72 m 2
 349 -153 l 2
 349 -163 347 -165 337 -165 c 2
 308 -165 l 2
 299 -165 297 -163 297 -155 c 2
 297 -72 l 2
 297 -64 299 -62 306 -62 c 2
 340 -62 l 2
 347 -62 349 -64 349 -72 c 2
EndSplineSet
Validated: 1
EndChar

StartChar: uni018F
Encoding: 399 399 147
Width: 757
Flags: MW
HStem: -10 43<280.5 477 280.5 493.5> 338 42<135 138 138 621 621 623.5 86 627> 709 43<274.5 488>
VStem: 78 52<271.5 334 262 372> 627 52<338 338 383.5 445>
LayerCount: 2
Fore
SplineSet
627 386 m 0
 627 504 597 709 379 709 c 0
 170 709 152 531 138 500 c 0
 137 498 135 499 131 500 c 2
 93 513 l 2
 89 514 90 517 92 522 c 0
 107 560 151 752 379 752 c 0
 629 752 679 531 679 366 c 0
 679 180 608 -10 379 -10 c 0
 144 -10 78 174 78 369 c 0
 78 375 78 380 86 380 c 2
 621 380 l 2
 626 380 627 381 627 386 c 0
627 338 m 1
 138 338 l 2
 132 338 130 336 130 332 c 0
 130 192 182 33 379 33 c 0
 575 33 624 191 627 338 c 1
EndSplineSet
Validated: 1
EndChar

StartChar: T
Encoding: 84 84 148
Width: 623
GlyphClass: 2
Flags: MW
HStem: 0 21G<305 309 309 336> 702 40<54 55 55 289 351 355 355 568>
VStem: 299 46<10 693>
AnchorPoint: "Anchor-5" 0 0 basechar 0
AnchorPoint: "Anchor-4" 323 742 basechar 0
AnchorPoint: "Anchor-3" 0 0 basechar 0
AnchorPoint: "Anchor-2" 323 0 basechar 0
LayerCount: 2
Fore
SplineSet
47 709 m 6
 47 735 l 6
 47 740 49 742 54 742 c 6
 569 742 l 6
 574 742 576 740 576 735 c 6
 576 709 l 6
 576 703 574 702 568 702 c 6
 355 702 l 6
 347 702 345 701 345 693 c 6
 345 10 l 6
 345 2 343 0 336 0 c 6
 309 0 l 6
 301 0 299 2 299 10 c 6
 299 693 l 6
 299 701 297 702 289 702 c 6
 55 702 l 6
 49 702 47 703 47 709 c 6
EndSplineSet
Validated: 1
EndChar

StartChar: Tbar
Encoding: 358 358 149
Width: 623
GlyphClass: 2
Flags: MW
HStem: 0 21G<305 309 309 336> 360 42<145 148 148 299 345 491> 702 40<54 55 55 289 351 355 355 568>
VStem: 299 46<10 360 402 693>
AnchorPoint: "Anchor-5" 0 0 basechar 0
AnchorPoint: "Anchor-4" 323 742 basechar 0
AnchorPoint: "Anchor-3" 0 0 basechar 0
AnchorPoint: "Anchor-2" 323 0 basechar 0
LayerCount: 2
Fore
SplineSet
569 742 m 2
 574 742 576 740 576 735 c 2
 576 709 l 2
 576 703 574 702 568 702 c 2
 355 702 l 2
 347 702 345 701 345 693 c 2
 345 402 l 1
 497 402 l 2
 502 402 504 399 504 394 c 2
 504 371 l 2
 504 363 500 360 491 360 c 2
 345 360 l 1
 345 10 l 2
 345 2 343 0 336 0 c 2
 309 0 l 2
 301 0 299 2 299 10 c 2
 299 360 l 1
 148 360 l 2
 140 360 138 363 138 370 c 2
 138 393 l 2
 138 399 140 402 145 402 c 2
 299 402 l 1
 299 693 l 2
 299 701 297 702 289 702 c 2
 55 702 l 2
 49 702 47 703 47 709 c 2
 47 735 l 2
 47 740 49 742 54 742 c 2
 569 742 l 2
EndSplineSet
Validated: 1
EndChar

StartChar: Tcaron
Encoding: 356 356 150
Width: 623
GlyphClass: 2
Flags: MW
HStem: 0 21G<305 309 309 336> 702 40<54 55 55 289 351 355 355 568> 856 38
VStem: 299 46<10 693>
AnchorPoint: "Anchor-5" 0 0 basechar 0
AnchorPoint: "Anchor-4" 323 742 basechar 0
AnchorPoint: "Anchor-3" 0 0 basechar 0
AnchorPoint: "Anchor-2" 323 0 basechar 0
LayerCount: 2
Fore
SplineSet
391 948 m 2
 396 952 400 954 406 954 c 2
 447 954 l 2
 455 954 455 950 448 944 c 2
 350 864 l 2
 346 861 342 856 334 856 c 2
 316 856 l 2
 307 856 302 860 296 865 c 2
 197 944 l 2
 191 949 192 954 199 954 c 2
 236 954 l 2
 243 954 244 953 251 948 c 2
 313 900 l 2
 324 892 322 892 332 900 c 2
 391 948 l 2
47 709 m 2
 47 735 l 2
 47 740 49 742 54 742 c 2
 569 742 l 2
 574 742 576 740 576 735 c 2
 576 709 l 2
 576 703 574 702 568 702 c 2
 355 702 l 2
 347 702 345 701 345 693 c 2
 345 10 l 2
 345 2 343 0 336 0 c 2
 309 0 l 2
 301 0 299 2 299 10 c 2
 299 693 l 2
 299 701 297 702 289 702 c 2
 55 702 l 2
 49 702 47 703 47 709 c 2
EndSplineSet
Validated: 1
EndChar

StartChar: uni0162
Encoding: 354 354 151
Width: 623
GlyphClass: 2
Flags: MW
HStem: -204 30<281.5 313 277.5 323.5> -83 25 0 21G<305 305 339 339> 702 40<54 55 55 289 351 355 355 568>
VStem: 299 46<10 693> 352 44<-145 -115>
AnchorPoint: "Anchor-5" 0 0 basechar 0
AnchorPoint: "Anchor-4" 323 742 basechar 0
AnchorPoint: "Anchor-3" 0 0 basechar 0
AnchorPoint: "Anchor-2" 323 0 basechar 0
LayerCount: 2
Fore
SplineSet
569 742 m 2
 574 742 576 740 576 735 c 2
 576 709 l 2
 576 703 574 702 568 702 c 2
 355 702 l 2
 347 702 345 701 345 693 c 2
 345 10 l 2
 345 3 344 1 339 0 c 1xb8
 317 -55 l 2
 316 -57 317 -58 320 -58 c 0
 379 -64 396 -97 396 -129 c 0
 396 -179 351 -204 296 -204 c 0
 267 -204 244 -197 223 -183 c 0
 221 -182 219 -180 220 -177 c 2
 229 -157 l 2
 230 -155 233 -154 236 -156 c 0
 249 -167 263 -174 292 -174 c 0
 334 -174 352 -159 352 -131 c 0
 352 -99 327 -85 275 -83 c 0
 270 -83 270 -81 271 -79 c 2xf4
 305 0 l 1
 300 1 299 4 299 10 c 2
 299 693 l 2
 299 701 297 702 289 702 c 2
 55 702 l 2
 49 702 47 703 47 709 c 2
 47 735 l 2
 47 740 49 742 54 742 c 2
 569 742 l 2
EndSplineSet
Validated: 1
Substitution2: "'locl' Localized Forms in Latin lookup 6 subtable" uni021A
Substitution2: "'locl' Localized Forms in Latin lookup 5 subtable" uni021A
Substitution2: "'aalt' Access All Alternates in Latin lookup 0 subtable" uni021A
EndChar

StartChar: uni021A
Encoding: 538 538 152
Width: 623
GlyphClass: 2
Flags: MW
HStem: -165 83<304 305 305 313 304 355> 0 21G<305 309 309 336> 702 40<54 55 55 289 351 355 355 568>
VStem: 297 58<-156 -90 -90 -89> 299 46<10 693>
AnchorPoint: "Anchor-5" 0 0 basechar 0
AnchorPoint: "Anchor-4" 323 742 basechar 0
AnchorPoint: "Anchor-3" 0 0 basechar 0
AnchorPoint: "Anchor-2" 323 0 basechar 0
LayerCount: 2
Fore
SplineSet
47 709 m 2xe8
 47 735 l 2
 47 740 49 742 54 742 c 2
 569 742 l 2
 574 742 576 740 576 735 c 2
 576 709 l 2
 576 703 574 702 568 702 c 2
 355 702 l 2
 347 702 345 701 345 693 c 2
 345 10 l 2
 345 2 343 0 336 0 c 2
 309 0 l 2
 301 0 299 2 299 10 c 2
 299 693 l 2
 299 701 297 702 289 702 c 2
 55 702 l 2
 49 702 47 703 47 709 c 2xe8
296 -236 m 2xf0
 292 -236 290 -232 292 -228 c 2
 317 -174 l 2
 320 -168 318 -165 313 -165 c 2
 305 -165 l 2
 299 -165 297 -163 297 -156 c 2
 297 -90 l 2
 297 -84 300 -82 304 -82 c 2
 349 -82 l 2
 353 -82 355 -84 355 -89 c 2
 355 -165 l 2
 355 -167 354 -170 354 -171 c 2
 323 -230 l 2
 320 -235 317 -236 309 -236 c 2
 296 -236 l 2xf0
EndSplineSet
Validated: 1
EndChar

StartChar: uni1E6C
Encoding: 7788 7788 153
Width: 623
GlyphClass: 2
Flags: MW
HStem: -165 103<306 308 308 337> 0 21G<305 309 309 336> 702 40<54 55 55 289 351 355 355 568>
VStem: 297 52<-155 -153 -153 -72> 299 46<10 693>
AnchorPoint: "Anchor-5" 0 0 basechar 0
AnchorPoint: "Anchor-4" 323 742 basechar 0
AnchorPoint: "Anchor-3" 0 0 basechar 0
AnchorPoint: "Anchor-2" 323 0 basechar 0
LayerCount: 2
Fore
SplineSet
47 709 m 2xe8
 47 735 l 2
 47 740 49 742 54 742 c 2
 569 742 l 2
 574 742 576 740 576 735 c 2
 576 709 l 2
 576 703 574 702 568 702 c 2
 355 702 l 2
 347 702 345 701 345 693 c 2
 345 10 l 2
 345 2 343 0 336 0 c 2
 309 0 l 2
 301 0 299 2 299 10 c 2
 299 693 l 2
 299 701 297 702 289 702 c 2
 55 702 l 2
 49 702 47 703 47 709 c 2xe8
349 -72 m 2xf0
 349 -153 l 2
 349 -163 347 -165 337 -165 c 2
 308 -165 l 2
 299 -165 297 -163 297 -155 c 2
 297 -72 l 2
 297 -64 299 -62 306 -62 c 2
 340 -62 l 2
 347 -62 349 -64 349 -72 c 2xf0
EndSplineSet
Validated: 1
EndChar

StartChar: U
Encoding: 85 85 154
Width: 702
GlyphClass: 2
Flags: MW
HStem: -10 42<285 422 285 434> 722 20G<112 140 140 144 566 590 590 593>
VStem: 104 46<245 731 731 732> 558 40<229 230 230 733>
AnchorPoint: "Anchor-5" 632 742 basechar 0
AnchorPoint: "Anchor-4" 355 742 basechar 0
AnchorPoint: "Anchor-3" 423 9 basechar 0
AnchorPoint: "Anchor-2" 351 0 basechar 0
LayerCount: 2
Fore
SplineSet
598 230 m 2
 598 69 517 -10 351 -10 c 0
 183 -10 104 71 104 245 c 2
 104 731 l 2
 104 739 106 742 112 742 c 2
 140 742 l 2
 148 742 150 740 150 732 c 2
 150 226 l 2
 150 96 217 32 353 32 c 0
 491 32 558 97 558 229 c 2
 558 733 l 2
 558 739 560 742 566 742 c 2
 590 742 l 2
 596 742 598 739 598 733 c 2
 598 230 l 2
EndSplineSet
Validated: 1
EndChar

StartChar: Uacute
Encoding: 218 218 155
Width: 702
GlyphClass: 2
Flags: MW
HStem: -10 42<285 422 285 434> 722 20G<112 140 140 144 566 590 590 593>
VStem: 104 46<245 731 731 732> 558 40<229 230 230 733>
AnchorPoint: "Anchor-5" 632 742 basechar 0
AnchorPoint: "Anchor-4" 355 742 basechar 0
AnchorPoint: "Anchor-3" 423 9 basechar 0
AnchorPoint: "Anchor-2" 351 0 basechar 0
LayerCount: 2
Fore
SplineSet
474 964 m 2
 484 932 l 2
 486 926 485 923 477 920 c 2
 250 846 l 2
 244 844 241 845 239 851 c 2
 234 866 l 2
 232 871 234 875 237 876 c 2
 466 967 l 2
 469 968 473 967 474 964 c 2
598 230 m 2
 598 69 517 -10 351 -10 c 0
 183 -10 104 71 104 245 c 2
 104 731 l 2
 104 739 106 742 112 742 c 2
 140 742 l 2
 148 742 150 740 150 732 c 2
 150 226 l 2
 150 96 217 32 353 32 c 0
 491 32 558 97 558 229 c 2
 558 733 l 2
 558 739 560 742 566 742 c 2
 590 742 l 2
 596 742 598 739 598 733 c 2
 598 230 l 2
EndSplineSet
Validated: 1
EndChar

StartChar: Ubreve
Encoding: 364 364 156
Width: 702
GlyphClass: 2
Flags: MW
HStem: -10 42<285 422 285 434> 722 20G<112 140 140 144 566 590 590 593> 862 41<328.5 376 328.5 393>
VStem: 104 46<245 731 731 732> 558 40<229 230 230 733>
AnchorPoint: "Anchor-5" 632 742 basechar 0
AnchorPoint: "Anchor-4" 353 920 basechar 0
AnchorPoint: "Anchor-3" 423 9 basechar 0
AnchorPoint: "Anchor-2" 351 0 basechar 0
LayerCount: 2
Fore
SplineSet
477 954 m 2
 485 954 486 952 484 945 c 0
 475 913 433 862 353 862 c 0
 276 862 239 910 227 946 c 0
 226 949 225 954 231 954 c 2
 266 954 l 2
 272 954 274 952 278 947 c 0
 288 934 304 903 353 903 c 0
 399 903 422 929 433 948 c 0
 436 953 438 954 442 954 c 2
 477 954 l 2
598 230 m 2
 598 69 517 -10 351 -10 c 0
 183 -10 104 71 104 245 c 2
 104 731 l 2
 104 739 106 742 112 742 c 2
 140 742 l 2
 148 742 150 740 150 732 c 2
 150 226 l 2
 150 96 217 32 353 32 c 0
 491 32 558 97 558 229 c 2
 558 733 l 2
 558 739 560 742 566 742 c 2
 590 742 l 2
 596 742 598 739 598 733 c 2
 598 230 l 2
EndSplineSet
Validated: 1
EndChar

StartChar: Ucircumflex
Encoding: 219 219 157
Width: 702
GlyphClass: 2
Flags: MW
HStem: -10 42<285 422 285 434> 722 20G<112 140 140 144 566 590 590 593> 916 38
VStem: 104 46<245 731 731 732> 558 40<229 230 230 733>
AnchorPoint: "Anchor-5" 632 742 basechar 0
AnchorPoint: "Anchor-4" 354 876 basechar 0
AnchorPoint: "Anchor-3" 423 9 basechar 0
AnchorPoint: "Anchor-2" 351 0 basechar 0
LayerCount: 2
Fore
SplineSet
423 862 m 2
 364 910 l 2
 354 918 356 918 345 910 c 2
 283 862 l 2
 276 857 275 856 268 856 c 2
 231 856 l 2
 224 856 223 861 229 866 c 2
 328 945 l 2
 334 950 339 954 348 954 c 2
 366 954 l 2
 374 954 378 949 382 946 c 2
 480 866 l 2
 487 860 487 856 479 856 c 2
 438 856 l 2
 432 856 428 858 423 862 c 2
598 230 m 2
 598 69 517 -10 351 -10 c 0
 183 -10 104 71 104 245 c 2
 104 731 l 2
 104 739 106 742 112 742 c 2
 140 742 l 2
 148 742 150 740 150 732 c 2
 150 226 l 2
 150 96 217 32 353 32 c 0
 491 32 558 97 558 229 c 2
 558 733 l 2
 558 739 560 742 566 742 c 2
 590 742 l 2
 596 742 598 739 598 733 c 2
 598 230 l 2
EndSplineSet
Validated: 1
EndChar

StartChar: uni0214
Encoding: 532 532 158
Width: 702
GlyphClass: 2
Flags: MW
HStem: -10 42<285 422 285 434> 722 20G<112 140 140 144 566 590 590 593>
VStem: 104 46<245 731 731 732> 558 40<229 230 230 733>
AnchorPoint: "Anchor-5" 632 742 basechar 0
AnchorPoint: "Anchor-4" 355 742 basechar 0
AnchorPoint: "Anchor-3" 423 9 basechar 0
AnchorPoint: "Anchor-2" 351 0 basechar 0
LayerCount: 2
Fore
SplineSet
185 959 m 2
 187 961 191 962 194 959 c 2
 311 826 l 2
 313 824 315 820 311 816 c 2
 302 803 l 2
 299 798 295 798 290 802 c 2
 166 919 l 2
 159 925 159 927 163 932 c 2
 185 959 l 2
325 959 m 2
 327 961 331 962 334 959 c 2
 451 826 l 2
 453 824 455 820 451 816 c 2
 442 803 l 2
 439 798 435 798 430 802 c 2
 306 919 l 2
 299 925 299 927 303 932 c 2
 325 959 l 2
598 230 m 2
 598 69 517 -10 351 -10 c 0
 183 -10 104 71 104 245 c 2
 104 731 l 2
 104 739 106 742 112 742 c 2
 140 742 l 2
 148 742 150 740 150 732 c 2
 150 226 l 2
 150 96 217 32 353 32 c 0
 491 32 558 97 558 229 c 2
 558 733 l 2
 558 739 560 742 566 742 c 2
 590 742 l 2
 596 742 598 739 598 733 c 2
 598 230 l 2
EndSplineSet
Validated: 1
EndChar

StartChar: Udieresis
Encoding: 220 220 159
Width: 702
GlyphClass: 2
Flags: MW
HStem: -10 42<285 422 285 434> 722 20G<112 140 140 144 566 590 590 593> 856 98<283 285 285 312 394 396 396 423>
VStem: 104 46<245 731 731 732> 274 50<866 868 868 944> 385 50<866 868 868 944> 558 40<229 230 230 733>
AnchorPoint: "Anchor-5" 632 742 basechar 0
AnchorPoint: "Anchor-4" 355 742 basechar 0
AnchorPoint: "Anchor-3" 423 9 basechar 0
AnchorPoint: "Anchor-2" 351 0 basechar 0
LayerCount: 2
Fore
SplineSet
324 944 m 2
 324 868 l 2
 324 858 322 856 312 856 c 2
 285 856 l 2
 276 856 274 858 274 866 c 2
 274 944 l 2
 274 952 276 954 283 954 c 2
 315 954 l 2
 322 954 324 952 324 944 c 2
435 944 m 2
 435 868 l 2
 435 858 433 856 423 856 c 2
 396 856 l 2
 387 856 385 858 385 866 c 2
 385 944 l 2
 385 952 387 954 394 954 c 2
 426 954 l 2
 433 954 435 952 435 944 c 2
598 230 m 2
 598 69 517 -10 351 -10 c 0
 183 -10 104 71 104 245 c 2
 104 731 l 2
 104 739 106 742 112 742 c 2
 140 742 l 2
 148 742 150 740 150 732 c 2
 150 226 l 2
 150 96 217 32 353 32 c 0
 491 32 558 97 558 229 c 2
 558 733 l 2
 558 739 560 742 566 742 c 2
 590 742 l 2
 596 742 598 739 598 733 c 2
 598 230 l 2
EndSplineSet
Validated: 1
EndChar

StartChar: uni1EE4
Encoding: 7908 7908 160
Width: 702
GlyphClass: 2
Flags: MW
HStem: -165 103<334 336 336 365> -10 42<285 422 285 434> 722 20G<112 140 140 144 566 590 590 593>
VStem: 104 46<245 731 731 732> 325 52<-155 -153 -153 -72> 558 40<229 230 230 733>
AnchorPoint: "Anchor-5" 632 742 basechar 0
AnchorPoint: "Anchor-4" 355 742 basechar 0
AnchorPoint: "Anchor-3" 423 9 basechar 0
AnchorPoint: "Anchor-2" 351 0 basechar 0
LayerCount: 2
Fore
SplineSet
598 230 m 2
 598 69 517 -10 351 -10 c 0
 183 -10 104 71 104 245 c 2
 104 731 l 2
 104 739 106 742 112 742 c 2
 140 742 l 2
 148 742 150 740 150 732 c 2
 150 226 l 2
 150 96 217 32 353 32 c 0
 491 32 558 97 558 229 c 2
 558 733 l 2
 558 739 560 742 566 742 c 2
 590 742 l 2
 596 742 598 739 598 733 c 2
 598 230 l 2
377 -72 m 2
 377 -153 l 2
 377 -163 375 -165 365 -165 c 2
 336 -165 l 2
 327 -165 325 -163 325 -155 c 2
 325 -72 l 2
 325 -64 327 -62 334 -62 c 2
 368 -62 l 2
 375 -62 377 -64 377 -72 c 2
EndSplineSet
Validated: 1
EndChar

StartChar: Ugrave
Encoding: 217 217 161
Width: 702
GlyphClass: 2
Flags: MW
HStem: -10 42<285 422 285 434> 722 20G<112 140 140 144 566 590 590 593>
VStem: 104 46<245 731 731 732> 558 40<229 230 230 733>
AnchorPoint: "Anchor-5" 632 742 basechar 0
AnchorPoint: "Anchor-4" 355 742 basechar 0
AnchorPoint: "Anchor-3" 423 9 basechar 0
AnchorPoint: "Anchor-2" 351 0 basechar 0
LayerCount: 2
Fore
SplineSet
247 960 m 2
 248 963 252 964 255 963 c 2
 484 872 l 2
 487 871 489 867 487 862 c 2
 482 847 l 2
 480 841 477 840 471 842 c 2
 244 916 l 2
 236 919 235 922 237 928 c 2
 247 960 l 2
598 230 m 2
 598 69 517 -10 351 -10 c 0
 183 -10 104 71 104 245 c 2
 104 731 l 2
 104 739 106 742 112 742 c 2
 140 742 l 2
 148 742 150 740 150 732 c 2
 150 226 l 2
 150 96 217 32 353 32 c 0
 491 32 558 97 558 229 c 2
 558 733 l 2
 558 739 560 742 566 742 c 2
 590 742 l 2
 596 742 598 739 598 733 c 2
 598 230 l 2
EndSplineSet
Validated: 1
EndChar

StartChar: uni1EE6
Encoding: 7910 7910 162
Width: 702
GlyphClass: 2
Flags: HMW
HStem: -10 42<285 422 285 434> 722 20G<112 140 140 144 566 590 590 593>
VStem: 104 46<245 731 731 732> 558 40<229 230 230 733>
AnchorPoint: "Anchor-5" 632 742 basechar 0
AnchorPoint: "Anchor-4" 355 742 basechar 0
AnchorPoint: "Anchor-3" 423 9 basechar 0
AnchorPoint: "Anchor-2" 351 0 basechar 0
LayerCount: 2
Fore
SplineSet
276 945 m 0
 295 957 322 967 342 967 c 0
 385 967 413 942 413 902 c 0
 413 871 388 842 357 811 c 0
 355 809 353 810 351 812 c 2
 337 829 l 2
 335 831 336 834 338 836 c 0
 362 860 381 883 381 900 c 0
 381 925 364 933 339 933 c 0
 322 933 306 924 289 913 c 0
 286 911 285 913 284 915 c 2
 274 938 l 2
 272 942 273 943 276 945 c 0
598 230 m 2
 598 69 517 -10 351 -10 c 0
 183 -10 104 71 104 245 c 2
 104 731 l 2
 104 739 106 742 112 742 c 2
 140 742 l 2
 148 742 150 740 150 732 c 2
 150 226 l 2
 150 96 217 32 353 32 c 0
 491 32 558 97 558 229 c 2
 558 733 l 2
 558 739 560 742 566 742 c 2
 590 742 l 2
 596 742 598 739 598 733 c 2
 598 230 l 2
EndSplineSet
Validated: 1
EndChar

StartChar: Uhorn
Encoding: 431 431 163
Width: 702
GlyphClass: 2
Flags: MW
HStem: -10 42<285 422 285 434> 722 20G<112 140 140 144 566 574 574 574> 723 20G<574 597.5>
VStem: 104 46<245 731 731 732> 558 40<229 230 230 705>
AnchorPoint: "Anchor-5" 632 742 basechar 0
AnchorPoint: "Anchor-4" 355 742 basechar 0
AnchorPoint: "Anchor-3" 423 9 basechar 0
AnchorPoint: "Anchor-2" 351 0 basechar 0
LayerCount: 2
Fore
SplineSet
687 803 m 2xb8
 695 803 696 800 694 792 c 0
 684 761 657 716 598 705 c 1xb8
 598 230 l 2
 598 69 517 -10 351 -10 c 0
 183 -10 104 71 104 245 c 2
 104 731 l 2
 104 739 106 742 112 742 c 2
 140 742 l 2
 148 742 150 740 150 732 c 2xd8
 150 226 l 2
 150 96 217 32 353 32 c 0
 491 32 558 97 558 229 c 2
 558 733 l 2
 558 739 560 742 566 742 c 2
 574 742 l 1
 574 743 l 1
 621 743 637 775 645 799 c 0
 647 804 651 803 655 803 c 2
 687 803 l 2xb8
EndSplineSet
Validated: 1
EndChar

StartChar: uni1EE8
Encoding: 7912 7912 164
Width: 702
GlyphClass: 2
Flags: MW
HStem: -10 42<285 422 285 434> 722 20G<112 140 140 144 566 574 574 574> 723 20G<574 597.5>
VStem: 104 46<245 731 731 732> 558 40<229 230 230 705>
AnchorPoint: "Anchor-5" 632 742 basechar 0
AnchorPoint: "Anchor-4" 355 742 basechar 0
AnchorPoint: "Anchor-3" 423 9 basechar 0
AnchorPoint: "Anchor-2" 351 0 basechar 0
LayerCount: 2
Fore
SplineSet
239 851 m 2xb8
 234 866 l 2
 232 871 234 875 237 876 c 2
 466 967 l 2
 469 968 473 967 474 964 c 2
 484 932 l 2
 486 926 485 923 477 920 c 2
 250 846 l 2
 244 844 241 845 239 851 c 2xb8
687 803 m 2
 695 803 696 800 694 792 c 0
 684 761 657 716 598 705 c 1xb8
 598 230 l 2
 598 69 517 -10 351 -10 c 0
 183 -10 104 71 104 245 c 2
 104 731 l 2
 104 739 106 742 112 742 c 2
 140 742 l 2
 148 742 150 740 150 732 c 2xd8
 150 226 l 2
 150 96 217 32 353 32 c 0
 491 32 558 97 558 229 c 2
 558 733 l 2
 558 739 560 742 566 742 c 2
 574 742 l 1
 574 743 l 1
 621 743 637 775 645 799 c 0
 647 804 651 803 655 803 c 2
 687 803 l 2
EndSplineSet
Validated: 1
EndChar

StartChar: uni1EF0
Encoding: 7920 7920 165
Width: 702
GlyphClass: 2
Flags: MW
HStem: -165 103<334 336 336 365> -10 42<285 422 285 434> 722 20G<112 140 140 144 566 574 574 574> 723 20G<574 597.5>
VStem: 104 46<245 731 731 732> 325 52<-155 -153 -153 -72> 558 40<229 230 230 705>
AnchorPoint: "Anchor-5" 632 742 basechar 0
AnchorPoint: "Anchor-4" 355 742 basechar 0
AnchorPoint: "Anchor-3" 423 9 basechar 0
AnchorPoint: "Anchor-2" 351 0 basechar 0
LayerCount: 2
Fore
SplineSet
687 803 m 2xde
 695 803 696 800 694 792 c 0
 684 761 657 716 598 705 c 1xde
 598 230 l 2
 598 69 517 -10 351 -10 c 0
 183 -10 104 71 104 245 c 2
 104 731 l 2
 104 739 106 742 112 742 c 2
 140 742 l 2
 148 742 150 740 150 732 c 2xee
 150 226 l 2
 150 96 217 32 353 32 c 0
 491 32 558 97 558 229 c 2
 558 733 l 2
 558 739 560 742 566 742 c 2
 574 742 l 1
 574 743 l 1
 621 743 637 775 645 799 c 0
 647 804 651 803 655 803 c 2
 687 803 l 2xde
368 -62 m 2
 375 -62 377 -64 377 -72 c 2
 377 -153 l 2
 377 -163 375 -165 365 -165 c 2
 336 -165 l 2
 327 -165 325 -163 325 -155 c 2
 325 -72 l 2
 325 -64 327 -62 334 -62 c 2
 368 -62 l 2
EndSplineSet
Validated: 1
EndChar

StartChar: uni1EEA
Encoding: 7914 7914 166
Width: 702
GlyphClass: 2
Flags: MW
HStem: -10 42<285 422 285 434> 722 20G<112 140 140 144 566 574 574 574> 723 20G<574 597.5>
VStem: 104 46<245 731 731 732> 558 40<229 230 230 705>
AnchorPoint: "Anchor-5" 632 742 basechar 0
AnchorPoint: "Anchor-4" 355 742 basechar 0
AnchorPoint: "Anchor-3" 423 9 basechar 0
AnchorPoint: "Anchor-2" 351 0 basechar 0
LayerCount: 2
Fore
SplineSet
244 916 m 2xb8
 236 919 235 922 237 928 c 2
 247 960 l 2
 248 963 252 964 255 963 c 2
 484 872 l 2
 487 871 489 867 487 862 c 2
 482 847 l 2
 480 841 477 840 471 842 c 2
 244 916 l 2xb8
687 803 m 2
 695 803 696 800 694 792 c 0
 684 761 657 716 598 705 c 1xb8
 598 230 l 2
 598 69 517 -10 351 -10 c 0
 183 -10 104 71 104 245 c 2
 104 731 l 2
 104 739 106 742 112 742 c 2
 140 742 l 2
 148 742 150 740 150 732 c 2xd8
 150 226 l 2
 150 96 217 32 353 32 c 0
 491 32 558 97 558 229 c 2
 558 733 l 2
 558 739 560 742 566 742 c 2
 574 742 l 1
 574 743 l 1
 621 743 637 775 645 799 c 0
 647 804 651 803 655 803 c 2
 687 803 l 2
EndSplineSet
Validated: 1
EndChar

StartChar: uni1EEC
Encoding: 7916 7916 167
Width: 702
GlyphClass: 2
Flags: MW
HStem: -10 42<285 422 285 434> 722 20G<112 140 140 144 566 574 574 574> 723 20G<574 597.5> 933 34<332 351.5>
VStem: 104 46<245 731 731 732> 381 32<891.5 912.5> 558 40<229 230 230 705>
AnchorPoint: "Anchor-5" 632 742 basechar 0
AnchorPoint: "Anchor-4" 355 742 basechar 0
AnchorPoint: "Anchor-3" 423 9 basechar 0
AnchorPoint: "Anchor-2" 351 0 basechar 0
LayerCount: 2
Fore
SplineSet
284 915 m 2xbe
 274 938 l 2
 272 942 273 943 276 945 c 0
 295 957 322 967 342 967 c 0
 385 967 413 942 413 902 c 0
 413 871 388 842 357 811 c 0
 355 809 353 810 351 812 c 2
 337 829 l 2
 335 831 336 834 338 836 c 0
 362 860 381 883 381 900 c 0
 381 925 364 933 339 933 c 0
 322 933 306 924 289 913 c 0
 286 911 285 913 284 915 c 2xbe
687 803 m 2
 695 803 696 800 694 792 c 0
 684 761 657 716 598 705 c 1xbe
 598 230 l 2
 598 69 517 -10 351 -10 c 0
 183 -10 104 71 104 245 c 2
 104 731 l 2
 104 739 106 742 112 742 c 2
 140 742 l 2
 148 742 150 740 150 732 c 2xde
 150 226 l 2
 150 96 217 32 353 32 c 0
 491 32 558 97 558 229 c 2
 558 733 l 2
 558 739 560 742 566 742 c 2
 574 742 l 1
 574 743 l 1
 621 743 637 775 645 799 c 0
 647 804 651 803 655 803 c 2
 687 803 l 2
EndSplineSet
Validated: 1
EndChar

StartChar: uni1EEE
Encoding: 7918 7918 168
Width: 702
GlyphClass: 2
Flags: MW
HStem: -10 42<285 422 285 434> 722 20G<112 140 140 144 566 574 574 574> 723 20G<574 597.5> 885 33<392 425 392 431> 909 34<284 317 280 319.5>
VStem: 104 46<245 731 731 732> 558 40<229 230 230 705>
AnchorPoint: "Anchor-5" 632 742 basechar 0
AnchorPoint: "Anchor-4" 355 742 basechar 0
AnchorPoint: "Anchor-3" 423 9 basechar 0
AnchorPoint: "Anchor-2" 351 0 basechar 0
LayerCount: 2
Fore
SplineSet
232 893 m 2xae
 225 909 l 2
 223 914 224 915 227 917 c 0
 247 931 265 943 295 943 c 0xae
 339 943 370 918 414 918 c 0
 436 918 447 924 464 934 c 0
 471 938 474 937 477 931 c 2
 485 913 l 2
 487 909 486 908 480 904 c 0
 467 896 449 885 413 885 c 0xb6
 361 885 340 909 299 909 c 0
 269 909 256 896 243 889 c 0
 237 886 235 886 232 893 c 2xae
687 803 m 2
 695 803 696 800 694 792 c 0
 684 761 657 716 598 705 c 1xb6
 598 230 l 2
 598 69 517 -10 351 -10 c 0
 183 -10 104 71 104 245 c 2
 104 731 l 2
 104 739 106 742 112 742 c 2
 140 742 l 2
 148 742 150 740 150 732 c 2xd6
 150 226 l 2
 150 96 217 32 353 32 c 0
 491 32 558 97 558 229 c 2
 558 733 l 2
 558 739 560 742 566 742 c 2
 574 742 l 1
 574 743 l 1
 621 743 637 775 645 799 c 0
 647 804 651 803 655 803 c 2
 687 803 l 2
EndSplineSet
Validated: 1
EndChar

StartChar: Uhungarumlaut
Encoding: 368 368 169
Width: 702
GlyphClass: 2
Flags: MW
HStem: -10 42<285 422 285 434> 722 20G<112 140 140 144 566 590 590 593>
VStem: 104 46<245 731 731 732> 558 40<229 230 230 733>
AnchorPoint: "Anchor-5" 632 742 basechar 0
AnchorPoint: "Anchor-4" 355 742 basechar 0
AnchorPoint: "Anchor-3" 423 9 basechar 0
AnchorPoint: "Anchor-2" 351 0 basechar 0
LayerCount: 2
Fore
SplineSet
385 959 m 2
 407 932 l 2
 411 927 411 925 404 919 c 2
 280 802 l 2
 275 798 271 798 268 803 c 2
 259 816 l 2
 255 820 257 824 259 826 c 2
 376 959 l 2
 379 962 383 961 385 959 c 2
526 959 m 2
 548 932 l 2
 552 927 552 925 545 919 c 2
 421 802 l 2
 416 798 412 798 409 803 c 2
 400 816 l 2
 396 820 398 824 400 826 c 2
 517 959 l 2
 520 962 524 961 526 959 c 2
598 230 m 2
 598 69 517 -10 351 -10 c 0
 183 -10 104 71 104 245 c 2
 104 731 l 2
 104 739 106 742 112 742 c 2
 140 742 l 2
 148 742 150 740 150 732 c 2
 150 226 l 2
 150 96 217 32 353 32 c 0
 491 32 558 97 558 229 c 2
 558 733 l 2
 558 739 560 742 566 742 c 2
 590 742 l 2
 596 742 598 739 598 733 c 2
 598 230 l 2
EndSplineSet
Validated: 1
EndChar

StartChar: uni0216
Encoding: 534 534 170
Width: 702
GlyphClass: 2
Flags: MW
HStem: -10 42<285 422 285 434> 722 20G<112 140 140 144 566 590 590 593> 921 41<327.5 375>
VStem: 104 46<245 731 731 732> 558 40<229 230 230 733>
AnchorPoint: "Anchor-5" 632 742 basechar 0
AnchorPoint: "Anchor-4" 352 904 basechar 0
AnchorPoint: "Anchor-3" 423 9 basechar 0
AnchorPoint: "Anchor-2" 351 0 basechar 0
LayerCount: 2
Fore
SplineSet
476 870 m 2
 441 870 l 2
 437 870 435 871 432 876 c 0
 421 895 398 921 352 921 c 0
 303 921 287 890 277 877 c 0
 273 872 271 870 265 870 c 2
 230 870 l 2
 224 870 225 875 226 878 c 0
 238 914 275 962 352 962 c 0
 432 962 474 911 483 879 c 0
 485 872 484 870 476 870 c 2
598 230 m 2
 598 69 517 -10 351 -10 c 0
 183 -10 104 71 104 245 c 2
 104 731 l 2
 104 739 106 742 112 742 c 2
 140 742 l 2
 148 742 150 740 150 732 c 2
 150 226 l 2
 150 96 217 32 353 32 c 0
 491 32 558 97 558 229 c 2
 558 733 l 2
 558 739 560 742 566 742 c 2
 590 742 l 2
 596 742 598 739 598 733 c 2
 598 230 l 2
EndSplineSet
Validated: 1
EndChar

StartChar: Umacron
Encoding: 362 362 171
Width: 702
GlyphClass: 2
Flags: MW
HStem: -10 42<285 422 285 434> 722 20G<112 140 140 144 566 590 590 593> 896 38<234 236 236 471>
VStem: 104 46<245 731 731 732> 558 40<229 230 230 733>
AnchorPoint: "Anchor-5" 632 742 basechar 0
AnchorPoint: "Anchor-4" 355 742 basechar 0
AnchorPoint: "Anchor-3" 423 9 basechar 0
AnchorPoint: "Anchor-2" 351 0 basechar 0
LayerCount: 2
Fore
SplineSet
481 928 m 2
 481 904 l 2
 481 899 479 896 471 896 c 2
 236 896 l 2
 230 896 229 899 229 904 c 2
 229 927 l 2
 229 931 231 934 234 934 c 2
 476 934 l 2
 479 934 481 931 481 928 c 2
598 230 m 2
 598 69 517 -10 351 -10 c 0
 183 -10 104 71 104 245 c 2
 104 731 l 2
 104 739 106 742 112 742 c 2
 140 742 l 2
 148 742 150 740 150 732 c 2
 150 226 l 2
 150 96 217 32 353 32 c 0
 491 32 558 97 558 229 c 2
 558 733 l 2
 558 739 560 742 566 742 c 2
 590 742 l 2
 596 742 598 739 598 733 c 2
 598 230 l 2
EndSplineSet
Validated: 1
EndChar

StartChar: Uogonek
Encoding: 370 370 172
Width: 702
GlyphClass: 2
Flags: MW
HStem: -171 34<364.5 391> -10 42 722 20G<112 140 140 144 566 590 590 593>
VStem: 104 46<245 731 731 732> 283 44<-109 -76.5 -109 -76> 558 40<229 230 230 733>
AnchorPoint: "Anchor-5" 632 742 basechar 0
AnchorPoint: "Anchor-4" 355 742 basechar 0
AnchorPoint: "Anchor-3" 423 9 basechar 0
AnchorPoint: "Anchor-2" 351 0 basechar 0
LayerCount: 2
Fore
SplineSet
590 742 m 2
 596 742 598 739 598 733 c 2
 598 230 l 2
 598 93 540 16 420 -5 c 1
 358 -34 327 -58 327 -95 c 0
 327 -123 344 -137 385 -137 c 0
 416 -137 442 -129 450 -125 c 0
 456 -122 458 -123 458 -128 c 2
 458 -148 l 2
 458 -153 457 -154 453 -156 c 0
 438 -163 407 -171 375 -171 c 0
 311 -171 283 -138 283 -93 c 0
 283 -59 299 -32 345 -10 c 1
 181 -8 104 73 104 245 c 2
 104 731 l 2
 104 739 106 742 112 742 c 2
 140 742 l 2
 148 742 150 740 150 732 c 2
 150 226 l 2
 150 96 217 32 353 32 c 0
 491 32 558 97 558 229 c 2
 558 733 l 2
 558 739 560 742 566 742 c 2
 590 742 l 2
EndSplineSet
Validated: 1
EndChar

StartChar: Uring
Encoding: 366 366 173
Width: 702
GlyphClass: 2
Flags: MW
HStem: -10 42<285 422 285 434> 722 20G<112 140 140 144 566 590 590 593> 766 40<342.5 374.5 342.5 387> 924 40<342.5 374.5>
VStem: 104 46<245 731 731 732> 259 40<849.5 882.5 849.5 894.5> 416 43<849.5 882.5> 558 40<229 230 230 733>
AnchorPoint: "Anchor-5" 632 742 basechar 0
AnchorPoint: "Anchor-4" 355 742 basechar 0
AnchorPoint: "Anchor-3" 423 9 basechar 0
AnchorPoint: "Anchor-2" 351 0 basechar 0
LayerCount: 2
Fore
SplineSet
459 866 m 0
 459 809 415 766 359 766 c 0
 303 766 259 810 259 868 c 0
 259 921 304 964 359 964 c 0
 415 964 459 921 459 866 c 0
416 865 m 0
 416 900 391 924 358 924 c 0
 327 924 299 900 299 865 c 0
 299 834 327 806 358 806 c 0
 391 806 416 834 416 865 c 0
598 230 m 2
 598 69 517 -10 351 -10 c 0
 183 -10 104 71 104 245 c 2
 104 731 l 2
 104 739 106 742 112 742 c 2
 140 742 l 2
 148 742 150 740 150 732 c 2
 150 226 l 2
 150 96 217 32 353 32 c 0
 491 32 558 97 558 229 c 2
 558 733 l 2
 558 739 560 742 566 742 c 2
 590 742 l 2
 596 742 598 739 598 733 c 2xdf
 598 230 l 2
EndSplineSet
Validated: 1
EndChar

StartChar: Utilde
Encoding: 360 360 174
Width: 702
GlyphClass: 2
Flags: MW
HStem: -10 42<285 422 285 434> 722 20G<112 140 140 144 566 590 590 593> 885 33<392 425 392 431> 909 34<284 317 280 319.5>
VStem: 104 46<245 731 731 732> 558 40<229 230 230 733>
AnchorPoint: "Anchor-5" 632 742 basechar 0
AnchorPoint: "Anchor-4" 355 742 basechar 0
AnchorPoint: "Anchor-3" 423 9 basechar 0
AnchorPoint: "Anchor-2" 351 0 basechar 0
LayerCount: 2
Fore
SplineSet
480 904 m 0xec
 467 896 449 885 413 885 c 0xec
 361 885 340 909 299 909 c 0
 269 909 256 896 243 889 c 0
 237 886 235 886 232 893 c 2
 225 909 l 2
 223 914 224 915 227 917 c 0
 247 931 265 943 295 943 c 0xdc
 339 943 370 918 414 918 c 0
 436 918 447 924 464 934 c 0
 471 938 474 937 477 931 c 2
 485 913 l 2
 487 909 486 908 480 904 c 0xec
598 230 m 2
 598 69 517 -10 351 -10 c 0
 183 -10 104 71 104 245 c 2
 104 731 l 2
 104 739 106 742 112 742 c 2
 140 742 l 2
 148 742 150 740 150 732 c 2
 150 226 l 2
 150 96 217 32 353 32 c 0
 491 32 558 97 558 229 c 2
 558 733 l 2
 558 739 560 742 566 742 c 2
 590 742 l 2
 596 742 598 739 598 733 c 2
 598 230 l 2
EndSplineSet
Validated: 1
EndChar

StartChar: V
Encoding: 86 86 175
Width: 690
Flags: MW
HStem: 0 54.38 722 20G<61 84 84 88 605 630 630 633>
VStem: 52.41 585.17
LayerCount: 2
Fore
SplineSet
630 742 m 6
 636 742 639 738 637 733 c 6
 375 11 l 6
 372 3 368 0 359 0 c 6
 327 0 l 6
 316 0 310 3 308 10 c 6
 53 732 l 6
 51 738 54 742 61 742 c 6
 84 742 l 6
 92 742 95 740 97 734 c 6
 334 64 l 6
 339 51 345 51 350 65 c 6
 594 735 l 6
 596 740 599 742 605 742 c 6
 630 742 l 6
EndSplineSet
Validated: 1
EndChar

StartChar: W
Encoding: 87 87 176
Width: 1021
GlyphClass: 2
Flags: MW
HStem: 0 61.38 661 81 722 20G<64 89 89 93 500 525 525 529 935 960 960 963>
VStem: 55.41 911.59
AnchorPoint: "Anchor-5" 0 0 basechar 0
AnchorPoint: "Anchor-4" 513 742 basechar 0
AnchorPoint: "Anchor-3" 0 0 basechar 0
AnchorPoint: "Anchor-2" 0 0 basechar 0
LayerCount: 2
Fore
SplineSet
960 742 m 2xb0
 966 742 968 738 967 733 c 2
 760 11 l 2
 758 3 754 0 744 0 c 2
 712 0 l 2
 702 0 696 3 694 10 c 2
 513 658 l 2
 512 662 510 662 509 658 c 2xd0
 324 11 l 2
 322 3 318 0 308 0 c 2
 276 0 l 2
 266 0 260 3 258 10 c 2
 56 732 l 2
 54 738 57 742 64 742 c 2
 89 742 l 2
 97 742 99 740 101 734 c 2
 286 71 l 2
 290 58 294 58 298 72 c 2
 487 735 l 2
 488 738 491 742 500 742 c 2
 525 742 l 2
 533 742 535 740 537 734 c 2
 722 71 l 2
 726 58 730 58 734 72 c 2
 923 735 l 2
 924 740 929 742 935 742 c 2
 960 742 l 2xb0
EndSplineSet
Validated: 1
EndChar

StartChar: Wacute
Encoding: 7810 7810 177
Width: 1021
GlyphClass: 2
Flags: MW
HStem: 0 61.38 661 81 722 20G<64 89 89 93 500 525 525 529 935 960 960 963>
VStem: 55.41 911.59
AnchorPoint: "Anchor-5" 0 0 basechar 0
AnchorPoint: "Anchor-4" 513 742 basechar 0
AnchorPoint: "Anchor-3" 0 0 basechar 0
AnchorPoint: "Anchor-2" 0 0 basechar 0
LayerCount: 2
Fore
SplineSet
632 964 m 2xb0
 642 932 l 2
 644 926 643 923 635 920 c 2
 408 846 l 2
 402 844 399 845 397 851 c 2
 392 866 l 2
 390 871 392 875 395 876 c 2
 624 967 l 2
 627 968 631 967 632 964 c 2xb0
960 742 m 2
 966 742 968 738 967 733 c 2
 760 11 l 2
 758 3 754 0 744 0 c 2
 712 0 l 2
 702 0 696 3 694 10 c 2
 513 658 l 2
 512 662 510 662 509 658 c 2xd0
 324 11 l 2
 322 3 318 0 308 0 c 2
 276 0 l 2
 266 0 260 3 258 10 c 2
 56 732 l 2
 54 738 57 742 64 742 c 2
 89 742 l 2
 97 742 99 740 101 734 c 2
 286 71 l 2
 290 58 294 58 298 72 c 2
 487 735 l 2
 488 738 491 742 500 742 c 2
 525 742 l 2
 533 742 535 740 537 734 c 2
 722 71 l 2
 726 58 730 58 734 72 c 2
 923 735 l 2
 924 740 929 742 935 742 c 2
 960 742 l 2
EndSplineSet
Validated: 1
EndChar

StartChar: Wcircumflex
Encoding: 372 372 178
Width: 1021
GlyphClass: 2
Flags: MW
HStem: 0 61.38 661 81 722 20G<64 89 89 93 500 525 525 529 935 960 960 963> 916 38
VStem: 55.41 911.59
AnchorPoint: "Anchor-5" 0 0 basechar 0
AnchorPoint: "Anchor-4" 512 876 basechar 0
AnchorPoint: "Anchor-3" 0 0 basechar 0
AnchorPoint: "Anchor-2" 0 0 basechar 0
LayerCount: 2
Fore
SplineSet
581 862 m 2xb8
 522 910 l 2
 512 918 514 918 503 910 c 2
 441 862 l 2
 434 857 433 856 426 856 c 2
 389 856 l 2
 382 856 381 861 387 866 c 2
 486 945 l 2
 492 950 497 954 506 954 c 2
 524 954 l 2
 532 954 536 949 540 946 c 2
 638 866 l 2
 645 860 645 856 637 856 c 2
 596 856 l 2
 590 856 586 858 581 862 c 2xb8
960 742 m 6
 966 742 968 738 967 733 c 6
 760 11 l 6
 758 3 754 0 744 0 c 6
 712 0 l 6
 702 0 696 3 694 10 c 6
 513 658 l 6
 512 662 510 662 509 658 c 6xd8
 324 11 l 6
 322 3 318 0 308 0 c 6
 276 0 l 6
 266 0 260 3 258 10 c 6
 56 732 l 6
 54 738 57 742 64 742 c 6
 89 742 l 6
 97 742 99 740 101 734 c 6
 286 71 l 6
 290 58 294 58 298 72 c 6
 487 735 l 6
 488 738 491 742 500 742 c 6
 525 742 l 6
 533 742 535 740 537 734 c 6
 722 71 l 6
 726 58 730 58 734 72 c 6
 923 735 l 6
 924 740 929 742 935 742 c 6
 960 742 l 6
EndSplineSet
Validated: 1
EndChar

StartChar: Wdieresis
Encoding: 7812 7812 179
Width: 1021
GlyphClass: 2
Flags: MW
HStem: 0 61.38 661 81 722 20G<64 89 89 93 500 525 525 529 935 960 960 963> 856 98<441 443 443 470 552 554 554 581>
VStem: 432 50<866 868 868 944> 543 50<866 868 868 944>
AnchorPoint: "Anchor-5" 0 0 basechar 0
AnchorPoint: "Anchor-4" 513 742 basechar 0
AnchorPoint: "Anchor-3" 0 0 basechar 0
AnchorPoint: "Anchor-2" 0 0 basechar 0
LayerCount: 2
Fore
SplineSet
482 944 m 2xbc
 482 868 l 2
 482 858 480 856 470 856 c 2
 443 856 l 2
 434 856 432 858 432 866 c 2
 432 944 l 2
 432 952 434 954 441 954 c 2
 473 954 l 2
 480 954 482 952 482 944 c 2xbc
593 944 m 2
 593 868 l 2
 593 858 591 856 581 856 c 2
 554 856 l 2
 545 856 543 858 543 866 c 2
 543 944 l 2
 543 952 545 954 552 954 c 2
 584 954 l 2
 591 954 593 952 593 944 c 2
960 742 m 2
 966 742 968 738 967 733 c 2
 760 11 l 2
 758 3 754 0 744 0 c 2
 712 0 l 2
 702 0 696 3 694 10 c 2
 513 658 l 2
 512 662 510 662 509 658 c 2xdc
 324 11 l 2
 322 3 318 0 308 0 c 2
 276 0 l 2
 266 0 260 3 258 10 c 2
 56 732 l 2
 54 738 57 742 64 742 c 2
 89 742 l 2
 97 742 99 740 101 734 c 2
 286 71 l 2
 290 58 294 58 298 72 c 2
 487 735 l 2
 488 738 491 742 500 742 c 2
 525 742 l 2
 533 742 535 740 537 734 c 2
 722 71 l 2
 726 58 730 58 734 72 c 2
 923 735 l 2
 924 740 929 742 935 742 c 2
 960 742 l 2
EndSplineSet
Validated: 1
EndChar

StartChar: Wgrave
Encoding: 7808 7808 180
Width: 1021
GlyphClass: 2
Flags: MW
HStem: 0 61.38 661 81 722 20G<64 89 89 93 500 525 525 529 935 960 960 963>
VStem: 55.41 911.59
AnchorPoint: "Anchor-5" 0 0 basechar 0
AnchorPoint: "Anchor-4" 513 742 basechar 0
AnchorPoint: "Anchor-3" 0 0 basechar 0
AnchorPoint: "Anchor-2" 0 0 basechar 0
LayerCount: 2
Fore
SplineSet
405 960 m 2xb0
 406 963 410 964 413 963 c 2
 642 872 l 2
 645 871 647 867 645 862 c 2
 640 847 l 2
 638 841 635 840 629 842 c 2
 402 916 l 2
 394 919 393 922 395 928 c 2
 405 960 l 2xb0
960 742 m 2
 966 742 968 738 967 733 c 2
 760 11 l 2
 758 3 754 0 744 0 c 2
 712 0 l 2
 702 0 696 3 694 10 c 2
 513 658 l 2
 512 662 510 662 509 658 c 2xd0
 324 11 l 2
 322 3 318 0 308 0 c 2
 276 0 l 2
 266 0 260 3 258 10 c 2
 56 732 l 2
 54 738 57 742 64 742 c 2
 89 742 l 2
 97 742 99 740 101 734 c 2
 286 71 l 2
 290 58 294 58 298 72 c 2
 487 735 l 2
 488 738 491 742 500 742 c 2
 525 742 l 2
 533 742 535 740 537 734 c 2
 722 71 l 2
 726 58 730 58 734 72 c 2
 923 735 l 2
 924 740 929 742 935 742 c 2
 960 742 l 2
EndSplineSet
Validated: 1
EndChar

StartChar: X
Encoding: 88 88 181
Width: 662
Flags: MW
HStem: 0 21G<55 58 58 94 565 567 567 603> 335.25 88.5 722 20G<67 106 106 109 554 595 595 597>
VStem: 300.25 59.25
LayerCount: 2
Fore
SplineSet
607 10 m 2
 613 2 609 0 603 0 c 2
 567 0 l 2
 563 0 562 1 560 4 c 2
 340 327 l 2
 333 338 329 339 319 324 c 2
 102 4 l 2
 100 1 97 0 94 0 c 2
 58 0 l 2
 52 0 50 2 55 10 c 2
 297 370 l 2
 302 377 301 383 296 391 c 2
 64 734 l 2
 62 737 63 742 67 742 c 2
 106 742 l 2
 112 742 113 741 115 738 c 2
 322 430 l 2
 328 422 332 421 339 431 c 2
 546 738 l 2
 548 741 550 742 554 742 c 2
 595 742 l 2
 599 742 599 739 597 736 c 2
 363 390 l 2
 359 384 358 380 362 374 c 2
 607 10 l 2
EndSplineSet
Validated: 1
EndChar

